SplineFontDB: 3.0
FontName: Coustard
FullName: Coustard
FamilyName: Coustard
Weight: Book
Copyright: Copyright (c) 2011 by vernon adams. All rights reserved. with\nReserved Font Names "Coustard" and "Coustard Regular". This\nFont Software is licensed under the SIL Open Font License, Version\n1.1. This license is available with a FAQ at:\nhttp://scripts.sil.org/OFL
Version: 1.000
ItalicAngle: 0
UnderlinePosition: 0
UnderlineWidth: 0
Ascent: 1638
Descent: 410
sfntRevision: 0x00010000
LayerCount: 2
Layer: 0 1 "Back"  1
Layer: 1 1 "Fore"  0
XUID: [1021 14 500265001 3192552]
FSType: 0
OS2Version: 2
OS2_WeightWidthSlopeOnly: 0
OS2_UseTypoMetrics: 1
CreationTime: 1309244640
ModificationTime: 1312536693
PfmFamily: 17
TTFWeight: 400
TTFWidth: 5
LineGap: 0
VLineGap: 0
Panose: 2 11 8 3 5 3 2 2 2 4
OS2TypoAscent: 457
OS2TypoAOffset: 1
OS2TypoDescent: -371
OS2TypoDOffset: 1
OS2TypoLinegap: 0
OS2WinAscent: 5
OS2WinAOffset: 1
OS2WinDescent: 135
OS2WinDOffset: 1
HheadAscent: 5
HheadAOffset: 1
HheadDescent: -135
HheadDOffset: 1
OS2SubXSize: 1331
OS2SubYSize: 1228
OS2SubXOff: 0
OS2SubYOff: 153
OS2SupXSize: 1331
OS2SupYSize: 1228
OS2SupXOff: 0
OS2SupYOff: 716
OS2StrikeYSize: 0
OS2StrikeYPos: 640
OS2Vendor: 'newt'
OS2CodePages: 00000001.00000000
OS2UnicodeRanges: 00000007.00000000.00000000.00000000
Lookup: 4 0 1 "'liga' Standard Ligatures in Latin lookup 0"  {"'liga' Standard Ligatures in Latin lookup 0 subtable"  } ['liga' ('DFLT' <'dflt' > 'latn' <'dflt' > ) ]
Lookup: 258 0 0 "'kern' Horizontal Kerning in Latin lookup 0"  {"'kern' Horizontal Kerning in Latin lookup 0 subtable"  } ['kern' ('latn' <'dflt' > ) ]
MarkAttachClasses: 1
DEI: 91125
KernClass2: 6 4 "'kern' Horizontal Kerning in Latin lookup 0 subtable" 
 1 T
 5 V W Y
 1 F
 1 f
 66 A Aacute Acircumflex Adieresis Agrave Aring Atilde Amacron Aogonek

StartChar: exclam
Encoding: 33 33 4
Width: 437
GlyphClass: 2
Flags: W
LayerCount: 2
Fore
SplineSet
214 416 m 0,0,1
 195 416 195 416 184 417.5 c 128,-1,2
 173 419 173 419 164 422 c 128,-1,3
 155 425 155 425 150.5 434.5 c 128,-1,4
 146 444 146 444 143 453 c 128,-1,5
 140 462 140 462 139 483 c 128,-1,6
 138 504 138 504 137 524 c 128,-1,7
 136 544 136 544 134.5 580.5 c 128,-1,8
 133 617 133 617 130 652 c 0,9,10
 122 761 122 761 105.5 953.5 c 128,-1,11
 89 1146 89 1146 77 1283.5 c 128,-1,12
 65 1421 65 1421 65 1438 c 0,13,14
 65 1480 65 1480 86.5 1498 c 128,-1,15
 108 1516 108 1516 155 1516 c 2,16,-1
 271 1516 l 2,17,18
 318 1516 318 1516 339.5 1498 c 128,-1,19
 361 1480 361 1480 361 1438 c 0,20,21
 361 1421 361 1421 348.5 1283 c 128,-1,22
 336 1145 336 1145 318.5 953.5 c 128,-1,23
 301 762 301 762 293 652 c 0,24,25
 290 617 290 617 288.5 580.5 c 128,-1,26
 287 544 287 544 286.5 524 c 128,-1,27
 286 504 286 504 285 483.5 c 128,-1,28
 284 463 284 463 281.5 453.5 c 128,-1,29
 279 444 279 444 275 434.5 c 128,-1,30
 271 425 271 425 262.5 422 c 128,-1,31
 254 419 254 419 243 417.5 c 128,-1,32
 232 416 232 416 214 416 c 0,0,1
45 137 m 0,33,34
 45 206 45 206 91 253 c 128,-1,35
 137 300 137 300 226 300 c 0,36,37
 313 300 313 300 357 252.5 c 128,-1,38
 401 205 401 205 401 137 c 0,39,40
 401 70 401 70 357 22 c 128,-1,41
 313 -26 313 -26 226 -26 c 0,42,43
 137 -26 137 -26 91 21.5 c 128,-1,44
 45 69 45 69 45 137 c 0,33,34
EndSplineSet
EndChar

StartChar: quotedbl
Encoding: 34 34 5
Width: 940
GlyphClass: 2
Flags: W
LayerCount: 2
Fore
SplineSet
583 986 m 0,0,1
 583 1012 583 1012 632.5 1081.5 c 128,-1,2
 682 1151 682 1151 682 1155 c 0,3,4
 682 1165 682 1165 664 1173 c 128,-1,5
 646 1181 646 1181 620 1191 c 128,-1,6
 594 1201 594 1201 567.5 1216.5 c 128,-1,7
 541 1232 541 1232 523 1264 c 128,-1,8
 505 1296 505 1296 505 1340 c 0,9,10
 505 1416 505 1416 557.5 1464 c 128,-1,11
 610 1512 610 1512 693 1512 c 0,12,13
 773 1512 773 1512 828.5 1459.5 c 128,-1,14
 884 1407 884 1407 884 1331 c 0,15,16
 884 1244 884 1244 848.5 1156.5 c 128,-1,17
 813 1069 813 1069 753.5 1012 c 128,-1,18
 694 955 694 955 631 955 c 0,19,20
 583 955 583 955 583 986 c 0,0,1
122 986 m 0,21,22
 122 1012 122 1012 171.5 1081.5 c 128,-1,23
 221 1151 221 1151 221 1155 c 0,24,25
 221 1165 221 1165 203 1173 c 128,-1,26
 185 1181 185 1181 159 1191 c 128,-1,27
 133 1201 133 1201 106.5 1216.5 c 128,-1,28
 80 1232 80 1232 62 1264 c 128,-1,29
 44 1296 44 1296 44 1340 c 0,30,31
 44 1416 44 1416 96.5 1464 c 128,-1,32
 149 1512 149 1512 232 1512 c 0,33,34
 312 1512 312 1512 367.5 1459.5 c 128,-1,35
 423 1407 423 1407 423 1331 c 0,36,37
 423 1244 423 1244 387.5 1156.5 c 128,-1,38
 352 1069 352 1069 292.5 1012 c 128,-1,39
 233 955 233 955 170 955 c 0,40,41
 122 955 122 955 122 986 c 0,21,22
EndSplineSet
EndChar

StartChar: numbersign
Encoding: 35 35 6
Width: 1118
GlyphClass: 2
Flags: W
LayerCount: 2
Fore
SplineSet
533 536 m 0,0,1
 545 603 545 603 584 735 c 1,2,-1
 384 735 l 1,3,4
 368 681 368 681 327 533 c 0,5,6
 319 504 319 504 314 491.5 c 128,-1,7
 309 479 309 479 297.5 463 c 128,-1,8
 286 447 286 447 267 441.5 c 128,-1,9
 248 436 248 436 218 436 c 0,10,11
 201 436 201 436 181.5 442 c 128,-1,12
 162 448 162 448 142.5 467.5 c 128,-1,13
 123 487 123 487 123 518 c 0,14,15
 123 531 123 531 125.5 548 c 128,-1,16
 128 565 128 565 134 588.5 c 128,-1,17
 140 612 140 612 145 630 c 128,-1,18
 150 648 150 648 159.5 681 c 128,-1,19
 169 714 169 714 174 731 c 1,20,21
 164 731 164 731 145.5 730.5 c 128,-1,22
 127 730 127 730 118 730 c 2,23,-1
 102 730 l 2,24,25
 69 730 69 730 53.5 739 c 128,-1,26
 38 748 38 748 38 778 c 0,27,28
 38 789 38 789 39 795 c 0,29,30
 41 819 41 819 61.5 850.5 c 128,-1,31
 82 882 82 882 122 893 c 1,32,33
 161 899 161 899 223 901 c 1,34,35
 234 936 234 936 253.5 1000.5 c 128,-1,36
 273 1065 273 1065 281 1091 c 1,37,38
 269 1091 269 1091 245 1090.5 c 128,-1,39
 221 1090 221 1090 210 1090 c 2,40,-1
 194 1090 l 2,41,42
 161 1090 161 1090 145.5 1099 c 128,-1,43
 130 1108 130 1108 130 1138 c 0,44,45
 130 1149 130 1149 131 1155 c 0,46,47
 133 1179 133 1179 153.5 1210.5 c 128,-1,48
 174 1242 174 1242 214 1253 c 1,49,50
 228 1255 228 1255 333 1262 c 1,51,52
 373 1394 373 1394 385 1444 c 0,53,54
 398 1496 398 1496 484 1496 c 0,55,56
 585 1496 585 1496 585 1434 c 0,57,58
 585 1420 585 1420 577.5 1393.5 c 128,-1,59
 570 1367 570 1367 556 1326.5 c 128,-1,60
 542 1286 542 1286 536 1265 c 1,61,-1
 742 1265 l 1,62,63
 776 1378 776 1378 793 1444 c 0,64,65
 806 1496 806 1496 892 1496 c 0,66,67
 993 1496 993 1496 993 1434 c 0,68,69
 993 1423 993 1423 977 1371 c 2,70,-1
 944 1268 l 1,71,-1
 1044 1268 l 2,72,73
 1081 1268 1081 1268 1081 1223 c 2,74,-1
 1081 1217 l 2,75,76
 1081 1203 1081 1203 1078 1187 c 128,-1,77
 1075 1171 1075 1171 1066.5 1149.5 c 128,-1,78
 1058 1128 1058 1128 1037 1114 c 128,-1,79
 1016 1100 1016 1100 985 1100 c 2,80,-1
 895 1100 l 1,81,-1
 840 908 l 1,82,-1
 952 908 l 2,83,84
 989 908 989 908 989 863 c 2,85,-1
 989 857 l 2,86,87
 989 843 989 843 986 827 c 128,-1,88
 983 811 983 811 974.5 789.5 c 128,-1,89
 966 768 966 768 945 754 c 128,-1,90
 924 740 924 740 893 740 c 2,91,-1
 793 740 l 1,92,-1
 735 533 l 2,93,94
 727 504 727 504 722 491.5 c 128,-1,95
 717 479 717 479 705.5 463 c 128,-1,96
 694 447 694 447 675 441.5 c 128,-1,97
 656 436 656 436 626 436 c 0,98,99
 609 436 609 436 589.5 442 c 128,-1,100
 570 448 570 448 550.5 467.5 c 128,-1,101
 531 487 531 487 531 518 c 0,102,103
 531 529 531 529 533 536 c 0,0,1
486 1095 m 1,104,-1
 432 905 l 1,105,-1
 632 905 l 1,106,-1
 691 1095 l 1,107,-1
 486 1095 l 1,104,-1
EndSplineSet
EndChar

StartChar: dollar
Encoding: 36 36 7
Width: 999
GlyphClass: 2
Flags: W
LayerCount: 2
Fore
SplineSet
284 238 m 1,0,-1
 400 240 l 1,1,2
 398 210 398 210 397.5 159 c 128,-1,3
 397 108 397 108 395.5 82.5 c 128,-1,4
 394 57 394 57 388.5 27.5 c 128,-1,5
 383 -2 383 -2 370 -14.5 c 128,-1,6
 357 -27 357 -27 336 -27 c 128,-1,7
 315 -27 315 -27 299.5 -7.5 c 128,-1,8
 284 12 284 12 284 48 c 2,9,-1
 284 238 l 1,0,-1
497 239 m 1,10,-1
 613 239 l 1,11,-1
 613 48 l 2,12,13
 613 13 613 13 596 -7 c 128,-1,14
 579 -27 579 -27 556 -27 c 0,15,16
 537 -27 537 -27 525 -15 c 128,-1,17
 513 -3 513 -3 508.5 26 c 128,-1,18
 504 55 504 55 502.5 80 c 128,-1,19
 501 105 501 105 500 156.5 c 128,-1,20
 499 208 499 208 497 239 c 1,10,-1
382 1249 m 1,21,-1
 266 1251 l 1,22,-1
 266 1441 l 2,23,24
 266 1477 266 1477 281.5 1496.5 c 128,-1,25
 297 1516 297 1516 318 1516 c 128,-1,26
 339 1516 339 1516 352 1503.5 c 128,-1,27
 365 1491 365 1491 370.5 1461.5 c 128,-1,28
 376 1432 376 1432 377.5 1406 c 128,-1,29
 379 1380 379 1380 379.5 1329.5 c 128,-1,30
 380 1279 380 1279 382 1249 c 1,21,-1
595 1250 m 1,31,-1
 479 1250 l 1,32,33
 480 1276 480 1276 481 1310 c 128,-1,34
 482 1344 482 1344 482.5 1367 c 128,-1,35
 483 1390 483 1390 484.5 1415.5 c 128,-1,36
 486 1441 486 1441 489.5 1457.5 c 128,-1,37
 493 1474 493 1474 498.5 1488.5 c 128,-1,38
 504 1503 504 1503 514 1509.5 c 128,-1,39
 524 1516 524 1516 538 1516 c 0,40,41
 561 1516 561 1516 578 1496 c 128,-1,42
 595 1476 595 1476 595 1441 c 2,43,-1
 595 1250 l 1,31,-1
958 484 m 0,44,45
 958 383 958 383 896.5 316.5 c 128,-1,46
 835 250 835 250 734 221 c 128,-1,47
 633 192 633 192 495 192 c 0,48,49
 283 192 283 192 163.5 253 c 128,-1,50
 44 314 44 314 44 440 c 0,51,52
 44 583 44 583 219 583 c 0,53,54
 247 583 247 583 256 572 c 128,-1,55
 265 561 265 561 265 530 c 2,56,-1
 265 394 l 1,57,58
 302 374 302 374 374.5 363 c 128,-1,59
 447 352 447 352 521 352 c 0,60,61
 609 352 609 352 666.5 388.5 c 128,-1,62
 724 425 724 425 724 489 c 0,63,64
 724 534 724 534 695 569.5 c 128,-1,65
 666 605 666 605 619 627 c 128,-1,66
 572 649 572 649 511.5 671.5 c 128,-1,67
 451 694 451 694 388.5 713 c 128,-1,68
 326 732 326 732 265.5 761 c 128,-1,69
 205 790 205 790 158 824 c 128,-1,70
 111 858 111 858 82 913 c 128,-1,71
 53 968 53 968 53 1037 c 0,72,73
 53 1126 53 1126 119 1191 c 128,-1,74
 185 1256 185 1256 280.5 1285 c 128,-1,75
 376 1314 376 1314 485 1314 c 0,76,77
 933 1314 933 1314 933 1054 c 0,78,79
 933 1038 933 1038 927.5 1020 c 128,-1,80
 922 1002 922 1002 906.5 978 c 128,-1,81
 891 954 891 954 855 938.5 c 128,-1,82
 819 923 819 923 767 923 c 0,83,84
 747 923 747 923 735.5 926 c 128,-1,85
 724 929 724 929 719 937 c 128,-1,86
 714 945 714 945 713 952.5 c 128,-1,87
 712 960 712 960 712 976 c 2,88,-1
 712 1116 l 1,89,90
 698 1130 698 1130 625.5 1147 c 128,-1,91
 553 1164 553 1164 501 1164 c 0,92,93
 399 1164 399 1164 349.5 1126 c 128,-1,94
 300 1088 300 1088 300 1030 c 0,95,96
 300 988 300 988 336.5 956 c 128,-1,97
 373 924 373 924 431 901.5 c 128,-1,98
 489 879 489 879 559 857 c 128,-1,99
 629 835 629 835 699 804.5 c 128,-1,100
 769 774 769 774 827 735 c 128,-1,101
 885 696 885 696 921.5 631.5 c 128,-1,102
 958 567 958 567 958 484 c 0,44,45
EndSplineSet
EndChar

StartChar: percent
Encoding: 37 37 8
Width: 1733
GlyphClass: 2
Flags: W
LayerCount: 2
Fore
SplineSet
34 1053 m 0,0,1
 34 1159 34 1159 86 1240.5 c 128,-1,2
 138 1322 138 1322 216.5 1362.5 c 128,-1,3
 295 1403 295 1403 383 1403 c 0,4,5
 451 1403 451 1403 511.5 1382 c 128,-1,6
 572 1361 572 1361 621 1319.5 c 128,-1,7
 670 1278 670 1278 699 1209 c 128,-1,8
 728 1140 728 1140 728 1052 c 0,9,10
 728 968 728 968 697 899 c 128,-1,11
 666 830 666 830 615 786.5 c 128,-1,12
 564 743 564 743 500.5 719.5 c 128,-1,13
 437 696 437 696 370 696 c 0,14,15
 305 696 305 696 245.5 718 c 128,-1,16
 186 740 186 740 138.5 782.5 c 128,-1,17
 91 825 91 825 62.5 895 c 128,-1,18
 34 965 34 965 34 1053 c 0,0,1
554 1042 m 0,19,20
 554 1162 554 1162 503 1226 c 128,-1,21
 452 1290 452 1290 380 1290 c 128,-1,22
 308 1290 308 1290 254.5 1227.5 c 128,-1,23
 201 1165 201 1165 201 1060 c 0,24,25
 201 944 201 944 254 880 c 128,-1,26
 307 816 307 816 380 816 c 0,27,28
 450 816 450 816 502 876 c 128,-1,29
 554 936 554 936 554 1042 c 0,19,20
368 86 m 1,30,31
 422 174 422 174 778 774 c 128,-1,32
 1134 1374 1134 1374 1155 1409 c 0,33,34
 1193 1472 1193 1472 1279 1472 c 0,35,36
 1294 1472 1294 1472 1310.5 1453 c 128,-1,37
 1327 1434 1327 1434 1327 1404 c 0,38,39
 1327 1391 1327 1391 1312 1365 c 0,40,41
 1247 1249 1247 1249 932 716 c 128,-1,42
 617 183 617 183 574 105 c 0,43,44
 526 18 526 18 431 18 c 0,45,46
 418 18 418 18 392 37.5 c 128,-1,47
 366 57 366 57 366 78 c 0,48,49
 366 80 366 80 368 86 c 1,30,31
1000 440 m 0,50,51
 1000 546 1000 546 1052 627.5 c 128,-1,52
 1104 709 1104 709 1182.5 749.5 c 128,-1,53
 1261 790 1261 790 1349 790 c 0,54,55
 1417 790 1417 790 1477.5 769 c 128,-1,56
 1538 748 1538 748 1587 706.5 c 128,-1,57
 1636 665 1636 665 1665 596 c 128,-1,58
 1694 527 1694 527 1694 439 c 0,59,60
 1694 355 1694 355 1663 286 c 128,-1,61
 1632 217 1632 217 1581 173.5 c 128,-1,62
 1530 130 1530 130 1466.5 106.5 c 128,-1,63
 1403 83 1403 83 1336 83 c 0,64,65
 1271 83 1271 83 1211.5 105 c 128,-1,66
 1152 127 1152 127 1104.5 169.5 c 128,-1,67
 1057 212 1057 212 1028.5 282 c 128,-1,68
 1000 352 1000 352 1000 440 c 0,50,51
1520 429 m 0,69,70
 1520 549 1520 549 1469 613 c 128,-1,71
 1418 677 1418 677 1346 677 c 128,-1,72
 1274 677 1274 677 1220.5 614.5 c 128,-1,73
 1167 552 1167 552 1167 447 c 0,74,75
 1167 331 1167 331 1220 267 c 128,-1,76
 1273 203 1273 203 1346 203 c 0,77,78
 1416 203 1416 203 1468 263 c 128,-1,79
 1520 323 1520 323 1520 429 c 0,69,70
EndSplineSet
EndChar

StartChar: ampersand
Encoding: 38 38 9
Width: 1588
GlyphClass: 2
Flags: W
LayerCount: 2
Fore
SplineSet
1406 583 m 1,0,1
 1331 288 1331 288 1104.5 130 c 128,-1,2
 878 -28 878 -28 544 -28 c 0,3,4
 439 -28 439 -28 347 -2.5 c 128,-1,5
 255 23 255 23 186 70.5 c 128,-1,6
 117 118 117 118 77 192 c 128,-1,7
 37 266 37 266 37 357 c 0,8,9
 37 443 37 443 82.5 519.5 c 128,-1,10
 128 596 128 596 201 654 c 128,-1,11
 274 712 274 712 362 765 c 128,-1,12
 450 818 450 818 538 866.5 c 128,-1,13
 626 915 626 915 699 963 c 128,-1,14
 772 1011 772 1011 817.5 1069 c 128,-1,15
 863 1127 863 1127 863 1189 c 0,16,17
 863 1258 863 1258 786.5 1303 c 128,-1,18
 710 1348 710 1348 613 1348 c 0,19,20
 513 1348 513 1348 444 1299.5 c 128,-1,21
 375 1251 375 1251 375 1153 c 0,22,23
 375 1058 375 1058 562 870 c 0,24,25
 609 823 609 823 766 660.5 c 128,-1,26
 923 498 923 498 1032 389 c 0,27,28
 1036 385 1036 385 1074.5 345 c 128,-1,29
 1113 305 1113 305 1123.5 296 c 128,-1,30
 1134 287 1134 287 1169 255.5 c 128,-1,31
 1204 224 1204 224 1223.5 213.5 c 128,-1,32
 1243 203 1243 203 1276 185.5 c 128,-1,33
 1309 168 1309 168 1340 162 c 128,-1,34
 1371 156 1371 156 1405 156 c 0,35,36
 1491 156 1491 156 1543 175 c 1,37,38
 1546 23 1546 23 1546 -2 c 1,39,40
 1447 -27 1447 -27 1336 -27 c 0,41,42
 1227 -27 1227 -27 1154 9 c 128,-1,43
 1081 45 1081 45 947 172 c 1,44,45
 873 244 873 244 806 311 c 128,-1,46
 739 378 739 378 668.5 452 c 128,-1,47
 598 526 598 526 567 558 c 128,-1,48
 536 590 536 590 460 672 c 128,-1,49
 384 754 384 754 381 757 c 0,50,51
 264 875 264 875 208 971.5 c 128,-1,52
 152 1068 152 1068 152 1157 c 0,53,54
 152 1224 152 1224 174 1279 c 128,-1,55
 196 1334 196 1334 230.5 1370 c 128,-1,56
 265 1406 265 1406 311.5 1434 c 128,-1,57
 358 1462 358 1462 401.5 1476.5 c 128,-1,58
 445 1491 445 1491 491.5 1500.5 c 128,-1,59
 538 1510 538 1510 567 1512.5 c 128,-1,60
 596 1515 596 1515 618 1515 c 0,61,62
 711 1515 711 1515 794.5 1494 c 128,-1,63
 878 1473 878 1473 944.5 1433 c 128,-1,64
 1011 1393 1011 1393 1050.5 1328.5 c 128,-1,65
 1090 1264 1090 1264 1090 1185 c 0,66,67
 1090 1111 1090 1111 1062.5 1046 c 128,-1,68
 1035 981 1035 981 989 931 c 128,-1,69
 943 881 943 881 883 836 c 128,-1,70
 823 791 823 791 756.5 753.5 c 128,-1,71
 690 716 690 716 624 680 c 128,-1,72
 558 644 558 644 498 607.5 c 128,-1,73
 438 571 438 571 392 533 c 128,-1,74
 346 495 346 495 318.5 447.5 c 128,-1,75
 291 400 291 400 291 348 c 0,76,77
 291 257 291 257 369 207 c 128,-1,78
 447 157 447 157 562 157 c 0,79,80
 691 157 691 157 804.5 194 c 128,-1,81
 918 231 918 231 999.5 294.5 c 128,-1,82
 1081 358 1081 358 1138 437.5 c 128,-1,83
 1195 517 1195 517 1223 608 c 1,84,-1
 1142 620 l 2,85,86
 1127 622 1127 622 1119.5 624 c 128,-1,87
 1112 626 1112 626 1102.5 632 c 128,-1,88
 1093 638 1093 638 1089 649.5 c 128,-1,89
 1085 661 1085 661 1085 680 c 0,90,91
 1085 719 1085 719 1091 791 c 1,92,-1
 1095 791 l 2,93,94
 1092 791 1092 791 1186.5 792.5 c 128,-1,95
 1281 794 1281 794 1386.5 795.5 c 128,-1,96
 1492 797 1492 797 1517 797 c 0,97,98
 1528 797 1528 797 1528 696 c 0,99,100
 1528 651 1528 651 1521 643 c 0,101,102
 1508 627 1508 627 1469 615.5 c 128,-1,103
 1430 604 1430 604 1424 601 c 1,104,-1
 1406 583 l 1,0,1
EndSplineSet
EndChar

StartChar: quoteright
Encoding: 8217 8217 10
Width: 497
GlyphClass: 2
Flags: W
LayerCount: 2
Fore
SplineSet
176 986 m 0,0,1
 176 1012 176 1012 225.5 1081.5 c 128,-1,2
 275 1151 275 1151 275 1155 c 0,3,4
 275 1165 275 1165 257 1173 c 128,-1,5
 239 1181 239 1181 213 1191 c 128,-1,6
 187 1201 187 1201 160.5 1216.5 c 128,-1,7
 134 1232 134 1232 116 1264 c 128,-1,8
 98 1296 98 1296 98 1340 c 0,9,10
 98 1416 98 1416 150.5 1464 c 128,-1,11
 203 1512 203 1512 286 1512 c 0,12,13
 366 1512 366 1512 421.5 1459.5 c 128,-1,14
 477 1407 477 1407 477 1331 c 0,15,16
 477 1244 477 1244 441.5 1156.5 c 128,-1,17
 406 1069 406 1069 346.5 1012 c 128,-1,18
 287 955 287 955 224 955 c 0,19,20
 176 955 176 955 176 986 c 0,0,1
EndSplineSet
EndChar

StartChar: parenleft
Encoding: 40 40 11
Width: 664
GlyphClass: 2
Flags: W
LayerCount: 2
Fore
SplineSet
531 -155 m 1,0,1
 299 -20 299 -20 175 217 c 128,-1,2
 51 454 51 454 51 726 c 0,3,4
 51 996 51 996 174.5 1237.5 c 128,-1,5
 298 1479 298 1479 531 1625 c 1,6,7
 563 1621 563 1621 601.5 1576 c 128,-1,8
 640 1531 640 1531 642 1504 c 1,9,10
 471 1380 471 1380 380.5 1174 c 128,-1,11
 290 968 290 968 290 735 c 128,-1,12
 290 502 290 502 380.5 296 c 128,-1,13
 471 90 471 90 642 -34 c 1,14,15
 640 -61 640 -61 601.5 -106 c 128,-1,16
 563 -151 563 -151 531 -155 c 1,0,1
EndSplineSet
EndChar

StartChar: parenright
Encoding: 41 41 12
Width: 666
GlyphClass: 2
Flags: W
LayerCount: 2
Fore
SplineSet
135 -155 m 1,0,1
 103 -151 103 -151 64.5 -106 c 128,-1,2
 26 -61 26 -61 24 -34 c 1,3,4
 195 90 195 90 285.5 296 c 128,-1,5
 376 502 376 502 376 735 c 128,-1,6
 376 968 376 968 285.5 1174 c 128,-1,7
 195 1380 195 1380 24 1504 c 1,8,9
 26 1531 26 1531 64.5 1576 c 128,-1,10
 103 1621 103 1621 135 1625 c 1,11,12
 368 1479 368 1479 491.5 1237.5 c 128,-1,13
 615 996 615 996 615 726 c 0,14,15
 615 454 615 454 491 217 c 128,-1,16
 367 -20 367 -20 135 -155 c 1,0,1
EndSplineSet
EndChar

StartChar: asterisk
Encoding: 42 42 13
Width: 1164
GlyphClass: 2
Flags: W
LayerCount: 2
Fore
SplineSet
211 1205 m 1,0,-1
 510 1041 l 1,1,-1
 417 1364 l 1,2,3
 415 1376 415 1376 415 1381 c 0,4,5
 415 1432 415 1432 460.5 1472 c 128,-1,6
 506 1512 506 1512 566 1512 c 0,7,8
 627 1512 627 1512 675 1477 c 128,-1,9
 723 1442 723 1442 724 1390 c 0,10,11
 724 1389 724 1389 723.5 1382.5 c 128,-1,12
 723 1376 723 1376 723 1371 c 1,13,-1
 724 1374 l 1,14,-1
 651 1045 l 1,15,-1
 937 1226 l 1,16,17
 967 1239 967 1239 984 1239 c 0,18,19
 1038 1239 1038 1239 1082 1195 c 128,-1,20
 1126 1151 1126 1151 1126 1090 c 0,21,22
 1126 1045 1126 1045 1101.5 1007 c 128,-1,23
 1077 969 1077 969 1036 960 c 1,24,-1
 678 921 l 1,25,26
 712 898 712 898 820 822 c 128,-1,27
 928 746 928 746 974 714 c 1,28,29
 1010 664 1010 664 1010 633 c 0,30,31
 1010 563 1010 563 961.5 513 c 128,-1,32
 913 463 913 463 839 463 c 0,33,34
 810 463 810 463 784 474.5 c 128,-1,35
 758 486 758 486 747 508 c 2,36,-1
 585 827 l 1,37,-1
 443 499 l 2,38,39
 433 476 433 476 404 462 c 128,-1,40
 375 448 375 448 345 448 c 0,41,42
 275 448 275 448 223 495 c 128,-1,43
 171 542 171 542 171 609 c 0,44,45
 171 645 171 645 194 681 c 1,46,-1
 203 692 l 1,47,-1
 488 915 l 1,48,-1
 131 934 l 1,49,50
 89 941 89 941 60.5 977.5 c 128,-1,51
 32 1014 32 1014 32 1058 c 0,52,53
 32 1120 32 1120 71 1167.5 c 128,-1,54
 110 1215 110 1215 165 1215 c 0,55,56
 189 1215 189 1215 211 1205 c 1,0,-1
EndSplineSet
EndChar

StartChar: plus
Encoding: 43 43 14
Width: 947
GlyphClass: 2
Flags: W
LayerCount: 2
Fore
SplineSet
722 831 m 0,0,1
 826 831 826 831 865 834 c 1,2,3
 901 820 901 820 901 749 c 0,4,5
 901 644 901 644 846 644 c 1,6,7
 840 646 840 646 773.5 647.5 c 128,-1,8
 707 649 707 649 643 650 c 1,9,-1
 579 650 l 1,10,-1
 566 650 l 1,11,12
 567 576 567 576 567 416 c 0,13,14
 567 379 567 379 570 347 c 1,15,16
 554 310 554 310 485 310 c 0,17,18
 380 310 380 310 380 365 c 1,19,20
 382 371 382 371 383.5 438 c 128,-1,21
 385 505 385 505 386 568 c 1,22,-1
 386 632 l 1,23,-1
 386 648 l 1,24,-1
 368 648 l 1,25,26
 114 647 114 647 101 642 c 1,27,28
 46 642 46 642 46 747 c 0,29,30
 46 818 46 818 82 832 c 1,31,32
 121 829 121 829 225 829 c 2,33,-1
 384 829 l 1,34,-1
 384 843 l 1,35,36
 383 1097 383 1097 378 1110 c 1,37,38
 378 1135 378 1135 404.5 1150.5 c 128,-1,39
 431 1166 431 1166 483 1166 c 0,40,41
 552 1166 552 1166 568 1129 c 1,42,43
 565 1090 565 1090 565 986 c 2,44,-1
 565 830 l 1,45,46
 649 831 649 831 722 831 c 0,0,1
EndSplineSet
EndChar

StartChar: comma
Encoding: 44 44 15
Width: 514
GlyphClass: 2
Flags: W
LayerCount: 2
Fore
SplineSet
157 -176 m 0,0,1
 157 -160 157 -160 201.5 -112.5 c 128,-1,2
 246 -65 246 -65 246 -57 c 0,3,4
 246 -43 246 -43 228 -33 c 128,-1,5
 210 -23 210 -23 184 -14 c 128,-1,6
 158 -5 158 -5 131.5 9 c 128,-1,7
 105 23 105 23 87 53.5 c 128,-1,8
 69 84 69 84 69 128 c 0,9,10
 69 204 69 204 121.5 252 c 128,-1,11
 174 300 174 300 257 300 c 0,12,13
 337 300 337 300 392.5 247.5 c 128,-1,14
 448 195 448 195 448 119 c 0,15,16
 448 44 448 44 414 -31.5 c 128,-1,17
 380 -107 380 -107 322.5 -157 c 128,-1,18
 265 -207 265 -207 205 -207 c 0,19,20
 157 -207 157 -207 157 -176 c 0,0,1
EndSplineSet
EndChar

StartChar: hyphen
Encoding: 45 45 16
Width: 913
GlyphClass: 2
Flags: W
LayerCount: 2
Fore
SplineSet
124 618 m 1,0,1
 56 618 56 618 56 716 c 0,2,3
 56 806 56 806 132 806 c 0,4,5
 190 806 190 806 329.5 805.5 c 128,-1,6
 469 805 469 805 553 805 c 2,7,-1
 789 805 l 2,8,9
 826 805 826 805 841.5 797.5 c 128,-1,10
 857 790 857 790 857 768 c 0,11,12
 857 622 857 622 790 622 c 2,13,-1
 361 622 l 2,14,15
 199 622 199 622 124 618 c 1,0,1
EndSplineSet
EndChar

StartChar: period
Encoding: 46 46 17
Width: 491
GlyphClass: 2
Flags: W
LayerCount: 2
Fore
SplineSet
70 137 m 0,0,1
 70 206 70 206 116 253 c 128,-1,2
 162 300 162 300 251 300 c 0,3,4
 338 300 338 300 382 252.5 c 128,-1,5
 426 205 426 205 426 137 c 0,6,7
 426 70 426 70 382 22 c 128,-1,8
 338 -26 338 -26 251 -26 c 0,9,10
 162 -26 162 -26 116 21.5 c 128,-1,11
 70 69 70 69 70 137 c 0,0,1
EndSplineSet
EndChar

StartChar: slash
Encoding: 47 47 18
Width: 1030
GlyphClass: 2
Flags: W
LayerCount: 2
Fore
SplineSet
49 107 m 0,0,1
 123 234 123 234 275 511.5 c 128,-1,2
 427 789 427 789 605 1118.5 c 128,-1,3
 783 1448 783 1448 814 1505 c 0,4,5
 851 1573 851 1573 923 1573 c 0,6,7
 955 1573 955 1573 978 1550.5 c 128,-1,8
 1001 1528 1001 1528 1001 1491 c 0,9,10
 1001 1459 1001 1459 981 1425 c 0,11,12
 806 1115 806 1115 214 26 c 0,13,14
 175 -47 175 -47 106 -47 c 0,15,16
 71 -47 71 -47 50.5 -22.5 c 128,-1,17
 30 2 30 2 30 43 c 0,18,19
 30 73 30 73 49 107 c 0,0,1
EndSplineSet
EndChar

StartChar: zero
Encoding: 48 48 19
Width: 1422
GlyphClass: 2
Flags: W
LayerCount: 2
Fore
SplineSet
711 1516 m 128,-1,1
 837 1516 837 1516 953.5 1467 c 128,-1,2
 1070 1418 1070 1418 1164 1325 c 128,-1,3
 1258 1232 1258 1232 1314.5 1082.5 c 128,-1,4
 1371 933 1371 933 1371 747 c 0,5,6
 1371 560 1371 560 1314.5 409.5 c 128,-1,7
 1258 259 1258 259 1164 165.5 c 128,-1,8
 1070 72 1070 72 953.5 22.5 c 128,-1,9
 837 -27 837 -27 711 -27 c 128,-1,10
 585 -27 585 -27 468.5 22.5 c 128,-1,11
 352 72 352 72 258 165.5 c 128,-1,12
 164 259 164 259 107.5 409.5 c 128,-1,13
 51 560 51 560 51 747 c 0,14,15
 51 933 51 933 107.5 1082.5 c 128,-1,16
 164 1232 164 1232 258 1325 c 128,-1,17
 352 1418 352 1418 468.5 1467 c 128,-1,0
 585 1516 585 1516 711 1516 c 128,-1,1
711 153 m 128,-1,19
 789 153 789 153 860.5 190.5 c 128,-1,20
 932 228 932 228 989.5 299 c 128,-1,21
 1047 370 1047 370 1081.5 485.5 c 128,-1,22
 1116 601 1116 601 1116 743 c 0,23,24
 1116 886 1116 886 1081.5 1001.5 c 128,-1,25
 1047 1117 1047 1117 989.5 1188.5 c 128,-1,26
 932 1260 932 1260 860.5 1298 c 128,-1,27
 789 1336 789 1336 711 1336 c 128,-1,28
 633 1336 633 1336 561.5 1298 c 128,-1,29
 490 1260 490 1260 432.5 1188.5 c 128,-1,30
 375 1117 375 1117 340.5 1001.5 c 128,-1,31
 306 886 306 886 306 743 c 0,32,33
 306 601 306 601 340.5 485.5 c 128,-1,34
 375 370 375 370 432.5 299 c 128,-1,35
 490 228 490 228 561.5 190.5 c 128,-1,18
 633 153 633 153 711 153 c 128,-1,19
EndSplineSet
EndChar

StartChar: one
Encoding: 49 49 20
Width: 658
GlyphClass: 2
Flags: W
LayerCount: 2
Fore
SplineSet
452 1475 m 2,0,-1
 452 265 l 2,1,2
 452 250 452 250 453.5 241.5 c 128,-1,3
 455 233 455 233 460.5 222 c 128,-1,4
 466 211 466 211 480 205.5 c 128,-1,5
 494 200 494 200 516 200 c 0,6,7
 562 200 562 200 595 188 c 128,-1,8
 628 176 628 176 628 152 c 0,9,10
 628 22 628 22 585 -8 c 1,11,12
 481 0 481 0 338 0 c 0,13,14
 201 0 201 0 99 -8 c 1,15,16
 72 8 72 8 59 54.5 c 128,-1,17
 46 101 46 101 46 152 c 0,18,19
 46 176 46 176 79 188 c 128,-1,20
 112 200 112 200 158 200 c 0,21,22
 197 200 197 200 209 216.5 c 128,-1,23
 221 233 221 233 221 263 c 2,24,-1
 221 1227 l 2,25,26
 221 1257 221 1257 209 1273.5 c 128,-1,27
 197 1290 197 1290 158 1290 c 0,28,29
 112 1290 112 1290 79 1302 c 128,-1,30
 46 1314 46 1314 46 1338 c 0,31,32
 46 1443 46 1443 69 1498 c 1,33,34
 168 1490 168 1490 259 1490 c 0,35,36
 344 1490 344 1490 427 1498 c 1,37,38
 452 1498 452 1498 452 1475 c 2,0,-1
EndSplineSet
EndChar

StartChar: two
Encoding: 50 50 21
Width: 1175
GlyphClass: 2
Flags: W
LayerCount: 2
Fore
SplineSet
115 1433 m 1,0,1
 379 1511 379 1511 558 1511 c 0,2,3
 666 1511 666 1511 758.5 1491.5 c 128,-1,4
 851 1472 851 1472 928.5 1430 c 128,-1,5
 1006 1388 1006 1388 1050.5 1314 c 128,-1,6
 1095 1240 1095 1240 1095 1140 c 0,7,8
 1095 1086 1095 1086 1078.5 1032 c 128,-1,9
 1062 978 1062 978 1019.5 911 c 128,-1,10
 977 844 977 844 922 776.5 c 128,-1,11
 867 709 867 709 772 611 c 128,-1,12
 677 513 677 513 574.5 414 c 128,-1,13
 472 315 472 315 316 170 c 1,14,-1
 672 170 l 2,15,16
 730 170 730 170 769.5 178 c 128,-1,17
 809 186 809 186 832 197.5 c 128,-1,18
 855 209 855 209 872 236 c 128,-1,19
 889 263 889 263 897 285 c 128,-1,20
 905 307 905 307 920.5 354.5 c 128,-1,21
 936 402 936 402 950 437 c 1,22,23
 966 450 966 450 998 450 c 0,24,25
 1026 450 1026 450 1063 441 c 128,-1,26
 1100 432 1100 432 1124 423 c 2,27,-1
 1147 414 l 1,28,29
 1147 368 1147 368 1102.5 218.5 c 128,-1,30
 1058 69 1058 69 1038 38 c 1,31,32
 984 0 984 0 619 0 c 2,33,-1
 127 0 l 1,34,35
 107 14 107 14 87 79.5 c 128,-1,36
 67 145 67 145 64 207 c 1,37,38
 121 273 121 273 232 380.5 c 128,-1,39
 343 488 343 488 442 584.5 c 128,-1,40
 541 681 541 681 638 784.5 c 128,-1,41
 735 888 735 888 793 981 c 128,-1,42
 851 1074 851 1074 851 1139 c 0,43,44
 851 1241 851 1241 778.5 1293 c 128,-1,45
 706 1345 706 1345 595 1345 c 0,46,47
 498 1345 498 1345 435 1328.5 c 128,-1,48
 372 1312 372 1312 327.5 1270 c 128,-1,49
 283 1228 283 1228 257 1164.5 c 128,-1,50
 231 1101 231 1101 209 997 c 1,51,52
 159 997 159 997 95.5 1011 c 128,-1,53
 32 1025 32 1025 32 1039 c 0,54,55
 32 1082 32 1082 63 1229.5 c 128,-1,56
 94 1377 94 1377 115 1433 c 1,0,1
EndSplineSet
EndChar

StartChar: three
Encoding: 51 51 22
Width: 1231
GlyphClass: 2
Flags: W
LayerCount: 2
Fore
SplineSet
600 145 m 0,0,1
 648 145 648 145 695.5 155.5 c 128,-1,2
 743 166 743 166 788 188.5 c 128,-1,3
 833 211 833 211 867.5 243 c 128,-1,4
 902 275 902 275 923 321.5 c 128,-1,5
 944 368 944 368 944 423 c 0,6,7
 944 487 944 487 927.5 536 c 128,-1,8
 911 585 911 585 877.5 616 c 128,-1,9
 844 647 844 647 805.5 667 c 128,-1,10
 767 687 767 687 711.5 696.5 c 128,-1,11
 656 706 656 706 608.5 709 c 128,-1,12
 561 712 561 712 497 712 c 0,13,14
 465 712 465 712 405.5 709.5 c 128,-1,15
 346 707 346 707 320 707 c 1,16,17
 307 714 307 714 307 807 c 0,18,19
 307 879 307 879 332 902 c 1,20,21
 355 900 355 900 506 900 c 0,22,23
 663 900 663 900 747.5 970 c 128,-1,24
 832 1040 832 1040 832 1135 c 0,25,26
 832 1221 832 1221 763 1284.5 c 128,-1,27
 694 1348 694 1348 577 1348 c 0,28,29
 526 1348 526 1348 481.5 1340 c 128,-1,30
 437 1332 437 1332 391 1311.5 c 128,-1,31
 345 1291 345 1291 310 1259 c 128,-1,32
 275 1227 275 1227 248 1174.5 c 128,-1,33
 221 1122 221 1122 209 1054 c 0,34,35
 209 1050 209 1050 190 1050 c 0,36,37
 154 1050 154 1050 94 1061 c 128,-1,38
 34 1072 34 1072 34 1080 c 0,39,40
 38 1118 38 1118 44 1156 c 128,-1,41
 50 1194 50 1194 54.5 1220.5 c 128,-1,42
 59 1247 59 1247 67.5 1282 c 128,-1,43
 76 1317 76 1317 80 1332.5 c 128,-1,44
 84 1348 84 1348 93 1382.5 c 128,-1,45
 102 1417 102 1417 104 1425 c 2,46,-1
 108 1437 l 1,47,48
 352 1494 352 1494 575 1494 c 0,49,50
 681 1494 681 1494 767.5 1473.5 c 128,-1,51
 854 1453 854 1453 910.5 1419 c 128,-1,52
 967 1385 967 1385 1005.5 1338.5 c 128,-1,53
 1044 1292 1044 1292 1060.5 1242 c 128,-1,54
 1077 1192 1077 1192 1077 1139 c 0,55,56
 1077 1034 1077 1034 1000 946 c 128,-1,57
 923 858 923 858 800 830 c 1,58,59
 977 806 977 806 1086.5 695 c 128,-1,60
 1196 584 1196 584 1196 435 c 0,61,62
 1196 284 1196 284 1120.5 178 c 128,-1,63
 1045 72 1045 72 919.5 22.5 c 128,-1,64
 794 -27 794 -27 631 -27 c 0,65,66
 395 -27 395 -27 134 30 c 1,67,-1
 130 42 l 2,68,69
 128 50 128 50 119 84.5 c 128,-1,70
 110 119 110 119 106 134.5 c 128,-1,71
 102 150 102 150 93.5 185 c 128,-1,72
 85 220 85 220 80.5 246.5 c 128,-1,73
 76 273 76 273 70 311 c 128,-1,74
 64 349 64 349 60 387 c 0,75,76
 60 395 60 395 120 406 c 128,-1,77
 180 417 180 417 216 417 c 0,78,79
 235 417 235 417 235 413 c 0,80,81
 255 323 255 323 312 261 c 128,-1,82
 369 199 369 199 442 172 c 128,-1,83
 515 145 515 145 600 145 c 0,0,1
EndSplineSet
EndChar

StartChar: four
Encoding: 52 52 23
Width: 1224
GlyphClass: 2
Flags: W
LayerCount: 2
Fore
SplineSet
667 639 m 1,0,1
 668 683 668 683 668 820 c 2,2,-1
 668 1055 l 2,3,4
 668 1253 668 1253 670 1303 c 1,5,6
 645 1266 645 1266 596.5 1189 c 128,-1,7
 548 1112 548 1112 524 1075 c 1,8,9
 457 986 457 986 277 688 c 0,10,11
 265 667 265 667 265 658 c 0,12,13
 265 644 265 644 322.5 640 c 128,-1,14
 380 636 380 636 509 636 c 0,15,16
 619 636 619 636 667 639 c 1,0,1
668 263 m 2,17,-1
 668 456 l 1,18,-1
 369 456 l 2,19,20
 173 456 173 456 127 479 c 1,21,22
 87 513 87 513 63 588 c 128,-1,23
 39 663 39 663 39 695 c 0,24,25
 39 716 39 716 51 742 c 1,26,27
 238 1048 238 1048 543 1445 c 0,28,29
 578 1489 578 1489 711 1489 c 0,30,31
 723 1489 723 1489 755 1488.5 c 128,-1,32
 787 1488 787 1488 810 1488 c 0,33,34
 902 1488 902 1488 902 1416 c 0,35,36
 902 1347 902 1347 900.5 1191.5 c 128,-1,37
 899 1036 899 1036 899 951 c 2,38,-1
 899 653 l 2,39,40
 899 643 899 643 908 643 c 0,41,42
 956 643 956 643 1024 643.5 c 128,-1,43
 1092 644 1092 644 1111 644 c 0,44,45
 1154 644 1154 644 1172 633 c 128,-1,46
 1190 622 1190 622 1195 598 c 1,47,48
 1194 534 1194 534 1160 483 c 1,49,50
 1150 465 1150 465 1113 460.5 c 128,-1,51
 1076 456 1076 456 978 456 c 2,52,-1
 899 456 l 1,53,-1
 899 265 l 2,54,55
 899 250 899 250 900.5 241.5 c 128,-1,56
 902 233 902 233 907.5 222 c 128,-1,57
 913 211 913 211 927 205.5 c 128,-1,58
 941 200 941 200 963 200 c 0,59,60
 1009 200 1009 200 1042 188 c 128,-1,61
 1075 176 1075 176 1075 152 c 0,62,63
 1075 22 1075 22 1032 -8 c 1,64,65
 928 0 928 0 785 0 c 0,66,67
 648 0 648 0 546 -8 c 1,68,69
 519 8 519 8 506 54.5 c 128,-1,70
 493 101 493 101 493 152 c 0,71,72
 493 176 493 176 526 188 c 128,-1,73
 559 200 559 200 605 200 c 0,74,75
 644 200 644 200 656 216.5 c 128,-1,76
 668 233 668 233 668 263 c 2,17,-1
EndSplineSet
EndChar

StartChar: five
Encoding: 53 53 24
Width: 1200
GlyphClass: 2
Flags: W
LayerCount: 2
Fore
SplineSet
316 852 m 1,0,1
 477 921 477 921 682 921 c 0,2,3
 792 921 792 921 878.5 890.5 c 128,-1,4
 965 860 965 860 1016.5 812.5 c 128,-1,5
 1068 765 1068 765 1101.5 701 c 128,-1,6
 1135 637 1135 637 1147.5 577 c 128,-1,7
 1160 517 1160 517 1160 455 c 0,8,9
 1160 346 1160 346 1129 262 c 128,-1,10
 1098 178 1098 178 1045.5 124 c 128,-1,11
 993 70 993 70 917 35.5 c 128,-1,12
 841 1 841 1 758.5 -13 c 128,-1,13
 676 -27 676 -27 578 -27 c 0,14,15
 372 -27 372 -27 118 50 c 1,16,-1
 114 62 l 2,17,18
 112 70 112 70 103 104.5 c 128,-1,19
 94 139 94 139 90 154.5 c 128,-1,20
 86 170 86 170 77.5 205 c 128,-1,21
 69 240 69 240 64.5 266.5 c 128,-1,22
 60 293 60 293 54 331 c 128,-1,23
 48 369 48 369 44 407 c 0,24,25
 44 415 44 415 104 426 c 128,-1,26
 164 437 164 437 200 437 c 0,27,28
 219 437 219 437 219 433 c 1,29,30
 253 343 253 343 322.5 277.5 c 128,-1,31
 392 212 392 212 475 180.5 c 128,-1,32
 558 149 558 149 645 149 c 0,33,34
 713 149 713 149 769.5 175.5 c 128,-1,35
 826 202 826 202 861.5 246 c 128,-1,36
 897 290 897 290 916.5 344 c 128,-1,37
 936 398 936 398 936 455 c 0,38,39
 936 531 936 531 905 594.5 c 128,-1,40
 874 658 874 658 805 700.5 c 128,-1,41
 736 743 736 743 641 743 c 0,42,43
 572 743 572 743 433.5 708.5 c 128,-1,44
 295 674 295 674 222 674 c 0,45,46
 160 674 160 674 98 687 c 0,47,48
 85 690 85 690 85 809 c 2,49,-1
 85 1338 l 2,50,51
 85 1388 85 1388 98 1435 c 128,-1,52
 111 1482 111 1482 138 1498 c 1,53,54
 308 1490 308 1490 511 1490 c 0,55,56
 607 1490 607 1490 713 1493.5 c 128,-1,57
 819 1497 819 1497 907 1501 c 128,-1,58
 995 1505 995 1505 1019 1506 c 1,59,60
 1029 1494 1029 1494 1053 1348 c 128,-1,61
 1077 1202 1077 1202 1077 1173 c 0,62,63
 1077 1170 1077 1170 1072.5 1164 c 128,-1,64
 1068 1158 1068 1158 1056.5 1150.5 c 128,-1,65
 1045 1143 1045 1143 1028.5 1137 c 128,-1,66
 1012 1131 1012 1131 984.5 1126.5 c 128,-1,67
 957 1122 957 1122 924 1122 c 1,68,69
 919 1135 919 1135 910 1158 c 128,-1,70
 901 1181 901 1181 896 1193 c 128,-1,71
 891 1205 891 1205 881 1224 c 128,-1,72
 871 1243 871 1243 861 1253.5 c 128,-1,73
 851 1264 851 1264 833.5 1276.5 c 128,-1,74
 816 1289 816 1289 795.5 1295.5 c 128,-1,75
 775 1302 775 1302 745.5 1306.5 c 128,-1,76
 716 1311 716 1311 680 1311 c 0,77,78
 604 1311 604 1311 525 1310.5 c 128,-1,79
 446 1310 446 1310 330 1310 c 0,80,81
 316 1310 316 1310 316 1286 c 2,82,-1
 316 852 l 1,0,1
EndSplineSet
EndChar

StartChar: six
Encoding: 54 54 25
Width: 1208
GlyphClass: 2
Flags: W
LayerCount: 2
Fore
SplineSet
928 1072 m 0,0,1
 892 1366 892 1366 670 1366 c 0,2,3
 604 1366 604 1366 539 1327 c 128,-1,4
 474 1288 474 1288 421 1218 c 128,-1,5
 368 1148 368 1148 335.5 1039 c 128,-1,6
 303 930 303 930 303 802 c 1,7,8
 484 893 484 893 679 893 c 0,9,10
 797 893 797 893 892.5 854 c 128,-1,11
 988 815 988 815 1047.5 749.5 c 128,-1,12
 1107 684 1107 684 1139 602 c 128,-1,13
 1171 520 1171 520 1171 431 c 0,14,15
 1171 344 1171 344 1135 263.5 c 128,-1,16
 1099 183 1099 183 1031.5 117.5 c 128,-1,17
 964 52 964 52 853 12.5 c 128,-1,18
 742 -27 742 -27 605 -27 c 0,19,20
 337 -27 337 -27 196.5 160.5 c 128,-1,21
 56 348 56 348 56 675 c 0,22,23
 56 888 56 888 104 1050 c 128,-1,24
 152 1212 152 1212 240.5 1312 c 128,-1,25
 329 1412 329 1412 447 1462 c 128,-1,26
 565 1512 565 1512 712 1512 c 0,27,28
 871 1512 871 1512 1029 1455 c 1,29,-1
 1033 1443 l 2,30,31
 1035 1435 1035 1435 1044 1400.5 c 128,-1,32
 1053 1366 1053 1366 1057 1350.5 c 128,-1,33
 1061 1335 1061 1335 1069.5 1300 c 128,-1,34
 1078 1265 1078 1265 1082.5 1238.5 c 128,-1,35
 1087 1212 1087 1212 1093 1174 c 128,-1,36
 1099 1136 1099 1136 1103 1098 c 0,37,38
 1103 1090 1103 1090 1043 1079 c 128,-1,39
 983 1068 983 1068 947 1068 c 0,40,41
 928 1068 928 1068 928 1072 c 0,0,1
947 409 m 0,42,43
 947 494 947 494 921.5 558.5 c 128,-1,44
 896 623 896 623 852.5 659.5 c 128,-1,45
 809 696 809 696 757.5 714 c 128,-1,46
 706 732 706 732 647 732 c 0,47,48
 526 732 526 732 437.5 704 c 128,-1,49
 349 676 349 676 303 631 c 1,50,51
 303 488 303 488 330 384 c 128,-1,52
 357 280 357 280 403.5 224 c 128,-1,53
 450 168 450 168 502.5 143 c 128,-1,54
 555 118 555 118 617 118 c 0,55,56
 691 118 691 118 749.5 136.5 c 128,-1,57
 808 155 808 155 844 184.5 c 128,-1,58
 880 214 880 214 904 253.5 c 128,-1,59
 928 293 928 293 937.5 331 c 128,-1,60
 947 369 947 369 947 409 c 0,42,43
EndSplineSet
EndChar

StartChar: seven
Encoding: 55 55 26
Width: 1134
GlyphClass: 2
Flags: W
LayerCount: 2
Fore
SplineSet
689 149 m 1,0,-1
 689 83 l 2,1,2
 689 34 689 34 632.5 3.5 c 128,-1,3
 576 -27 576 -27 503 -27 c 0,4,5
 419 -27 419 -27 370 25 c 128,-1,6
 321 77 321 77 321 182 c 0,7,8
 321 328 321 328 428.5 562.5 c 128,-1,9
 536 797 536 797 840 1311 c 1,10,-1
 286 1311 l 1,11,12
 269 1267 269 1267 250 1196.5 c 128,-1,13
 231 1126 231 1126 218 1089.5 c 128,-1,14
 205 1053 205 1053 190 1053 c 0,15,16
 132 1053 132 1053 81 1068.5 c 128,-1,17
 30 1084 30 1084 30 1116 c 0,18,19
 30 1164 30 1164 60.5 1293.5 c 128,-1,20
 91 1423 91 1423 126 1516 c 1,21,22
 350 1488 350 1488 591 1488 c 0,23,24
 833 1488 833 1488 1068 1516 c 0,25,26
 1075 1516 1075 1516 1084 1495.5 c 128,-1,27
 1093 1475 1093 1475 1093 1454 c 2,28,-1
 1093 1398 l 2,29,30
 1093 1331 1093 1331 1070 1290 c 0,31,32
 940 1059 940 1059 847 870 c 128,-1,33
 754 681 754 681 710 574.5 c 128,-1,34
 666 468 666 468 642 381 c 128,-1,35
 618 294 618 294 615 265.5 c 128,-1,36
 612 237 612 237 612 205 c 0,37,38
 612 157 612 157 689 149 c 1,0,-1
EndSplineSet
EndChar

StartChar: eight
Encoding: 56 56 27
Width: 1368
GlyphClass: 2
Flags: W
LayerCount: 2
Fore
SplineSet
452 807 m 1,0,1
 281 861 281 861 187 960.5 c 128,-1,2
 93 1060 93 1060 93 1170 c 0,3,4
 93 1237 93 1237 128.5 1298 c 128,-1,5
 164 1359 164 1359 232.5 1407.5 c 128,-1,6
 301 1456 301 1456 412 1484.5 c 128,-1,7
 523 1513 523 1513 662 1513 c 0,8,9
 732 1513 732 1513 796.5 1507.5 c 128,-1,10
 861 1502 861 1502 934.5 1489 c 128,-1,11
 1008 1476 1008 1476 1067.5 1450.5 c 128,-1,12
 1127 1425 1127 1425 1176.5 1388.5 c 128,-1,13
 1226 1352 1226 1352 1253.5 1296 c 128,-1,14
 1281 1240 1281 1240 1281 1170 c 0,15,16
 1281 1055 1281 1055 1179.5 957 c 128,-1,17
 1078 859 1078 859 926 806 c 1,18,19
 1131 711 1131 711 1233 598 c 128,-1,20
 1335 485 1335 485 1335 342 c 0,21,22
 1335 265 1335 265 1298.5 200 c 128,-1,23
 1262 135 1262 135 1188 83.5 c 128,-1,24
 1114 32 1114 32 990.5 2.5 c 128,-1,25
 867 -27 867 -27 705 -27 c 0,26,27
 646 -27 646 -27 589.5 -23.5 c 128,-1,28
 533 -20 533 -20 464.5 -9.5 c 128,-1,29
 396 1 396 1 338 18 c 128,-1,30
 280 35 280 35 223 65 c 128,-1,31
 166 95 166 95 126.5 134 c 128,-1,32
 87 173 87 173 62.5 230.5 c 128,-1,33
 38 288 38 288 38 358 c 0,34,35
 38 433 38 433 75.5 505 c 128,-1,36
 113 577 113 577 175 633 c 128,-1,37
 237 689 237 689 306.5 732.5 c 128,-1,38
 376 776 376 776 452 807 c 1,0,1
687 719 m 1,39,40
 598 689 598 689 513 638 c 128,-1,41
 428 587 428 587 366.5 515 c 128,-1,42
 305 443 305 443 305 374 c 0,43,44
 305 280 305 280 403.5 222 c 128,-1,45
 502 164 502 164 718 164 c 0,46,47
 897 164 897 164 983 223 c 128,-1,48
 1069 282 1069 282 1069 376 c 0,49,50
 1069 446 1069 446 1008.5 516.5 c 128,-1,51
 948 587 948 587 864.5 636.5 c 128,-1,52
 781 686 781 686 687 719 c 1,39,40
686 1367 m 0,53,54
 508 1367 508 1367 413 1310 c 128,-1,55
 318 1253 318 1253 318 1169 c 0,56,57
 318 1128 318 1128 345.5 1089.5 c 128,-1,58
 373 1051 373 1051 426.5 1017 c 128,-1,59
 480 983 480 983 544.5 953.5 c 128,-1,60
 609 924 609 924 697 893 c 1,61,62
 704 896 704 896 717 901 c 128,-1,63
 730 906 730 906 767 922 c 128,-1,64
 804 938 804 938 838 955 c 128,-1,65
 872 972 872 972 913 997.5 c 128,-1,66
 954 1023 954 1023 983.5 1048 c 128,-1,67
 1013 1073 1013 1073 1033.5 1103.5 c 128,-1,68
 1054 1134 1054 1134 1054 1163 c 0,69,70
 1054 1255 1054 1255 952 1311 c 128,-1,71
 850 1367 850 1367 686 1367 c 0,53,54
EndSplineSet
EndChar

StartChar: nine
Encoding: 57 57 28
Width: 1217
GlyphClass: 2
Flags: W
LayerCount: 2
Fore
SplineSet
274 433 m 0,0,1
 298 351 298 351 328.5 293 c 128,-1,2
 359 235 359 235 388.5 203.5 c 128,-1,3
 418 172 418 172 456 154.5 c 128,-1,4
 494 137 494 137 523.5 132.5 c 128,-1,5
 553 128 553 128 594 128 c 0,6,7
 725 128 725 128 820 267 c 128,-1,8
 915 406 915 406 915 628 c 2,9,-1
 915 673 l 1,10,11
 735 602 735 602 539 602 c 0,12,13
 417 602 417 602 319 639.5 c 128,-1,14
 221 677 221 677 160 740 c 128,-1,15
 99 803 99 803 67 881.5 c 128,-1,16
 35 960 35 960 35 1045 c 0,17,18
 35 1134 35 1134 69.5 1216.5 c 128,-1,19
 104 1299 104 1299 168 1365.5 c 128,-1,20
 232 1432 232 1432 335.5 1472 c 128,-1,21
 439 1512 439 1512 566 1512 c 0,22,23
 765 1512 765 1512 900.5 1415.5 c 128,-1,24
 1036 1319 1036 1319 1099 1148.5 c 128,-1,25
 1162 978 1162 978 1162 740 c 0,26,27
 1162 543 1162 543 1116.5 394.5 c 128,-1,28
 1071 246 1071 246 986.5 154.5 c 128,-1,29
 902 63 902 63 787.5 18 c 128,-1,30
 673 -27 673 -27 529 -27 c 0,31,32
 375 -27 375 -27 189 30 c 1,33,-1
 176 68 l 1,34,35
 114 244 114 244 95 397 c 1,36,37
 95 407 95 407 156.5 422 c 128,-1,38
 218 437 218 437 255 437 c 0,39,40
 273 437 273 437 274 433 c 0,0,1
548 1361 m 0,41,42
 481 1361 481 1361 427 1336 c 128,-1,43
 373 1311 373 1311 340 1268.5 c 128,-1,44
 307 1226 307 1226 289.5 1174 c 128,-1,45
 272 1122 272 1122 272 1064 c 0,46,47
 272 943 272 943 351.5 853 c 128,-1,48
 431 763 431 763 571 763 c 0,49,50
 692 763 692 763 780 785.5 c 128,-1,51
 868 808 868 808 915 844 c 1,52,53
 915 960 915 960 893.5 1051 c 128,-1,54
 872 1142 872 1142 837 1199 c 128,-1,55
 802 1256 802 1256 753 1293.5 c 128,-1,56
 704 1331 704 1331 654 1346 c 128,-1,57
 604 1361 604 1361 548 1361 c 0,41,42
EndSplineSet
EndChar

StartChar: colon
Encoding: 58 58 29
Width: 466
GlyphClass: 2
Flags: W
LayerCount: 2
Fore
SplineSet
54 201 m 0,0,1
 54 270 54 270 100 317 c 128,-1,2
 146 364 146 364 235 364 c 0,3,4
 322 364 322 364 366 316.5 c 128,-1,5
 410 269 410 269 410 201 c 0,6,7
 410 134 410 134 366 86 c 128,-1,8
 322 38 322 38 235 38 c 0,9,10
 146 38 146 38 100 85.5 c 128,-1,11
 54 133 54 133 54 201 c 0,0,1
54 932 m 0,12,13
 54 1001 54 1001 100 1048 c 128,-1,14
 146 1095 146 1095 235 1095 c 0,15,16
 322 1095 322 1095 366 1047.5 c 128,-1,17
 410 1000 410 1000 410 932 c 0,18,19
 410 865 410 865 366 817 c 128,-1,20
 322 769 322 769 235 769 c 0,21,22
 146 769 146 769 100 816.5 c 128,-1,23
 54 864 54 864 54 932 c 0,12,13
EndSplineSet
EndChar

StartChar: semicolon
Encoding: 59 59 30
Width: 472
GlyphClass: 2
Flags: W
LayerCount: 2
Fore
SplineSet
50 932 m 0,0,1
 50 1001 50 1001 96 1048 c 128,-1,2
 142 1095 142 1095 231 1095 c 0,3,4
 318 1095 318 1095 362 1047.5 c 128,-1,5
 406 1000 406 1000 406 932 c 0,6,7
 406 865 406 865 362 817 c 128,-1,8
 318 769 318 769 231 769 c 0,9,10
 142 769 142 769 96 816.5 c 128,-1,11
 50 864 50 864 50 932 c 0,0,1
138 5 m 0,12,13
 138 21 138 21 182.5 68.5 c 128,-1,14
 227 116 227 116 227 124 c 0,15,16
 227 138 227 138 209 148 c 128,-1,17
 191 158 191 158 165 167 c 128,-1,18
 139 176 139 176 112.5 190 c 128,-1,19
 86 204 86 204 68 234.5 c 128,-1,20
 50 265 50 265 50 309 c 0,21,22
 50 385 50 385 102.5 433 c 128,-1,23
 155 481 155 481 238 481 c 0,24,25
 318 481 318 481 373.5 428.5 c 128,-1,26
 429 376 429 376 429 300 c 0,27,28
 429 225 429 225 395 149.5 c 128,-1,29
 361 74 361 74 303.5 24 c 128,-1,30
 246 -26 246 -26 186 -26 c 0,31,32
 138 -26 138 -26 138 5 c 0,12,13
EndSplineSet
EndChar

StartChar: less
Encoding: 60 60 31
Width: 765
GlyphClass: 2
Flags: W
LayerCount: 2
Fore
SplineSet
37 534 m 0,0,1
 37 574 37 574 171.5 705.5 c 128,-1,2
 306 837 306 837 440 949 c 2,3,-1
 575 1061 l 2,4,5
 586 1069 586 1069 596 1069 c 0,6,7
 618 1069 618 1069 667.5 1009 c 128,-1,8
 717 949 717 949 717 915 c 0,9,10
 717 899 717 899 704 886 c 1,11,-1
 306 534 l 1,12,-1
 714 182 l 1,13,14
 727 169 727 169 727 153 c 0,15,16
 727 119 727 119 673.5 59 c 128,-1,17
 620 -1 620 -1 596 -1 c 0,18,19
 586 -1 586 -1 575 7 c 0,20,21
 564 16 564 16 544.5 32 c 128,-1,22
 525 48 525 48 469 95.5 c 128,-1,23
 413 143 413 143 362.5 187 c 128,-1,24
 312 231 312 231 249.5 288.5 c 128,-1,25
 187 346 187 346 142.5 391.5 c 128,-1,26
 98 437 98 437 67.5 476.5 c 128,-1,27
 37 516 37 516 37 534 c 0,0,1
EndSplineSet
EndChar

StartChar: equal
Encoding: 61 61 32
Width: 1130
GlyphClass: 2
Flags: W
LayerCount: 2
Fore
SplineSet
255 892 m 1,0,1
 307 893 307 893 880 893 c 0,2,3
 984 893 984 893 1023 896 c 1,4,5
 1059 882 1059 882 1059 811 c 0,6,7
 1059 716 1059 716 1004 716 c 1,8,9
 999 718 999 718 942 719.5 c 128,-1,10
 885 721 885 721 831 722 c 1,11,-1
 777 722 l 1,12,-1
 276 722 l 1,13,14
 138 718 138 718 131 714 c 1,15,16
 76 714 76 714 76 809 c 0,17,18
 76 880 76 880 112 894 c 1,19,20
 138 892 138 892 255 892 c 1,0,1
255 559 m 1,21,22
 305 560 305 560 878 560 c 0,23,24
 969 560 969 560 1021 564 c 1,25,26
 1057 550 1057 550 1057 479 c 0,27,28
 1057 384 1057 384 1002 384 c 1,29,30
 997 386 997 386 940.5 387.5 c 128,-1,31
 884 389 884 389 830 390 c 1,32,-1
 775 390 l 1,33,-1
 276 390 l 1,34,35
 138 386 138 386 131 382 c 1,36,37
 76 382 76 382 76 477 c 0,38,39
 76 548 76 548 112 562 c 1,40,41
 151 559 151 559 255 559 c 1,21,22
EndSplineSet
EndChar

StartChar: greater
Encoding: 62 62 33
Width: 760
GlyphClass: 2
Flags: W
LayerCount: 2
Fore
SplineSet
727 534 m 0,0,1
 727 494 727 494 592.5 362.5 c 128,-1,2
 458 231 458 231 324 119 c 2,3,-1
 189 7 l 2,4,5
 178 -1 178 -1 168 -1 c 0,6,7
 144 -1 144 -1 90.5 59 c 128,-1,8
 37 119 37 119 37 153 c 0,9,10
 37 169 37 169 50 182 c 1,11,-1
 458 534 l 1,12,-1
 60 886 l 1,13,14
 47 899 47 899 47 915 c 0,15,16
 47 949 47 949 96.5 1009 c 128,-1,17
 146 1069 146 1069 168 1069 c 0,18,19
 178 1069 178 1069 189 1061 c 0,20,21
 200 1052 200 1052 219.5 1036 c 128,-1,22
 239 1020 239 1020 295 972.5 c 128,-1,23
 351 925 351 925 401.5 881 c 128,-1,24
 452 837 452 837 514.5 779.5 c 128,-1,25
 577 722 577 722 621.5 676.5 c 128,-1,26
 666 631 666 631 696.5 591.5 c 128,-1,27
 727 552 727 552 727 534 c 0,0,1
EndSplineSet
EndChar

StartChar: question
Encoding: 63 63 34
Width: 912
GlyphClass: 2
Flags: W
LayerCount: 2
Fore
SplineSet
221 137 m 0,0,1
 221 206 221 206 267 253 c 128,-1,2
 313 300 313 300 402 300 c 0,3,4
 489 300 489 300 533 252.5 c 128,-1,5
 577 205 577 205 577 137 c 0,6,7
 577 70 577 70 533 22 c 128,-1,8
 489 -26 489 -26 402 -26 c 0,9,10
 313 -26 313 -26 267 21.5 c 128,-1,11
 221 69 221 69 221 137 c 0,0,1
450 1349 m 0,12,13
 392 1349 392 1349 343 1338.5 c 128,-1,14
 294 1328 294 1328 274 1318 c 2,15,-1
 253 1308 l 1,16,-1
 253 1155 l 2,17,18
 253 1108 253 1108 243 1096.5 c 128,-1,19
 233 1085 233 1085 192 1085 c 0,20,21
 111 1085 111 1085 71.5 1135 c 128,-1,22
 32 1185 32 1185 32 1246 c 0,23,24
 32 1362 32 1362 134.5 1437 c 128,-1,25
 237 1512 237 1512 455 1512 c 0,26,27
 643 1512 643 1512 757.5 1426.5 c 128,-1,28
 872 1341 872 1341 872 1188 c 0,29,30
 872 1113 872 1113 849.5 1050.5 c 128,-1,31
 827 988 827 988 791 946 c 128,-1,32
 755 904 755 904 711.5 869 c 128,-1,33
 668 834 668 834 624.5 805.5 c 128,-1,34
 581 777 581 777 545 749.5 c 128,-1,35
 509 722 509 722 486.5 688.5 c 128,-1,36
 464 655 464 655 464 617 c 0,37,38
 464 597 464 597 465 567.5 c 128,-1,39
 466 538 466 538 466 526 c 0,40,41
 466 465 466 465 408 465 c 0,42,43
 388 465 388 465 356.5 466 c 128,-1,44
 325 467 325 467 324 467 c 0,45,46
 293 467 293 467 272 516.5 c 128,-1,47
 251 566 251 566 251 636 c 0,48,49
 251 658 251 658 253.5 676.5 c 128,-1,50
 256 695 256 695 258 708.5 c 128,-1,51
 260 722 260 722 270 737.5 c 128,-1,52
 280 753 280 753 284.5 761 c 128,-1,53
 289 769 289 769 306.5 785.5 c 128,-1,54
 324 802 324 802 331.5 809 c 128,-1,55
 339 816 339 816 365.5 838.5 c 128,-1,56
 392 861 392 861 404 871 c 0,57,58
 420 884 420 884 462.5 916.5 c 128,-1,59
 505 949 505 949 531 973 c 128,-1,60
 557 997 557 997 589 1033.5 c 128,-1,61
 621 1070 621 1070 637 1112.5 c 128,-1,62
 653 1155 653 1155 653 1204 c 0,63,64
 653 1267 653 1267 600.5 1308 c 128,-1,65
 548 1349 548 1349 450 1349 c 0,12,13
EndSplineSet
EndChar

StartChar: at
Encoding: 64 64 35
Width: 1676
GlyphClass: 2
Flags: W
LayerCount: 2
Fore
SplineSet
1279 171 m 0,0,1
 1217 171 1217 171 1176.5 184.5 c 128,-1,2
 1136 198 1136 198 1114.5 218 c 128,-1,3
 1093 238 1093 238 1069 276 c 1,4,5
 1010 207 1010 207 921.5 168.5 c 128,-1,6
 833 130 833 130 742 130 c 0,7,8
 632 130 632 130 560 188.5 c 128,-1,9
 488 247 488 247 488 359 c 0,10,11
 488 483 488 483 617 545 c 0,12,13
 710 589 710 589 948 626 c 0,14,15
 975 630 975 630 1037 639 c 1,16,17
 1037 770 1037 770 1003.5 820 c 128,-1,18
 970 870 970 870 876 870 c 0,19,20
 806 870 806 870 719 838.5 c 128,-1,21
 632 807 632 807 580 753 c 1,22,23
 517 806 517 806 517 856 c 0,24,25
 517 899 517 899 578 932.5 c 128,-1,26
 639 966 639 966 722 982 c 128,-1,27
 805 998 805 998 888 998 c 0,28,29
 1046 998 1046 998 1129.5 910.5 c 128,-1,30
 1213 823 1213 823 1213 614 c 2,31,-1
 1213 386 l 2,32,33
 1213 354 1213 354 1219.5 338.5 c 128,-1,34
 1226 323 1226 323 1234 319.5 c 128,-1,35
 1242 316 1242 316 1260 314 c 1,36,37
 1322 314 1322 314 1364 340 c 128,-1,38
 1406 366 1406 366 1427.5 416.5 c 128,-1,39
 1449 467 1449 467 1457.5 526 c 128,-1,40
 1466 585 1466 585 1466 666 c 0,41,42
 1466 791 1466 791 1417.5 892.5 c 128,-1,43
 1369 994 1369 994 1288 1058 c 128,-1,44
 1207 1122 1207 1122 1105 1156.5 c 128,-1,45
 1003 1191 1003 1191 892 1191 c 0,46,47
 686 1191 686 1191 535.5 1107 c 128,-1,48
 385 1023 385 1023 309.5 878 c 128,-1,49
 234 733 234 733 234 544 c 0,50,51
 234 426 234 426 271 322.5 c 128,-1,52
 308 219 308 219 382.5 134 c 128,-1,53
 457 49 457 49 584 -1 c 128,-1,54
 711 -51 711 -51 877 -51 c 0,55,56
 1137 -51 1137 -51 1372 61 c 1,57,58
 1404 32 1404 32 1404 -25 c 0,59,60
 1404 -53 1404 -53 1362.5 -85 c 128,-1,61
 1321 -117 1321 -117 1254 -143.5 c 128,-1,62
 1187 -170 1187 -170 1091 -188 c 128,-1,63
 995 -206 995 -206 897 -206 c 0,64,65
 703 -206 703 -206 543 -148 c 128,-1,66
 383 -90 383 -90 276.5 11.5 c 128,-1,67
 170 113 170 113 111.5 250.5 c 128,-1,68
 53 388 53 388 53 547 c 0,69,70
 53 667 53 667 86 781 c 128,-1,71
 119 895 119 895 188.5 996 c 128,-1,72
 258 1097 258 1097 355.5 1173.5 c 128,-1,73
 453 1250 453 1250 590.5 1294.5 c 128,-1,74
 728 1339 728 1339 889 1339 c 0,75,76
 1092 1339 1092 1339 1259.5 1258 c 128,-1,77
 1427 1177 1427 1177 1527.5 1024 c 128,-1,78
 1628 871 1628 871 1628 674 c 0,79,80
 1628 563 1628 563 1598.5 467.5 c 128,-1,81
 1569 372 1569 372 1520 308 c 128,-1,82
 1471 244 1471 244 1408.5 207.5 c 128,-1,83
 1346 171 1346 171 1279 171 c 0,0,1
778 268 m 0,84,85
 851 268 851 268 936 307 c 128,-1,86
 1021 346 1021 346 1038 378 c 1,87,-1
 1038 515 l 1,88,89
 822 477 822 477 746 446.5 c 128,-1,90
 670 416 670 416 670 361 c 0,91,92
 670 268 670 268 778 268 c 0,84,85
EndSplineSet
EndChar

StartChar: A
Encoding: 65 65 36
Width: 1536
GlyphClass: 2
Flags: W
LayerCount: 2
Fore
SplineSet
744 1479 m 0,0,1
 869 1479 869 1479 914 1487 c 1,2,-1
 914 1483 l 1,3,4
 920 1441 920 1441 950.5 1340 c 128,-1,5
 981 1239 981 1239 991 1216 c 1,6,-1
 1361 252 l 2,7,8
 1373 222 1373 222 1391 205.5 c 128,-1,9
 1409 189 1409 189 1448 189 c 0,10,11
 1483 189 1483 189 1512 177 c 128,-1,12
 1541 165 1541 165 1548 141 c 1,13,14
 1544 77 1544 77 1544 38 c 0,15,16
 1544 0 1544 0 1527 -11 c 1,17,18
 1377 0 1377 0 1275 0 c 0,19,20
 1071 0 1071 0 996 -11 c 1,21,22
 979 47 979 47 979 149 c 0,23,24
 979 173 979 173 1014.5 180 c 128,-1,25
 1050 187 1050 187 1085.5 192 c 128,-1,26
 1121 197 1121 197 1121 217 c 0,27,28
 1121 231 1121 231 1112 254 c 2,29,-1
 1017 523 l 1,30,-1
 492 523 l 1,31,-1
 401 254 l 2,32,33
 392 227 392 227 392 217 c 0,34,35
 392 197 392 197 428 192 c 128,-1,36
 464 187 464 187 500 180 c 128,-1,37
 536 173 536 173 536 149 c 1,38,39
 524 21 524 21 509 -11 c 1,40,41
 351 0 351 0 246 0 c 0,42,43
 185 0 185 0 6 -11 c 1,44,45
 -11 0 -11 0 -11 38 c 0,46,47
 -11 77 -11 77 -5 141 c 1,48,49
 2 165 2 165 30 177 c 128,-1,50
 58 189 58 189 93 189 c 0,51,52
 132 189 132 189 150 205.5 c 128,-1,53
 168 222 168 222 180 252 c 2,54,-1
 550 1236 l 2,55,56
 558 1258 558 1258 558 1269 c 0,57,58
 558 1289 558 1289 537 1295.5 c 128,-1,59
 516 1302 516 1302 491.5 1300 c 128,-1,60
 467 1298 467 1298 446 1306.5 c 128,-1,61
 425 1315 425 1315 425 1337 c 0,62,63
 425 1339 425 1339 427 1347 c 0,64,65
 441 1459 441 1459 462 1487 c 1,66,67
 585 1479 585 1479 744 1479 c 0,0,1
757 1256 m 1,68,69
 652 1000 652 1000 544 675 c 1,70,-1
 964 675 l 1,71,72
 916 820 916 820 864 965 c 128,-1,73
 812 1110 812 1110 784 1183 c 2,74,-1
 757 1256 l 1,68,69
EndSplineSet
EndChar

StartChar: B
Encoding: 66 66 37
Width: 1479
GlyphClass: 2
Flags: W
LayerCount: 2
Fore
SplineSet
122 -11 m 1,0,1
 95 5 95 5 82 53 c 128,-1,2
 69 101 69 101 69 152 c 0,3,4
 69 176 69 176 102 188 c 128,-1,5
 135 200 135 200 181 200 c 0,6,7
 220 200 220 200 232 216.5 c 128,-1,8
 244 233 244 233 244 263 c 2,9,-1
 244 1229 l 2,10,11
 244 1259 244 1259 232 1275.5 c 128,-1,12
 220 1292 220 1292 181 1292 c 0,13,14
 69 1292 69 1292 69 1344 c 0,15,16
 69 1393 69 1393 82 1440.5 c 128,-1,17
 95 1488 95 1488 122 1503 c 1,18,19
 254 1490 254 1490 490 1490 c 0,20,21
 577 1490 577 1490 708 1498 c 128,-1,22
 839 1506 839 1506 881 1506 c 0,23,24
 989 1506 989 1506 1077 1470.5 c 128,-1,25
 1165 1435 1165 1435 1219 1376 c 128,-1,26
 1273 1317 1273 1317 1302 1243.5 c 128,-1,27
 1331 1170 1331 1170 1331 1091 c 0,28,29
 1331 1010 1331 1010 1280.5 932 c 128,-1,30
 1230 854 1230 854 1139 818 c 1,31,32
 1239 787 1239 787 1308 722.5 c 128,-1,33
 1377 658 1377 658 1406 584.5 c 128,-1,34
 1435 511 1435 511 1435 431 c 0,35,36
 1435 347 1435 347 1399.5 269 c 128,-1,37
 1364 191 1364 191 1298 128 c 128,-1,38
 1232 65 1232 65 1126.5 27 c 128,-1,39
 1021 -11 1021 -11 892 -11 c 0,40,41
 868 -11 868 -11 709 -5.5 c 128,-1,42
 550 0 550 0 434 0 c 0,43,44
 313 0 313 0 122 -11 c 1,0,1
861 714 m 2,45,-1
 475 714 l 1,46,-1
 475 215 l 2,47,48
 475 176 475 176 489 176 c 2,49,-1
 911 176 l 2,50,51
 1052 176 1052 176 1133 254 c 128,-1,52
 1214 332 1214 332 1214 438 c 0,53,54
 1214 550 1214 550 1122 632 c 128,-1,55
 1030 714 1030 714 861 714 c 2,45,-1
475 873 m 1,56,-1
 861 873 l 2,57,58
 976 873 976 873 1043 936 c 128,-1,59
 1110 999 1110 999 1110 1084 c 0,60,61
 1110 1180 1110 1180 1052 1251 c 128,-1,62
 994 1322 994 1322 891 1322 c 2,63,-1
 475 1322 l 1,64,-1
 475 873 l 1,56,-1
EndSplineSet
EndChar

StartChar: C
Encoding: 67 67 38
Width: 1336
GlyphClass: 2
Flags: W
LayerCount: 2
Fore
SplineSet
1243 994 m 1,0,-1
 1160 994 l 2,1,2
 1151 994 1151 994 1137 1012.5 c 128,-1,3
 1123 1031 1123 1031 1104.5 1060 c 128,-1,4
 1086 1089 1086 1089 1062 1124.5 c 128,-1,5
 1038 1160 1038 1160 1005.5 1195 c 128,-1,6
 973 1230 973 1230 936.5 1259 c 128,-1,7
 900 1288 900 1288 850.5 1306.5 c 128,-1,8
 801 1325 801 1325 748 1325 c 0,9,10
 655 1325 655 1325 576 1291.5 c 128,-1,11
 497 1258 497 1258 442 1201.5 c 128,-1,12
 387 1145 387 1145 347.5 1069.5 c 128,-1,13
 308 994 308 994 289.5 910 c 128,-1,14
 271 826 271 826 271 738 c 0,15,16
 271 654 271 654 293.5 574.5 c 128,-1,17
 316 495 316 495 362.5 424 c 128,-1,18
 409 353 409 353 474.5 299.5 c 128,-1,19
 540 246 540 246 633 214.5 c 128,-1,20
 726 183 726 183 835 183 c 0,21,22
 1068 183 1068 183 1265 330 c 1,23,24
 1304 278 1304 278 1304 228 c 0,25,26
 1304 156 1304 156 1226.5 95.5 c 128,-1,27
 1149 35 1149 35 1036 4 c 128,-1,28
 923 -27 923 -27 808 -27 c 0,29,30
 654 -27 654 -27 524.5 16 c 128,-1,31
 395 59 395 59 305 132 c 128,-1,32
 215 205 215 205 151.5 302.5 c 128,-1,33
 88 400 88 400 58.5 509 c 128,-1,34
 29 618 29 618 29 734 c 0,35,36
 29 891 29 891 80 1033 c 128,-1,37
 131 1175 131 1175 221 1281 c 128,-1,38
 311 1387 311 1387 444 1449.5 c 128,-1,39
 577 1512 577 1512 731 1512 c 0,40,41
 829 1512 829 1512 929.5 1468.5 c 128,-1,42
 1030 1425 1030 1425 1092 1340 c 1,43,44
 1092 1490 1092 1490 1131 1490 c 2,45,-1
 1243 1490 l 2,46,47
 1291 1490 1291 1490 1291 1386 c 2,48,-1
 1291 1119 l 2,49,50
 1291 1062 1291 1062 1285.5 1035.5 c 128,-1,51
 1280 1009 1280 1009 1271.5 1002.5 c 128,-1,52
 1263 996 1263 996 1243 994 c 1,0,-1
EndSplineSet
EndChar

StartChar: D
Encoding: 68 68 39
Width: 1621
GlyphClass: 2
Flags: W
LayerCount: 2
Fore
SplineSet
466 173 m 1,0,-1
 854 173 l 2,1,2
 939 173 939 173 1012.5 205 c 128,-1,3
 1086 237 1086 237 1139 291.5 c 128,-1,4
 1192 346 1192 346 1229.5 419 c 128,-1,5
 1267 492 1267 492 1285.5 574.5 c 128,-1,6
 1304 657 1304 657 1304 743 c 0,7,8
 1304 852 1304 852 1272.5 954 c 128,-1,9
 1241 1056 1241 1056 1182.5 1139 c 128,-1,10
 1124 1222 1124 1222 1030.5 1272 c 128,-1,11
 937 1322 937 1322 824 1322 c 2,12,-1
 466 1322 l 1,13,-1
 466 173 l 1,0,-1
113 1503 m 1,14,15
 245 1490 245 1490 481 1490 c 0,16,17
 557 1490 557 1490 672.5 1496.5 c 128,-1,18
 788 1503 788 1503 824 1503 c 0,19,20
 973 1503 973 1503 1097 1460.5 c 128,-1,21
 1221 1418 1221 1418 1306 1345 c 128,-1,22
 1391 1272 1391 1272 1450.5 1175 c 128,-1,23
 1510 1078 1510 1078 1537 970 c 128,-1,24
 1564 862 1564 862 1564 747 c 0,25,26
 1564 630 1564 630 1537.5 521.5 c 128,-1,27
 1511 413 1511 413 1454.5 315.5 c 128,-1,28
 1398 218 1398 218 1316 146 c 128,-1,29
 1234 74 1234 74 1115 31.5 c 128,-1,30
 996 -11 996 -11 854 -11 c 0,31,32
 812 -11 812 -11 696.5 -5.5 c 128,-1,33
 581 0 581 0 492 0 c 0,34,35
 450 0 450 0 390 -2 c 128,-1,36
 330 -4 330 -4 247 -7 c 128,-1,37
 164 -10 164 -10 113 -11 c 1,38,39
 86 5 86 5 73 53 c 128,-1,40
 60 101 60 101 60 152 c 0,41,42
 60 176 60 176 93 188 c 128,-1,43
 126 200 126 200 172 200 c 0,44,45
 211 200 211 200 223 216.5 c 128,-1,46
 235 233 235 233 235 263 c 2,47,-1
 235 1229 l 2,48,49
 235 1259 235 1259 223 1275.5 c 128,-1,50
 211 1292 211 1292 172 1292 c 0,51,52
 60 1292 60 1292 60 1344 c 0,53,54
 60 1393 60 1393 73 1440.5 c 128,-1,55
 86 1488 86 1488 113 1503 c 1,14,15
EndSplineSet
EndChar

StartChar: E
Encoding: 69 69 40
Width: 1324
GlyphClass: 2
Flags: W
LayerCount: 2
Fore
SplineSet
113 1503 m 1,0,1
 513 1490 513 1490 651 1490 c 0,2,3
 746 1490 746 1490 848 1492.5 c 128,-1,4
 950 1495 950 1495 1040 1499 c 128,-1,5
 1130 1503 1130 1503 1149 1503 c 1,6,7
 1166 1488 1166 1488 1211.5 1299 c 128,-1,8
 1257 1110 1257 1110 1257 1073 c 0,9,10
 1257 1066 1257 1066 1249.5 1053.5 c 128,-1,11
 1242 1041 1242 1041 1226.5 1026.5 c 128,-1,12
 1211 1012 1211 1012 1181.5 1002 c 128,-1,13
 1152 992 1152 992 1114 992 c 0,14,15
 1099 992 1099 992 1080 1056 c 128,-1,16
 1061 1120 1061 1120 1042 1204.5 c 128,-1,17
 1023 1289 1023 1289 1015 1311 c 1,18,19
 942 1311 942 1311 771.5 1310.5 c 128,-1,20
 601 1310 601 1310 500 1310 c 0,21,22
 485 1310 485 1310 477 1299 c 128,-1,23
 469 1288 469 1288 467.5 1276.5 c 128,-1,24
 466 1265 466 1265 466 1246 c 2,25,-1
 466 869 l 1,26,27
 524 889 524 889 609.5 905 c 128,-1,28
 695 921 695 921 766 921 c 0,29,30
 826 921 826 921 862 890.5 c 128,-1,31
 898 860 898 860 898 793 c 0,32,33
 898 737 898 737 859.5 699.5 c 128,-1,34
 821 662 821 662 769 662 c 1,35,36
 697 753 697 753 563 753 c 0,37,38
 524 753 524 753 466 746 c 1,39,-1
 466 244 l 2,40,41
 466 224 466 224 467.5 212.5 c 128,-1,42
 469 201 469 201 477 190 c 128,-1,43
 485 179 485 179 500 179 c 0,44,45
 609 179 609 179 793 178.5 c 128,-1,46
 977 178 977 178 1055 178 c 1,47,48
 1065 202 1065 202 1090 297.5 c 128,-1,49
 1115 393 1115 393 1140 465 c 128,-1,50
 1165 537 1165 537 1184 537 c 0,51,52
 1222 537 1222 537 1251.5 527 c 128,-1,53
 1281 517 1281 517 1296.5 502.5 c 128,-1,54
 1312 488 1312 488 1319.5 475.5 c 128,-1,55
 1327 463 1327 463 1327 456 c 0,56,57
 1327 415 1327 415 1272.5 209.5 c 128,-1,58
 1218 4 1218 4 1199 -11 c 1,59,60
 1014 0 1014 0 651 0 c 0,61,62
 334 0 334 0 113 -11 c 1,63,64
 86 5 86 5 73 53 c 128,-1,65
 60 101 60 101 60 152 c 0,66,67
 60 176 60 176 93 188 c 128,-1,68
 126 200 126 200 172 200 c 0,69,70
 211 200 211 200 223 216.5 c 128,-1,71
 235 233 235 233 235 263 c 2,72,-1
 235 1229 l 2,73,74
 235 1259 235 1259 223 1275.5 c 128,-1,75
 211 1292 211 1292 172 1292 c 0,76,77
 60 1292 60 1292 60 1344 c 0,78,79
 60 1393 60 1393 73 1440.5 c 128,-1,80
 86 1488 86 1488 113 1503 c 1,0,1
EndSplineSet
EndChar

StartChar: F
Encoding: 70 70 41
Width: 1244
GlyphClass: 2
Flags: W
LayerCount: 2
Fore
SplineSet
113 1503 m 1,0,1
 238 1490 238 1490 671 1490 c 0,2,3
 899 1490 899 1490 1099 1503 c 1,4,5
 1121 1488 1121 1488 1184 1308 c 128,-1,6
 1247 1128 1247 1128 1247 1093 c 0,7,8
 1247 1086 1247 1086 1239.5 1073.5 c 128,-1,9
 1232 1061 1232 1061 1216.5 1046.5 c 128,-1,10
 1201 1032 1201 1032 1171.5 1022 c 128,-1,11
 1142 1012 1142 1012 1104 1012 c 0,12,13
 1083 1012 1083 1012 1056.5 1072 c 128,-1,14
 1030 1132 1030 1132 1003 1211.5 c 128,-1,15
 976 1291 976 1291 965 1311 c 1,16,17
 899 1311 899 1311 744.5 1310.5 c 128,-1,18
 590 1310 590 1310 500 1310 c 0,19,20
 485 1310 485 1310 477 1306 c 128,-1,21
 469 1302 469 1302 467.5 1297.5 c 128,-1,22
 466 1293 466 1293 466 1286 c 2,23,-1
 466 877 l 1,24,25
 524 897 524 897 609.5 913 c 128,-1,26
 695 929 695 929 766 929 c 0,27,28
 928 929 928 929 928 801 c 0,29,30
 928 745 928 745 889.5 707.5 c 128,-1,31
 851 670 851 670 799 670 c 1,32,33
 728 762 728 762 613 762 c 0,34,35
 542 762 542 762 466 745 c 1,36,-1
 466 265 l 2,37,38
 466 250 466 250 467.5 241.5 c 128,-1,39
 469 233 469 233 474.5 222 c 128,-1,40
 480 211 480 211 494 205.5 c 128,-1,41
 508 200 508 200 530 200 c 0,42,43
 576 200 576 200 609 188 c 128,-1,44
 642 176 642 176 642 152 c 0,45,46
 642 100 642 100 631.5 52.5 c 128,-1,47
 621 5 621 5 599 -11 c 1,48,49
 456 0 456 0 352 0 c 0,50,51
 254 0 254 0 113 -11 c 1,52,53
 86 5 86 5 73 53 c 128,-1,54
 60 101 60 101 60 152 c 0,55,56
 60 176 60 176 93 188 c 128,-1,57
 126 200 126 200 172 200 c 0,58,59
 211 200 211 200 223 216.5 c 128,-1,60
 235 233 235 233 235 263 c 2,61,-1
 235 1229 l 2,62,63
 235 1259 235 1259 223 1275.5 c 128,-1,64
 211 1292 211 1292 172 1292 c 0,65,66
 60 1292 60 1292 60 1344 c 0,67,68
 60 1393 60 1393 73 1440.5 c 128,-1,69
 86 1488 86 1488 113 1503 c 1,0,1
EndSplineSet
EndChar

StartChar: G
Encoding: 71 71 42
Width: 1615
GlyphClass: 2
Flags: W
LayerCount: 2
Fore
SplineSet
1441 472 m 2,0,-1
 1442 53 l 1,1,2
 1406 17 1406 17 1361 17 c 0,3,4
 1350 17 1350 17 1338.5 19.5 c 128,-1,5
 1327 22 1327 22 1314 27.5 c 128,-1,6
 1301 33 1301 33 1293 36.5 c 128,-1,7
 1285 40 1285 40 1269.5 48.5 c 128,-1,8
 1254 57 1254 57 1250 59 c 1,9,10
 1160 22 1160 22 1040.5 -2.5 c 128,-1,11
 921 -27 921 -27 816 -27 c 0,12,13
 666 -27 666 -27 540 16 c 128,-1,14
 414 59 414 59 326 132 c 128,-1,15
 238 205 238 205 176.5 302.5 c 128,-1,16
 115 400 115 400 86 509 c 128,-1,17
 57 618 57 618 57 734 c 0,18,19
 57 891 57 891 108 1033 c 128,-1,20
 159 1175 159 1175 249 1281 c 128,-1,21
 339 1387 339 1387 472 1449.5 c 128,-1,22
 605 1512 605 1512 759 1512 c 0,23,24
 881 1512 881 1512 1008.5 1468.5 c 128,-1,25
 1136 1425 1136 1425 1210 1340 c 1,26,27
 1210 1490 1210 1490 1249 1490 c 2,28,-1
 1361 1490 l 2,29,30
 1409 1490 1409 1490 1409 1386 c 2,31,-1
 1409 1139 l 2,32,33
 1409 1082 1409 1082 1403.5 1055.5 c 128,-1,34
 1398 1029 1398 1029 1389.5 1022.5 c 128,-1,35
 1381 1016 1381 1016 1361 1014 c 1,36,-1
 1278 1014 l 2,37,38
 1270 1014 1270 1014 1249.5 1037 c 128,-1,39
 1229 1060 1229 1060 1202 1094.5 c 128,-1,40
 1175 1129 1175 1129 1131.5 1169.5 c 128,-1,41
 1088 1210 1088 1210 1039 1244.5 c 128,-1,42
 990 1279 990 1279 920.5 1302 c 128,-1,43
 851 1325 851 1325 776 1325 c 0,44,45
 683 1325 683 1325 604 1291.5 c 128,-1,46
 525 1258 525 1258 470 1201.5 c 128,-1,47
 415 1145 415 1145 375.5 1069.5 c 128,-1,48
 336 994 336 994 317.5 910 c 128,-1,49
 299 826 299 826 299 738 c 0,50,51
 299 654 299 654 320.5 574.5 c 128,-1,52
 342 495 342 495 387 424 c 128,-1,53
 432 353 432 353 495.5 299.5 c 128,-1,54
 559 246 559 246 648.5 214.5 c 128,-1,55
 738 183 738 183 843 183 c 0,56,57
 1036 183 1036 183 1220 229 c 1,58,-1
 1220 435 l 2,59,60
 1220 469 1220 469 1215 492.5 c 128,-1,61
 1210 516 1210 516 1195.5 540 c 128,-1,62
 1181 564 1181 564 1148.5 576 c 128,-1,63
 1116 588 1116 588 1067 588 c 0,64,65
 1048 588 1048 588 1041.5 605 c 128,-1,66
 1035 622 1035 622 1035 666 c 0,67,68
 1035 733 1035 733 1068 786 c 1,69,70
 1197 775 1197 775 1322 775 c 0,71,72
 1373 775 1373 775 1423 777.5 c 128,-1,73
 1473 780 1473 780 1505 783 c 128,-1,74
 1537 786 1537 786 1544 786 c 1,75,76
 1552 778 1552 778 1559.5 748.5 c 128,-1,77
 1567 719 1567 719 1567 696 c 0,78,79
 1567 657 1567 657 1554 634.5 c 128,-1,80
 1541 612 1541 612 1522.5 602 c 128,-1,81
 1504 592 1504 592 1485.5 581 c 128,-1,82
 1467 570 1467 570 1454 543.5 c 128,-1,83
 1441 517 1441 517 1441 472 c 2,0,-1
EndSplineSet
EndChar

StartChar: H
Encoding: 72 72 43
Width: 1759
GlyphClass: 2
Flags: W
LayerCount: 2
Fore
SplineSet
113 -11 m 1,0,1
 86 5 86 5 73 53 c 128,-1,2
 60 101 60 101 60 152 c 0,3,4
 60 176 60 176 93 188 c 128,-1,5
 126 200 126 200 172 200 c 0,6,7
 211 200 211 200 223 216.5 c 128,-1,8
 235 233 235 233 235 263 c 2,9,-1
 235 1229 l 2,10,11
 235 1259 235 1259 223 1275.5 c 128,-1,12
 211 1292 211 1292 172 1292 c 0,13,14
 60 1292 60 1292 60 1344 c 0,15,16
 60 1393 60 1393 73 1440.5 c 128,-1,17
 86 1488 86 1488 113 1503 c 1,18,19
 279 1490 279 1490 352 1490 c 0,20,21
 443 1490 443 1490 599 1502 c 1,22,23
 621 1486 621 1486 631.5 1438 c 128,-1,24
 642 1390 642 1390 642 1338 c 0,25,26
 642 1314 642 1314 609 1302 c 128,-1,27
 576 1290 576 1290 530 1290 c 0,28,29
 508 1290 508 1290 494 1284.5 c 128,-1,30
 480 1279 480 1279 474.5 1268 c 128,-1,31
 469 1257 469 1257 467.5 1248.5 c 128,-1,32
 466 1240 466 1240 466 1225 c 2,33,-1
 466 884 l 2,34,35
 466 863 466 863 485 863 c 2,36,-1
 1273 863 l 2,37,38
 1292 863 1292 863 1292 884 c 2,39,-1
 1292 1227 l 2,40,41
 1292 1257 1292 1257 1280 1273.5 c 128,-1,42
 1268 1290 1268 1290 1229 1290 c 0,43,44
 1183 1290 1183 1290 1150 1302 c 128,-1,45
 1117 1314 1117 1314 1117 1338 c 0,46,47
 1117 1390 1117 1390 1130 1438 c 128,-1,48
 1143 1486 1143 1486 1170 1502 c 1,49,50
 1324 1490 1324 1490 1409 1490 c 0,51,52
 1500 1490 1500 1490 1656 1502 c 1,53,54
 1678 1486 1678 1486 1688.5 1438 c 128,-1,55
 1699 1390 1699 1390 1699 1338 c 0,56,57
 1699 1314 1699 1314 1666 1302 c 128,-1,58
 1633 1290 1633 1290 1587 1290 c 0,59,60
 1565 1290 1565 1290 1551 1284.5 c 128,-1,61
 1537 1279 1537 1279 1531.5 1268 c 128,-1,62
 1526 1257 1526 1257 1524.5 1248.5 c 128,-1,63
 1523 1240 1523 1240 1523 1225 c 2,64,-1
 1523 265 l 2,65,66
 1523 250 1523 250 1524.5 241.5 c 128,-1,67
 1526 233 1526 233 1531.5 222 c 128,-1,68
 1537 211 1537 211 1551 205.5 c 128,-1,69
 1565 200 1565 200 1587 200 c 0,70,71
 1633 200 1633 200 1666 188 c 128,-1,72
 1699 176 1699 176 1699 152 c 0,73,74
 1699 100 1699 100 1688.5 52.5 c 128,-1,75
 1678 5 1678 5 1656 -11 c 1,76,77
 1513 0 1513 0 1409 0 c 0,78,79
 1311 0 1311 0 1170 -11 c 1,80,81
 1143 5 1143 5 1130 53 c 128,-1,82
 1117 101 1117 101 1117 152 c 0,83,84
 1117 176 1117 176 1150 188 c 128,-1,85
 1183 200 1183 200 1229 200 c 0,86,87
 1268 200 1268 200 1280 216.5 c 128,-1,88
 1292 233 1292 233 1292 263 c 2,89,-1
 1292 686 l 2,90,91
 1292 707 1292 707 1273 707 c 2,92,-1
 485 707 l 2,93,94
 466 707 466 707 466 686 c 2,95,-1
 466 265 l 2,96,97
 466 250 466 250 467.5 241.5 c 128,-1,98
 469 233 469 233 474.5 222 c 128,-1,99
 480 211 480 211 494 205.5 c 128,-1,100
 508 200 508 200 530 200 c 0,101,102
 576 200 576 200 609 188 c 128,-1,103
 642 176 642 176 642 152 c 0,104,105
 642 100 642 100 631.5 52.5 c 128,-1,106
 621 5 621 5 599 -11 c 1,107,108
 456 0 456 0 352 0 c 0,109,110
 254 0 254 0 113 -11 c 1,0,1
EndSplineSet
EndChar

StartChar: I
Encoding: 73 73 44
Width: 702
GlyphClass: 2
Flags: W
LayerCount: 2
Fore
SplineSet
113 1503 m 1,0,1
 279 1490 279 1490 352 1490 c 0,2,3
 430 1490 430 1490 599 1503 c 1,4,5
 621 1487 621 1487 631.5 1438.5 c 128,-1,6
 642 1390 642 1390 642 1338 c 0,7,8
 642 1314 642 1314 609 1302 c 128,-1,9
 576 1290 576 1290 530 1290 c 0,10,11
 508 1290 508 1290 494 1284.5 c 128,-1,12
 480 1279 480 1279 474.5 1268 c 128,-1,13
 469 1257 469 1257 467.5 1248.5 c 128,-1,14
 466 1240 466 1240 466 1225 c 2,15,-1
 466 265 l 2,16,17
 466 250 466 250 467.5 241.5 c 128,-1,18
 469 233 469 233 474.5 222 c 128,-1,19
 480 211 480 211 494 205.5 c 128,-1,20
 508 200 508 200 530 200 c 0,21,22
 576 200 576 200 609 188 c 128,-1,23
 642 176 642 176 642 152 c 0,24,25
 642 100 642 100 631.5 52.5 c 128,-1,26
 621 5 621 5 599 -11 c 1,27,28
 456 0 456 0 352 0 c 0,29,30
 254 0 254 0 113 -11 c 1,31,32
 86 5 86 5 73 53 c 128,-1,33
 60 101 60 101 60 152 c 0,34,35
 60 176 60 176 93 188 c 128,-1,36
 126 200 126 200 172 200 c 0,37,38
 211 200 211 200 223 216.5 c 128,-1,39
 235 233 235 233 235 263 c 2,40,-1
 235 1229 l 2,41,42
 235 1259 235 1259 223 1275.5 c 128,-1,43
 211 1292 211 1292 172 1292 c 0,44,45
 60 1292 60 1292 60 1344 c 0,46,47
 60 1393 60 1393 73 1440.5 c 128,-1,48
 86 1488 86 1488 113 1503 c 1,0,1
EndSplineSet
EndChar

StartChar: J
Encoding: 74 74 45
Width: 957
GlyphClass: 2
Flags: W
LayerCount: 2
Fore
SplineSet
482 351 m 2,0,-1
 481 1227 l 2,1,2
 481 1257 481 1257 469 1273.5 c 128,-1,3
 457 1290 457 1290 418 1290 c 0,4,5
 372 1290 372 1290 339 1302 c 128,-1,6
 306 1314 306 1314 306 1338 c 0,7,8
 306 1389 306 1389 319 1435.5 c 128,-1,9
 332 1482 332 1482 359 1498 c 1,10,11
 461 1490 461 1490 598 1490 c 0,12,13
 741 1490 741 1490 845 1498 c 1,14,15
 888 1468 888 1468 888 1338 c 0,16,17
 888 1314 888 1314 855 1302 c 128,-1,18
 822 1290 822 1290 776 1290 c 0,19,20
 754 1290 754 1290 740 1284.5 c 128,-1,21
 726 1279 726 1279 720.5 1268 c 128,-1,22
 715 1257 715 1257 713.5 1248.5 c 128,-1,23
 712 1240 712 1240 712 1225 c 2,24,-1
 712 375 l 2,25,26
 712 299 712 299 705 238 c 128,-1,27
 698 177 698 177 676.5 114.5 c 128,-1,28
 655 52 655 52 619 10 c 128,-1,29
 583 -32 583 -32 521 -58.5 c 128,-1,30
 459 -85 459 -85 376 -85 c 0,31,32
 324 -85 324 -85 272 -74 c 128,-1,33
 220 -63 220 -63 170 -39 c 128,-1,34
 120 -15 120 -15 88.5 29.5 c 128,-1,35
 57 74 57 74 57 134 c 0,36,37
 57 177 57 177 93 203 c 128,-1,38
 129 229 129 229 176 229 c 0,39,40
 214 229 214 229 236.5 216.5 c 128,-1,41
 259 204 259 204 268.5 186 c 128,-1,42
 278 168 278 168 286.5 149.5 c 128,-1,43
 295 131 295 131 314.5 118.5 c 128,-1,44
 334 106 334 106 368 106 c 0,45,46
 405 106 405 106 428.5 123.5 c 128,-1,47
 452 141 452 141 463.5 177.5 c 128,-1,48
 475 214 475 214 478.5 252.5 c 128,-1,49
 482 291 482 291 482 351 c 2,0,-1
EndSplineSet
EndChar

StartChar: K
Encoding: 75 75 46
Width: 1598
GlyphClass: 2
Flags: W
LayerCount: 2
Fore
SplineSet
113 1503 m 1,0,1
 279 1490 279 1490 352 1490 c 0,2,3
 430 1490 430 1490 599 1503 c 1,4,5
 621 1487 621 1487 631.5 1438.5 c 128,-1,6
 642 1390 642 1390 642 1338 c 0,7,8
 642 1314 642 1314 609 1302 c 128,-1,9
 576 1290 576 1290 530 1290 c 0,10,11
 508 1290 508 1290 494 1284.5 c 128,-1,12
 480 1279 480 1279 474.5 1268 c 128,-1,13
 469 1257 469 1257 467.5 1248.5 c 128,-1,14
 466 1240 466 1240 466 1225 c 2,15,-1
 466 792 l 1,16,-1
 1025 1227 l 2,17,18
 1047 1244 1047 1244 1047 1258 c 0,19,20
 1047 1278 1047 1278 1032 1286 c 128,-1,21
 1017 1294 1017 1294 999.5 1293.5 c 128,-1,22
 982 1293 982 1293 967 1299 c 128,-1,23
 952 1305 952 1305 952 1321 c 0,24,25
 952 1333 952 1333 969 1398 c 1,26,27
 974 1411 974 1411 986 1452.5 c 128,-1,28
 998 1494 998 1494 1005 1503 c 1,29,30
 1179 1490 1179 1490 1259 1490 c 0,31,32
 1326 1490 1326 1490 1511 1503 c 1,33,34
 1528 1481 1528 1481 1534.5 1428 c 128,-1,35
 1541 1375 1541 1375 1541 1338 c 0,36,37
 1541 1313 1541 1313 1516.5 1301.5 c 128,-1,38
 1492 1290 1492 1290 1465 1290 c 0,39,40
 1427 1290 1427 1290 1398 1281.5 c 128,-1,41
 1369 1273 1369 1273 1354.5 1264 c 128,-1,42
 1340 1255 1340 1255 1320 1238 c 2,43,-1
 786 793 l 1,44,45
 849 715 849 715 916 621 c 128,-1,46
 983 527 983 527 1022 469 c 128,-1,47
 1061 411 1061 411 1111 350.5 c 128,-1,48
 1161 290 1161 290 1204.5 257 c 128,-1,49
 1248 224 1248 224 1308.5 203 c 128,-1,50
 1369 182 1369 182 1444 182 c 0,51,52
 1566 182 1566 182 1566 156 c 2,53,-1
 1566 119 l 2,54,55
 1566 85 1566 85 1561.5 64 c 128,-1,56
 1557 43 1557 43 1541 19.5 c 128,-1,57
 1525 -4 1525 -4 1488 -15.5 c 128,-1,58
 1451 -27 1451 -27 1393 -27 c 0,59,60
 1297 -27 1297 -27 1224 -11 c 128,-1,61
 1151 5 1151 5 1095 40.5 c 128,-1,62
 1039 76 1039 76 998 118 c 128,-1,63
 957 160 957 160 913.5 227 c 128,-1,64
 870 294 870 294 833.5 358 c 128,-1,65
 797 422 797 422 738.5 516.5 c 128,-1,66
 680 611 680 611 621 693 c 1,67,-1
 466 576 l 1,68,-1
 466 265 l 2,69,70
 466 250 466 250 467.5 241.5 c 128,-1,71
 469 233 469 233 474.5 222 c 128,-1,72
 480 211 480 211 494 205.5 c 128,-1,73
 508 200 508 200 530 200 c 0,74,75
 576 200 576 200 609 188 c 128,-1,76
 642 176 642 176 642 152 c 0,77,78
 642 100 642 100 631.5 52.5 c 128,-1,79
 621 5 621 5 599 -11 c 1,80,81
 456 0 456 0 352 0 c 0,82,83
 254 0 254 0 113 -11 c 1,84,85
 86 5 86 5 73 53 c 128,-1,86
 60 101 60 101 60 152 c 0,87,88
 60 176 60 176 93 188 c 128,-1,89
 126 200 126 200 172 200 c 0,90,91
 211 200 211 200 223 216.5 c 128,-1,92
 235 233 235 233 235 263 c 2,93,-1
 235 1229 l 2,94,95
 235 1259 235 1259 223 1275.5 c 128,-1,96
 211 1292 211 1292 172 1292 c 0,97,98
 60 1292 60 1292 60 1344 c 0,99,100
 60 1393 60 1393 73 1440.5 c 128,-1,101
 86 1488 86 1488 113 1503 c 1,0,1
EndSplineSet
EndChar

StartChar: L
Encoding: 76 76 47
Width: 1320
GlyphClass: 2
Flags: W
LayerCount: 2
Fore
SplineSet
122 1503 m 1,0,1
 170 1490 170 1490 360 1490 c 0,2,3
 527 1490 527 1490 578 1503 c 1,4,5
 605 1488 605 1488 618 1446.5 c 128,-1,6
 631 1405 631 1405 631 1359 c 0,7,8
 631 1335 631 1335 604 1323 c 128,-1,9
 577 1311 577 1311 539 1311 c 0,10,11
 517 1311 517 1311 503 1305.5 c 128,-1,12
 489 1300 489 1300 483.5 1289 c 128,-1,13
 478 1278 478 1278 476.5 1269.5 c 128,-1,14
 475 1261 475 1261 475 1246 c 2,15,-1
 475 214 l 2,16,17
 475 179 475 179 489 179 c 0,18,19
 579 179 579 179 733.5 178.5 c 128,-1,20
 888 178 888 178 954 178 c 1,21,22
 967 201 967 201 1002 297 c 128,-1,23
 1037 393 1037 393 1072 465 c 128,-1,24
 1107 537 1107 537 1133 537 c 0,25,26
 1171 537 1171 537 1200.5 527 c 128,-1,27
 1230 517 1230 517 1245.5 502.5 c 128,-1,28
 1261 488 1261 488 1268.5 475.5 c 128,-1,29
 1276 463 1276 463 1276 456 c 0,30,31
 1276 415 1276 415 1191.5 209.5 c 128,-1,32
 1107 4 1107 4 1078 -11 c 1,33,34
 805 0 805 0 577 0 c 0,35,36
 364 0 364 0 122 -11 c 1,37,38
 95 5 95 5 82 53 c 128,-1,39
 69 101 69 101 69 152 c 0,40,41
 69 176 69 176 102 188 c 128,-1,42
 135 200 135 200 181 200 c 0,43,44
 220 200 220 200 232 216.5 c 128,-1,45
 244 233 244 233 244 263 c 2,46,-1
 244 1229 l 2,47,48
 244 1259 244 1259 232 1275.5 c 128,-1,49
 220 1292 220 1292 181 1292 c 0,50,51
 69 1292 69 1292 69 1344 c 0,52,53
 69 1393 69 1393 82 1440.5 c 128,-1,54
 95 1488 95 1488 122 1503 c 1,0,1
EndSplineSet
EndChar

StartChar: M
Encoding: 77 77 48
Width: 2034
GlyphClass: 2
Flags: W
LayerCount: 2
Fore
SplineSet
122 1503 m 1,0,1
 139 1502 139 1502 177.5 1498 c 128,-1,2
 216 1494 216 1494 248 1492 c 128,-1,3
 280 1490 280 1490 320 1490 c 0,4,5
 359 1490 359 1490 416.5 1493.5 c 128,-1,6
 474 1497 474 1497 486 1497 c 0,7,8
 489 1497 489 1497 493 1496.5 c 128,-1,9
 497 1496 497 1496 498 1496 c 0,10,11
 503 1495 503 1495 526 1449.5 c 128,-1,12
 549 1404 549 1404 589.5 1315 c 128,-1,13
 630 1226 630 1226 670.5 1137 c 128,-1,14
 711 1048 711 1048 768.5 917.5 c 128,-1,15
 826 787 826 787 862.5 703 c 128,-1,16
 899 619 899 619 953 495.5 c 128,-1,17
 1007 372 1007 372 1021 339 c 1,18,19
 1139 627 1139 627 1329.5 1060 c 128,-1,20
 1520 1493 1520 1493 1536 1496 c 0,21,22
 1542 1497 1542 1497 1548 1497 c 0,23,24
 1558 1497 1558 1497 1611 1493.5 c 128,-1,25
 1664 1490 1664 1490 1699 1490 c 0,26,27
 1838 1490 1838 1490 1907 1503 c 1,28,29
 1950 1472 1950 1472 1950 1335 c 0,30,31
 1950 1311 1950 1311 1917 1299 c 128,-1,32
 1884 1287 1884 1287 1838 1287 c 0,33,34
 1799 1287 1799 1287 1787 1270.5 c 128,-1,35
 1775 1254 1775 1254 1775 1224 c 2,36,-1
 1775 261 l 2,37,38
 1775 231 1775 231 1787 214.5 c 128,-1,39
 1799 198 1799 198 1838 198 c 0,40,41
 1884 198 1884 198 1917 186 c 128,-1,42
 1950 174 1950 174 1950 150 c 0,43,44
 1950 100 1950 100 1937 52.5 c 128,-1,45
 1924 5 1924 5 1897 -11 c 1,46,47
 1763 0 1763 0 1668 0 c 0,48,49
 1559 0 1559 0 1416 -11 c 1,50,51
 1394 5 1394 5 1383.5 53 c 128,-1,52
 1373 101 1373 101 1373 152 c 0,53,54
 1373 176 1373 176 1406 188 c 128,-1,55
 1439 200 1439 200 1485 200 c 0,56,57
 1507 200 1507 200 1521 205.5 c 128,-1,58
 1535 211 1535 211 1540.5 222 c 128,-1,59
 1546 233 1546 233 1547.5 241.5 c 128,-1,60
 1549 250 1549 250 1549 265 c 2,61,-1
 1549 1146 l 2,62,63
 1549 1147 1549 1147 1502 1038 c 128,-1,64
 1455 929 1455 929 1388 773 c 128,-1,65
 1321 617 1321 617 1254 461 c 128,-1,66
 1187 305 1187 305 1140 196 c 2,67,-1
 1093 86 l 2,68,69
 1093 84 1093 84 1077 71.5 c 128,-1,70
 1061 59 1061 59 1034 46 c 128,-1,71
 1007 33 1007 33 985 33 c 0,72,73
 933 33 933 33 898 111 c 0,74,75
 885 139 885 139 832.5 259 c 128,-1,76
 780 379 780 379 716 524.5 c 128,-1,77
 652 670 652 670 589 813 c 128,-1,78
 526 956 526 956 483.5 1051.5 c 128,-1,79
 441 1147 441 1147 441 1146 c 2,80,-1
 441 265 l 2,81,82
 441 250 441 250 442.5 241.5 c 128,-1,83
 444 233 444 233 449.5 222 c 128,-1,84
 455 211 455 211 469 205.5 c 128,-1,85
 483 200 483 200 505 200 c 0,86,87
 551 200 551 200 584 188 c 128,-1,88
 617 176 617 176 617 152 c 0,89,90
 617 101 617 101 606.5 53 c 128,-1,91
 596 5 596 5 574 -11 c 1,92,93
 451 0 451 0 351 0 c 0,94,95
 256 0 256 0 122 -11 c 1,96,97
 95 5 95 5 82 53 c 128,-1,98
 69 101 69 101 69 152 c 0,99,100
 69 176 69 176 102 188 c 128,-1,101
 135 200 135 200 181 200 c 0,102,103
 220 200 220 200 232 216.5 c 128,-1,104
 244 233 244 233 244 263 c 2,105,-1
 244 1229 l 2,106,107
 244 1259 244 1259 232 1275.5 c 128,-1,108
 220 1292 220 1292 181 1292 c 0,109,110
 69 1292 69 1292 69 1344 c 0,111,112
 69 1393 69 1393 82 1440.5 c 128,-1,113
 95 1488 95 1488 122 1503 c 1,0,1
EndSplineSet
EndChar

StartChar: N
Encoding: 78 78 49
Width: 1714
GlyphClass: 2
Flags: W
LayerCount: 2
Fore
SplineSet
122 1503 m 1,0,1
 139 1502 139 1502 177.5 1498 c 128,-1,2
 216 1494 216 1494 248 1492 c 128,-1,3
 280 1490 280 1490 320 1490 c 0,4,5
 352 1490 352 1490 399 1493.5 c 128,-1,6
 446 1497 446 1497 456 1497 c 0,7,8
 459 1497 459 1497 463 1496.5 c 128,-1,9
 467 1496 467 1496 468 1496 c 0,10,11
 485 1495 485 1495 595 1354 c 128,-1,12
 705 1213 705 1213 861.5 997 c 128,-1,13
 1018 781 1018 781 1104 660 c 128,-1,14
 1190 539 1190 539 1259 442 c 1,15,-1
 1259 1226 l 2,16,17
 1259 1256 1259 1256 1247 1272.5 c 128,-1,18
 1235 1289 1235 1289 1196 1289 c 0,19,20
 1150 1289 1150 1289 1117 1301 c 128,-1,21
 1084 1313 1084 1313 1084 1337 c 0,22,23
 1084 1388 1084 1388 1094.5 1434.5 c 128,-1,24
 1105 1481 1105 1481 1127 1497 c 1,25,26
 1217 1490 1217 1490 1366 1490 c 0,27,28
 1516 1490 1516 1490 1603 1497 c 1,29,30
 1625 1481 1625 1481 1635.5 1434.5 c 128,-1,31
 1646 1388 1646 1388 1646 1337 c 0,32,33
 1646 1313 1646 1313 1613 1301 c 128,-1,34
 1580 1289 1580 1289 1534 1289 c 0,35,36
 1512 1289 1512 1289 1498 1283.5 c 128,-1,37
 1484 1278 1484 1278 1478.5 1267 c 128,-1,38
 1473 1256 1473 1256 1471.5 1247.5 c 128,-1,39
 1470 1239 1470 1239 1470 1224 c 2,40,-1
 1470 414 l 2,41,42
 1470 345 1470 345 1476.5 193.5 c 128,-1,43
 1483 42 1483 42 1483 14 c 1,44,45
 1432 -37 1432 -37 1375 -37 c 0,46,47
 1363 -37 1363 -37 1352.5 -33 c 128,-1,48
 1342 -29 1342 -29 1333 -19.5 c 128,-1,49
 1324 -10 1324 -10 1318.5 -3.5 c 128,-1,50
 1313 3 1313 3 1303 18.5 c 128,-1,51
 1293 34 1293 34 1288 41 c 0,52,53
 1197 169 1197 169 826 683.5 c 128,-1,54
 455 1198 455 1198 455 1196 c 2,55,-1
 455 265 l 2,56,57
 455 250 455 250 456.5 241.5 c 128,-1,58
 458 233 458 233 463.5 222 c 128,-1,59
 469 211 469 211 483 205.5 c 128,-1,60
 497 200 497 200 519 200 c 0,61,62
 565 200 565 200 598 188 c 128,-1,63
 631 176 631 176 631 152 c 0,64,65
 631 101 631 101 620.5 53 c 128,-1,66
 610 5 610 5 588 -11 c 1,67,68
 452 0 452 0 351 0 c 0,69,70
 256 0 256 0 122 -11 c 1,71,72
 95 5 95 5 82 53 c 128,-1,73
 69 101 69 101 69 152 c 0,74,75
 69 176 69 176 102 188 c 128,-1,76
 135 200 135 200 181 200 c 0,77,78
 220 200 220 200 232 216.5 c 128,-1,79
 244 233 244 233 244 263 c 2,80,-1
 244 1229 l 2,81,82
 244 1259 244 1259 232 1275.5 c 128,-1,83
 220 1292 220 1292 181 1292 c 0,84,85
 69 1292 69 1292 69 1344 c 0,86,87
 69 1393 69 1393 82 1440.5 c 128,-1,88
 95 1488 95 1488 122 1503 c 1,0,1
EndSplineSet
EndChar

StartChar: O
Encoding: 79 79 50
Width: 1634
GlyphClass: 2
Flags: W
LayerCount: 2
Fore
SplineSet
817 -27 m 128,-1,1
 670 -27 670 -27 545 16.5 c 128,-1,2
 420 60 420 60 331.5 134.5 c 128,-1,3
 243 209 243 209 180 308 c 128,-1,4
 117 407 117 407 87 518.5 c 128,-1,5
 57 630 57 630 57 747 c 128,-1,6
 57 864 57 864 87 974.5 c 128,-1,7
 117 1085 117 1085 179.5 1182.5 c 128,-1,8
 242 1280 242 1280 330.5 1353.5 c 128,-1,9
 419 1427 419 1427 544.5 1469.5 c 128,-1,10
 670 1512 670 1512 817 1512 c 128,-1,11
 964 1512 964 1512 1089.5 1469.5 c 128,-1,12
 1215 1427 1215 1427 1303.5 1353.5 c 128,-1,13
 1392 1280 1392 1280 1454.5 1182.5 c 128,-1,14
 1517 1085 1517 1085 1547 974.5 c 128,-1,15
 1577 864 1577 864 1577 747 c 128,-1,16
 1577 630 1577 630 1547 518.5 c 128,-1,17
 1517 407 1517 407 1454 308 c 128,-1,18
 1391 209 1391 209 1302.5 134.5 c 128,-1,19
 1214 60 1214 60 1089 16.5 c 128,-1,0
 964 -27 964 -27 817 -27 c 128,-1,1
817 153 m 128,-1,21
 915 153 915 153 998 186.5 c 128,-1,22
 1081 220 1081 220 1140 276.5 c 128,-1,23
 1199 333 1199 333 1240.5 408.5 c 128,-1,24
 1282 484 1282 484 1302 568.5 c 128,-1,25
 1322 653 1322 653 1322 743 c 0,26,27
 1322 856 1322 856 1289.5 960 c 128,-1,28
 1257 1064 1257 1064 1196 1148 c 128,-1,29
 1135 1232 1135 1232 1036.5 1282.5 c 128,-1,30
 938 1333 938 1333 817 1333 c 128,-1,31
 696 1333 696 1333 597.5 1282.5 c 128,-1,32
 499 1232 499 1232 438 1148 c 128,-1,33
 377 1064 377 1064 344.5 960 c 128,-1,34
 312 856 312 856 312 743 c 0,35,36
 312 653 312 653 332 568.5 c 128,-1,37
 352 484 352 484 393.5 408.5 c 128,-1,38
 435 333 435 333 494 276.5 c 128,-1,39
 553 220 553 220 636 186.5 c 128,-1,20
 719 153 719 153 817 153 c 128,-1,21
EndSplineSet
EndChar

StartChar: P
Encoding: 80 80 51
Width: 1462
GlyphClass: 2
Flags: W
LayerCount: 2
Fore
SplineSet
244 263 m 2,0,-1
 244 1229 l 2,1,2
 244 1259 244 1259 232 1275.5 c 128,-1,3
 220 1292 220 1292 181 1292 c 0,4,5
 69 1292 69 1292 69 1344 c 0,6,7
 69 1393 69 1393 82 1440.5 c 128,-1,8
 95 1488 95 1488 122 1503 c 1,9,10
 254 1490 254 1490 490 1490 c 0,11,12
 573 1490 573 1490 697.5 1498 c 128,-1,13
 822 1506 822 1506 861 1506 c 0,14,15
 969 1506 969 1506 1060 1480 c 128,-1,16
 1151 1454 1151 1454 1215 1409.5 c 128,-1,17
 1279 1365 1279 1365 1323.5 1305 c 128,-1,18
 1368 1245 1368 1245 1389.5 1178.5 c 128,-1,19
 1411 1112 1411 1112 1411 1041 c 0,20,21
 1411 953 1411 953 1375.5 872.5 c 128,-1,22
 1340 792 1340 792 1273.5 727 c 128,-1,23
 1207 662 1207 662 1100 623 c 128,-1,24
 993 584 993 584 861 584 c 2,25,-1
 475 584 l 1,26,-1
 475 265 l 2,27,28
 475 250 475 250 476.5 241.5 c 128,-1,29
 478 233 478 233 483.5 222 c 128,-1,30
 489 211 489 211 503 205.5 c 128,-1,31
 517 200 517 200 539 200 c 0,32,33
 585 200 585 200 618 188 c 128,-1,34
 651 176 651 176 651 152 c 0,35,36
 651 100 651 100 640.5 52.5 c 128,-1,37
 630 5 630 5 608 -11 c 1,38,39
 465 0 465 0 361 0 c 0,40,41
 263 0 263 0 122 -11 c 1,42,43
 95 5 95 5 82 53 c 128,-1,44
 69 101 69 101 69 152 c 0,45,46
 69 176 69 176 102 188 c 128,-1,47
 135 200 135 200 181 200 c 0,48,49
 220 200 220 200 232 216.5 c 128,-1,50
 244 233 244 233 244 263 c 2,0,-1
475 753 m 1,51,-1
 861 753 l 2,52,53
 1010 753 1010 753 1095 836.5 c 128,-1,54
 1180 920 1180 920 1180 1034 c 0,55,56
 1180 1151 1180 1151 1096.5 1236.5 c 128,-1,57
 1013 1322 1013 1322 861 1322 c 2,58,-1
 475 1322 l 1,59,-1
 475 753 l 1,51,-1
EndSplineSet
EndChar

StartChar: Q
Encoding: 81 81 52
Width: 1628
GlyphClass: 2
Flags: W
LayerCount: 2
Fore
SplineSet
1028 14 m 1,0,1
 1049 -97 1049 -97 1095 -150 c 128,-1,2
 1141 -203 1141 -203 1238 -203 c 0,3,4
 1312 -203 1312 -203 1421 -172 c 1,5,6
 1426 -219 1426 -219 1426 -243 c 0,7,8
 1426 -277 1426 -277 1411 -287 c 0,9,10
 1305 -350 1305 -350 1192 -350 c 0,11,12
 1060 -350 1060 -350 971.5 -262.5 c 128,-1,13
 883 -175 883 -175 883 -11 c 1,14,-1
 1028 14 l 1,0,1
815 -27 m 128,-1,16
 668 -27 668 -27 543 16.5 c 128,-1,17
 418 60 418 60 329.5 134.5 c 128,-1,18
 241 209 241 209 178 308 c 128,-1,19
 115 407 115 407 85 518.5 c 128,-1,20
 55 630 55 630 55 747 c 128,-1,21
 55 864 55 864 85 974.5 c 128,-1,22
 115 1085 115 1085 177.5 1182.5 c 128,-1,23
 240 1280 240 1280 328.5 1353.5 c 128,-1,24
 417 1427 417 1427 542.5 1469.5 c 128,-1,25
 668 1512 668 1512 815 1512 c 128,-1,26
 962 1512 962 1512 1087.5 1469.5 c 128,-1,27
 1213 1427 1213 1427 1301.5 1353.5 c 128,-1,28
 1390 1280 1390 1280 1452.5 1182.5 c 128,-1,29
 1515 1085 1515 1085 1545 974.5 c 128,-1,30
 1575 864 1575 864 1575 747 c 128,-1,31
 1575 630 1575 630 1545 518.5 c 128,-1,32
 1515 407 1515 407 1452 308 c 128,-1,33
 1389 209 1389 209 1300.5 134.5 c 128,-1,34
 1212 60 1212 60 1087 16.5 c 128,-1,15
 962 -27 962 -27 815 -27 c 128,-1,16
815 153 m 128,-1,36
 913 153 913 153 996 186.5 c 128,-1,37
 1079 220 1079 220 1138 276.5 c 128,-1,38
 1197 333 1197 333 1238.5 408.5 c 128,-1,39
 1280 484 1280 484 1300 568.5 c 128,-1,40
 1320 653 1320 653 1320 743 c 0,41,42
 1320 856 1320 856 1287.5 960 c 128,-1,43
 1255 1064 1255 1064 1194 1148 c 128,-1,44
 1133 1232 1133 1232 1034.5 1282.5 c 128,-1,45
 936 1333 936 1333 815 1333 c 128,-1,46
 694 1333 694 1333 595.5 1282.5 c 128,-1,47
 497 1232 497 1232 436 1148 c 128,-1,48
 375 1064 375 1064 342.5 960 c 128,-1,49
 310 856 310 856 310 743 c 0,50,51
 310 653 310 653 330 568.5 c 128,-1,52
 350 484 350 484 391.5 408.5 c 128,-1,53
 433 333 433 333 492 276.5 c 128,-1,54
 551 220 551 220 634 186.5 c 128,-1,35
 717 153 717 153 815 153 c 128,-1,36
EndSplineSet
EndChar

StartChar: R
Encoding: 82 82 53
Width: 1572
GlyphClass: 2
Flags: W
LayerCount: 2
Fore
SplineSet
466 843 m 1,0,-1
 882 843 l 2,1,2
 1007 843 1007 843 1079 912 c 128,-1,3
 1151 981 1151 981 1151 1074 c 0,4,5
 1151 1175 1151 1175 1075.5 1248.5 c 128,-1,6
 1000 1322 1000 1322 862 1322 c 2,7,-1
 466 1322 l 1,8,-1
 466 843 l 1,0,-1
113 1503 m 1,9,10
 245 1490 245 1490 481 1490 c 0,11,12
 566 1490 566 1490 693.5 1498 c 128,-1,13
 821 1506 821 1506 862 1506 c 0,14,15
 988 1506 988 1506 1089.5 1469.5 c 128,-1,16
 1191 1433 1191 1433 1253.5 1372.5 c 128,-1,17
 1316 1312 1316 1312 1349 1237 c 128,-1,18
 1382 1162 1382 1162 1382 1081 c 0,19,20
 1382 1030 1382 1030 1366.5 978.5 c 128,-1,21
 1351 927 1351 927 1318 879.5 c 128,-1,22
 1285 832 1285 832 1239.5 794.5 c 128,-1,23
 1194 757 1194 757 1128.5 732.5 c 128,-1,24
 1063 708 1063 708 988 705 c 1,25,26
 1064 680 1064 680 1118 617.5 c 128,-1,27
 1172 555 1172 555 1199.5 484.5 c 128,-1,28
 1227 414 1227 414 1250.5 346.5 c 128,-1,29
 1274 279 1274 279 1307 234.5 c 128,-1,30
 1340 190 1340 190 1388 190 c 0,31,32
 1530 190 1530 190 1530 164 c 2,33,-1
 1530 127 l 2,34,35
 1530 93 1530 93 1525 72 c 128,-1,36
 1520 51 1520 51 1502 27.5 c 128,-1,37
 1484 4 1484 4 1443 -7.5 c 128,-1,38
 1402 -19 1402 -19 1337 -19 c 0,39,40
 1273 -19 1273 -19 1224.5 2.5 c 128,-1,41
 1176 24 1176 24 1144.5 60.5 c 128,-1,42
 1113 97 1113 97 1089 145 c 128,-1,43
 1065 193 1065 193 1045.5 247 c 128,-1,44
 1026 301 1026 301 1006.5 356 c 128,-1,45
 987 411 987 411 959.5 463.5 c 128,-1,46
 932 516 932 516 896.5 558.5 c 128,-1,47
 861 601 861 601 805.5 632 c 128,-1,48
 750 663 750 663 678 674 c 1,49,-1
 466 674 l 1,50,-1
 466 265 l 2,51,52
 466 250 466 250 467.5 241.5 c 128,-1,53
 469 233 469 233 474.5 222 c 128,-1,54
 480 211 480 211 494 205.5 c 128,-1,55
 508 200 508 200 530 200 c 0,56,57
 576 200 576 200 609 188 c 128,-1,58
 642 176 642 176 642 152 c 0,59,60
 642 19 642 19 609 -11 c 1,61,62
 459 0 459 0 352 0 c 0,63,64
 260 0 260 0 113 -11 c 1,65,66
 86 5 86 5 73 53 c 128,-1,67
 60 101 60 101 60 152 c 0,68,69
 60 176 60 176 93 188 c 128,-1,70
 126 200 126 200 172 200 c 0,71,72
 211 200 211 200 223 216.5 c 128,-1,73
 235 233 235 233 235 263 c 2,74,-1
 235 1229 l 2,75,76
 235 1259 235 1259 223 1275.5 c 128,-1,77
 211 1292 211 1292 172 1292 c 0,78,79
 60 1292 60 1292 60 1344 c 0,80,81
 60 1393 60 1393 73 1440.5 c 128,-1,82
 86 1488 86 1488 113 1503 c 1,9,10
EndSplineSet
EndChar

StartChar: S
Encoding: 83 83 54
Width: 1295
GlyphClass: 2
Flags: W
LayerCount: 2
Fore
SplineSet
249 -11 m 2,0,-1
 152 -11 l 1,1,2
 87 272 87 272 87 416 c 0,3,4
 87 439 87 439 132 454 c 128,-1,5
 177 469 177 469 226 469 c 0,6,7
 246 469 246 469 258 466 c 1,8,9
 290 385 290 385 347 322 c 128,-1,10
 404 259 404 259 471.5 223 c 128,-1,11
 539 187 539 187 606.5 168.5 c 128,-1,12
 674 150 674 150 737 150 c 0,13,14
 852 150 852 150 924.5 201.5 c 128,-1,15
 997 253 997 253 997 353 c 0,16,17
 997 420 997 420 964.5 470.5 c 128,-1,18
 932 521 932 521 877.5 552.5 c 128,-1,19
 823 584 823 584 752.5 608 c 128,-1,20
 682 632 682 632 603.5 653 c 128,-1,21
 525 674 525 674 446.5 697 c 128,-1,22
 368 720 368 720 297.5 755 c 128,-1,23
 227 790 227 790 172.5 836.5 c 128,-1,24
 118 883 118 883 85.5 957 c 128,-1,25
 53 1031 53 1031 53 1127 c 0,26,27
 53 1250 53 1250 129 1339.5 c 128,-1,28
 205 1429 205 1429 320.5 1470.5 c 128,-1,29
 436 1512 436 1512 572 1512 c 0,30,31
 784 1512 784 1512 932 1406 c 1,32,33
 942 1426 942 1426 947.5 1445 c 128,-1,34
 953 1464 953 1464 953 1471 c 128,-1,35
 953 1478 953 1478 961.5 1484 c 128,-1,36
 970 1490 970 1490 983 1490.5 c 128,-1,37
 996 1491 996 1491 1030 1491 c 0,38,39
 1060 1491 1060 1491 1125 1486 c 1,40,41
 1188 1207 1188 1207 1188 1089 c 0,42,43
 1188 1073 1188 1073 1135.5 1063 c 128,-1,44
 1083 1053 1083 1053 1033 1053 c 2,45,-1
 1008 1053 l 1,46,47
 971 1184 971 1184 861 1268.5 c 128,-1,48
 751 1353 751 1353 584 1353 c 0,49,50
 443 1353 443 1353 372 1297 c 128,-1,51
 301 1241 301 1241 301 1144 c 0,52,53
 301 1087 301 1087 333.5 1043 c 128,-1,54
 366 999 366 999 421 970.5 c 128,-1,55
 476 942 476 942 547 919 c 128,-1,56
 618 896 618 896 697 874 c 128,-1,57
 776 852 776 852 855 827 c 128,-1,58
 934 802 934 802 1005 765 c 128,-1,59
 1076 728 1076 728 1131 680 c 128,-1,60
 1186 632 1186 632 1218.5 557.5 c 128,-1,61
 1251 483 1251 483 1251 389 c 0,62,63
 1251 282 1251 282 1209 199.5 c 128,-1,64
 1167 117 1167 117 1094.5 69 c 128,-1,65
 1022 21 1022 21 932.5 -3 c 128,-1,66
 843 -27 843 -27 740 -27 c 0,67,68
 630 -27 630 -27 521.5 10 c 128,-1,69
 413 47 413 47 325 113 c 1,70,-1
 308 14 l 2,71,72
 306 5 306 5 302.5 0.5 c 128,-1,73
 299 -4 299 -4 286 -7.5 c 128,-1,74
 273 -11 273 -11 249 -11 c 2,0,-1
EndSplineSet
EndChar

StartChar: T
Encoding: 84 84 55
Width: 1326
GlyphClass: 2
Flags: W
LayerCount: 2
Fore
SplineSet
547 263 m 2,0,-1
 547 1296 l 2,1,2
 547 1307 547 1307 546 1313 c 128,-1,3
 545 1319 545 1319 539.5 1325 c 128,-1,4
 534 1331 534 1331 523 1331 c 0,5,6
 476 1331 476 1331 386.5 1331.5 c 128,-1,7
 297 1332 297 1332 258 1332 c 1,8,9
 249 1312 249 1312 228.5 1232.5 c 128,-1,10
 208 1153 208 1153 187 1093 c 128,-1,11
 166 1033 166 1033 149 1033 c 0,12,13
 111 1033 111 1033 81.5 1043 c 128,-1,14
 52 1053 52 1053 36.5 1067.5 c 128,-1,15
 21 1082 21 1082 13.5 1094.5 c 128,-1,16
 6 1107 6 1107 6 1114 c 0,17,18
 6 1148 6 1148 43 1320 c 128,-1,19
 80 1492 80 1492 94 1506 c 1,20,21
 97 1506 97 1506 100 1505.5 c 128,-1,22
 103 1505 103 1505 106 1505 c 0,23,24
 403 1480 403 1480 663 1480 c 0,25,26
 922 1480 922 1480 1219 1505 c 0,27,28
 1222 1505 1222 1505 1225 1505.5 c 128,-1,29
 1228 1506 1228 1506 1231 1506 c 1,30,31
 1245 1492 1245 1492 1282 1320 c 128,-1,32
 1319 1148 1319 1148 1319 1114 c 0,33,34
 1319 1107 1319 1107 1311.5 1094.5 c 128,-1,35
 1304 1082 1304 1082 1288.5 1067.5 c 128,-1,36
 1273 1053 1273 1053 1243.5 1043 c 128,-1,37
 1214 1033 1214 1033 1176 1033 c 0,38,39
 1159 1033 1159 1033 1138 1093 c 128,-1,40
 1117 1153 1117 1153 1096.5 1232.5 c 128,-1,41
 1076 1312 1076 1312 1067 1332 c 1,42,43
 1028 1332 1028 1332 938.5 1331.5 c 128,-1,44
 849 1331 849 1331 802 1331 c 0,45,46
 786 1331 786 1331 782 1322 c 128,-1,47
 778 1313 778 1313 778 1296 c 2,48,-1
 778 265 l 2,49,50
 778 250 778 250 779.5 241.5 c 128,-1,51
 781 233 781 233 786.5 222 c 128,-1,52
 792 211 792 211 806 205.5 c 128,-1,53
 820 200 820 200 842 200 c 0,54,55
 888 200 888 200 921 188 c 128,-1,56
 954 176 954 176 954 152 c 0,57,58
 954 19 954 19 921 -11 c 1,59,60
 771 0 771 0 664 0 c 0,61,62
 559 0 559 0 405 -11 c 1,63,64
 372 19 372 19 372 152 c 0,65,66
 372 176 372 176 405 188 c 128,-1,67
 438 200 438 200 484 200 c 0,68,69
 523 200 523 200 535 216.5 c 128,-1,70
 547 233 547 233 547 263 c 2,0,-1
EndSplineSet
EndChar

StartChar: U
Encoding: 85 85 56
Width: 1846
GlyphClass: 2
Flags: W
LayerCount: 2
Fore
SplineSet
918 153 m 128,-1,1
 1026 153 1026 153 1114 183.5 c 128,-1,2
 1202 214 1202 214 1256.5 265.5 c 128,-1,3
 1311 317 1311 317 1340 380.5 c 128,-1,4
 1369 444 1369 444 1369 513 c 2,5,-1
 1369 1227 l 2,6,7
 1369 1257 1369 1257 1357 1273.5 c 128,-1,8
 1345 1290 1345 1290 1306 1290 c 0,9,10
 1260 1290 1260 1290 1227 1302 c 128,-1,11
 1194 1314 1194 1314 1194 1338 c 0,12,13
 1194 1389 1194 1389 1207 1435.5 c 128,-1,14
 1220 1482 1220 1482 1247 1498 c 1,15,16
 1349 1490 1349 1490 1486 1490 c 0,17,18
 1629 1490 1629 1490 1733 1498 c 1,19,20
 1776 1468 1776 1468 1776 1338 c 0,21,22
 1776 1314 1776 1314 1743 1302 c 128,-1,23
 1710 1290 1710 1290 1664 1290 c 0,24,25
 1642 1290 1642 1290 1628 1284.5 c 128,-1,26
 1614 1279 1614 1279 1608.5 1268 c 128,-1,27
 1603 1257 1603 1257 1601.5 1248.5 c 128,-1,28
 1600 1240 1600 1240 1600 1225 c 2,29,-1
 1600 517 l 2,30,31
 1600 414 1600 414 1555.5 317.5 c 128,-1,32
 1511 221 1511 221 1428 143.5 c 128,-1,33
 1345 66 1345 66 1212.5 19.5 c 128,-1,34
 1080 -27 1080 -27 918 -27 c 128,-1,35
 756 -27 756 -27 623.5 19.5 c 128,-1,36
 491 66 491 66 408 143.5 c 128,-1,37
 325 221 325 221 280.5 317.5 c 128,-1,38
 236 414 236 414 236 517 c 2,39,-1
 236 1225 l 2,40,41
 236 1240 236 1240 234.5 1248.5 c 128,-1,42
 233 1257 233 1257 227.5 1268 c 128,-1,43
 222 1279 222 1279 208 1284.5 c 128,-1,44
 194 1290 194 1290 172 1290 c 0,45,46
 126 1290 126 1290 93 1302 c 128,-1,47
 60 1314 60 1314 60 1338 c 0,48,49
 60 1468 60 1468 103 1498 c 1,50,51
 207 1490 207 1490 350 1490 c 0,52,53
 487 1490 487 1490 589 1498 c 1,54,55
 616 1482 616 1482 629 1435.5 c 128,-1,56
 642 1389 642 1389 642 1338 c 0,57,58
 642 1314 642 1314 609 1302 c 128,-1,59
 576 1290 576 1290 530 1290 c 0,60,61
 491 1290 491 1290 479 1273.5 c 128,-1,62
 467 1257 467 1257 467 1227 c 2,63,-1
 467 513 l 2,64,65
 467 444 467 444 496 380.5 c 128,-1,66
 525 317 525 317 579.5 265.5 c 128,-1,67
 634 214 634 214 722 183.5 c 128,-1,0
 810 153 810 153 918 153 c 128,-1,1
EndSplineSet
EndChar

StartChar: V
Encoding: 86 86 57
Width: 1640
GlyphClass: 2
Flags: W
LayerCount: 2
Fore
SplineSet
464 1232 m 0,0,1
 717 515 717 515 821 249 c 1,2,3
 930 519 930 519 1185 1232 c 1,4,5
 1194 1245 1194 1245 1194 1269 c 0,6,7
 1194 1289 1194 1289 1158 1294 c 128,-1,8
 1122 1299 1122 1299 1086 1306 c 128,-1,9
 1050 1313 1050 1313 1050 1337 c 1,10,11
 1062 1471 1062 1471 1077 1505 c 1,12,13
 1183 1497 1183 1497 1334 1497 c 0,14,15
 1491 1497 1491 1497 1614 1505 c 1,16,17
 1631 1494 1631 1494 1631 1459 c 0,18,19
 1631 1415 1631 1415 1615 1345 c 1,20,21
 1607 1321 1607 1321 1573 1309 c 128,-1,22
 1539 1297 1539 1297 1497 1297 c 0,23,24
 1459 1297 1459 1297 1440.5 1280.5 c 128,-1,25
 1422 1264 1422 1264 1410 1234 c 2,26,-1
 1018 243 l 2,27,28
 1005 210 1005 210 990 171 c 128,-1,29
 975 132 975 132 968 112.5 c 128,-1,30
 961 93 961 93 950.5 69.5 c 128,-1,31
 940 46 940 46 935 36.5 c 128,-1,32
 930 27 930 27 918.5 15 c 128,-1,33
 907 3 907 3 899.5 0 c 128,-1,34
 892 -3 892 -3 875.5 -6.5 c 128,-1,35
 859 -10 859 -10 844 -10.5 c 128,-1,36
 829 -11 829 -11 802 -11 c 0,37,38
 768 -11 768 -11 750.5 -10.5 c 128,-1,39
 733 -10 733 -10 714.5 -2 c 128,-1,40
 696 6 696 6 689.5 12 c 128,-1,41
 683 18 683 18 669.5 43 c 128,-1,42
 656 68 656 68 650 87 c 128,-1,43
 644 106 644 106 626 155.5 c 128,-1,44
 608 205 608 205 593 245 c 2,45,-1
 215 1234 l 2,46,47
 203 1264 203 1264 185 1280.5 c 128,-1,48
 167 1297 167 1297 128 1297 c 0,49,50
 86 1297 86 1297 51 1309 c 128,-1,51
 16 1321 16 1321 8 1345 c 1,52,53
 12 1415 12 1415 12 1459 c 0,54,55
 12 1494 12 1494 29 1505 c 1,56,57
 147 1497 147 1497 301 1497 c 128,-1,58
 455 1497 455 1497 570 1505 c 1,59,60
 588 1465 588 1465 597 1337 c 1,61,62
 597 1313 597 1313 561.5 1306 c 128,-1,63
 526 1299 526 1299 490.5 1294 c 128,-1,64
 455 1289 455 1289 455 1269 c 0,65,66
 455 1255 455 1255 464 1232 c 0,0,1
EndSplineSet
EndChar

StartChar: W
Encoding: 87 87 58
Width: 2333
GlyphClass: 2
Flags: W
LayerCount: 2
Fore
SplineSet
464 1232 m 1,0,1
 675 481 675 481 741 282 c 1,2,3
 767 361 767 361 884 764.5 c 128,-1,4
 1001 1168 1001 1168 1015 1223 c 1,5,6
 1031 1269 1031 1269 1035 1316 c 128,-1,7
 1039 1363 1039 1363 1038 1386 c 128,-1,8
 1037 1409 1037 1409 1048.5 1429 c 128,-1,9
 1060 1449 1060 1449 1094.5 1455.5 c 128,-1,10
 1129 1462 1129 1462 1201 1462 c 0,11,12
 1256 1462 1256 1462 1283 1454.5 c 128,-1,13
 1310 1447 1310 1447 1319 1426.5 c 128,-1,14
 1328 1406 1328 1406 1328 1383 c 128,-1,15
 1328 1360 1328 1360 1333.5 1315.5 c 128,-1,16
 1339 1271 1339 1271 1355 1229 c 1,17,18
 1374 1164 1374 1164 1504.5 736.5 c 128,-1,19
 1635 309 1635 309 1643 282 c 1,20,21
 1666 365 1666 365 1771.5 770 c 128,-1,22
 1877 1175 1877 1175 1880 1192 c 0,23,24
 1881 1196 1881 1196 1885.5 1214.5 c 128,-1,25
 1890 1233 1890 1233 1893 1248.5 c 128,-1,26
 1896 1264 1896 1264 1896 1269 c 0,27,28
 1896 1289 1896 1289 1860 1294 c 128,-1,29
 1824 1299 1824 1299 1788 1306 c 128,-1,30
 1752 1313 1752 1313 1752 1337 c 1,31,32
 1764 1471 1764 1471 1779 1505 c 1,33,34
 1880 1497 1880 1497 2026 1497 c 0,35,36
 2183 1497 2183 1497 2306 1505 c 1,37,38
 2323 1494 2323 1494 2323 1459 c 0,39,40
 2323 1415 2323 1415 2307 1345 c 1,41,42
 2299 1321 2299 1321 2265 1309 c 128,-1,43
 2231 1297 2231 1297 2189 1297 c 0,44,45
 2151 1297 2151 1297 2132.5 1280.5 c 128,-1,46
 2114 1264 2114 1264 2102 1234 c 1,47,-1
 1840 243 l 2,48,49
 1826 189 1826 189 1818 159 c 128,-1,50
 1810 129 1810 129 1798 97 c 128,-1,51
 1786 65 1786 65 1780 51 c 128,-1,52
 1774 37 1774 37 1759.5 21.5 c 128,-1,53
 1745 6 1745 6 1737.5 2 c 128,-1,54
 1730 -2 1730 -2 1708 -6.5 c 128,-1,55
 1686 -11 1686 -11 1671.5 -11 c 128,-1,56
 1657 -11 1657 -11 1624 -11 c 0,57,58
 1594 -11 1594 -11 1579.5 -11 c 128,-1,59
 1565 -11 1565 -11 1545.5 -6 c 128,-1,60
 1526 -1 1526 -1 1519 1 c 128,-1,61
 1512 3 1512 3 1499 18.5 c 128,-1,62
 1486 34 1486 34 1481.5 43 c 128,-1,63
 1477 52 1477 52 1465.5 82.5 c 128,-1,64
 1454 113 1454 113 1448 133.5 c 128,-1,65
 1442 154 1442 154 1427 204 c 2,66,-1
 1169 1080 l 1,67,-1
 911 193 l 2,68,69
 894 136 894 136 885 107 c 128,-1,70
 876 78 876 78 862 51 c 128,-1,71
 848 24 848 24 839.5 14.5 c 128,-1,72
 831 5 831 5 808.5 -2.5 c 128,-1,73
 786 -10 786 -10 769 -10.5 c 128,-1,74
 752 -11 752 -11 712 -11 c 0,75,76
 685 -11 685 -11 671 -11 c 128,-1,77
 657 -11 657 -11 640 -6.5 c 128,-1,78
 623 -2 623 -2 615.5 0.5 c 128,-1,79
 608 3 608 3 596.5 17 c 128,-1,80
 585 31 585 31 580.5 39.5 c 128,-1,81
 576 48 576 48 565.5 75.5 c 128,-1,82
 555 103 555 103 549.5 122 c 128,-1,83
 544 141 544 141 531 186 c 1,84,85
 527 196 527 196 521.5 217.5 c 128,-1,86
 516 239 516 239 513 248 c 2,87,-1
 215 1234 l 1,88,89
 202 1265 202 1265 184 1281 c 128,-1,90
 166 1297 166 1297 128 1297 c 0,91,92
 86 1297 86 1297 51 1309 c 128,-1,93
 16 1321 16 1321 8 1345 c 1,94,95
 9 1358 9 1358 9 1389.5 c 128,-1,96
 9 1421 9 1421 10 1440 c 128,-1,97
 11 1459 11 1459 15.5 1479 c 128,-1,98
 20 1499 20 1499 29 1505 c 1,99,100
 147 1497 147 1497 301 1497 c 128,-1,101
 455 1497 455 1497 570 1505 c 1,102,103
 588 1465 588 1465 597 1337 c 1,104,105
 597 1313 597 1313 561.5 1306 c 128,-1,106
 526 1299 526 1299 490.5 1294 c 128,-1,107
 455 1289 455 1289 455 1269 c 0,108,109
 455 1255 455 1255 464 1232 c 1,0,1
EndSplineSet
EndChar

StartChar: X
Encoding: 88 88 59
Width: 1508
GlyphClass: 2
Flags: W
LayerCount: 2
Fore
SplineSet
1024 265 m 0,0,1
 1012 282 1012 282 941 371.5 c 128,-1,2
 870 461 870 461 805 542 c 2,3,-1
 740 623 l 1,4,5
 609 462 609 462 453 265 c 1,6,7
 444 252 444 252 444 228 c 0,8,9
 444 208 444 208 477.5 203 c 128,-1,10
 511 198 511 198 544.5 191 c 128,-1,11
 578 184 578 184 578 160 c 1,12,13
 566 22 566 22 551 -11 c 1,14,15
 399 0 399 0 294 0 c 0,16,17
 187 0 187 0 24 -11 c 1,18,19
 7 0 7 0 7 38 c 0,20,21
 7 82 7 82 23 152 c 0,22,23
 29 176 29 176 54.5 188 c 128,-1,24
 80 200 80 200 111 200 c 0,25,26
 140 200 140 200 161 207.5 c 128,-1,27
 182 215 182 215 191.5 223 c 128,-1,28
 201 231 201 231 216 248 c 2,29,-1
 640 745 l 1,30,-1
 224 1234 l 2,31,32
 171 1297 171 1297 87 1297 c 0,33,34
 56 1297 56 1297 40 1308 c 128,-1,35
 24 1319 24 1319 17 1345 c 1,36,37
 21 1415 21 1415 21 1459 c 0,38,39
 21 1494 21 1494 38 1505 c 1,40,41
 166 1497 166 1497 330 1497 c 0,42,43
 479 1497 479 1497 589 1505 c 1,44,45
 598 1486 598 1486 607 1432 c 128,-1,46
 616 1378 616 1378 616 1337 c 0,47,48
 616 1313 616 1313 579 1306.5 c 128,-1,49
 542 1300 542 1300 505 1295.5 c 128,-1,50
 468 1291 468 1291 468 1271 c 0,51,52
 468 1252 468 1252 483 1232 c 0,53,54
 496 1214 496 1214 566.5 1127 c 128,-1,55
 637 1040 637 1040 702 962 c 1,56,-1
 766 883 l 1,57,58
 897 1040 897 1040 1053 1231 c 0,59,60
 1062 1243 1062 1243 1062 1268 c 0,61,62
 1062 1288 1062 1288 1028.5 1293 c 128,-1,63
 995 1298 995 1298 961.5 1305 c 128,-1,64
 928 1312 928 1312 928 1336 c 1,65,66
 940 1470 940 1470 955 1504 c 1,67,68
 1056 1496 1056 1496 1192 1496 c 0,69,70
 1314 1496 1314 1496 1462 1504 c 1,71,72
 1479 1493 1479 1493 1479 1447 c 0,73,74
 1479 1376 1479 1376 1471 1344 c 0,75,76
 1465 1318 1465 1318 1445.5 1307 c 128,-1,77
 1426 1296 1426 1296 1384 1296 c 0,78,79
 1312 1296 1312 1296 1270 1248 c 1,80,-1
 865 770 l 1,81,-1
 1293 263 l 2,82,83
 1346 200 1346 200 1430 200 c 0,84,85
 1461 200 1461 200 1477 189 c 128,-1,86
 1493 178 1493 178 1500 152 c 1,87,88
 1496 82 1496 82 1496 38 c 0,89,90
 1496 0 1496 0 1479 -11 c 1,91,92
 1316 0 1316 0 1207 0 c 0,93,94
 1090 0 1090 0 918 -11 c 1,95,96
 909 8 909 8 900 63 c 128,-1,97
 891 118 891 118 891 160 c 0,98,99
 891 184 891 184 928 190.5 c 128,-1,100
 965 197 965 197 1002 201.5 c 128,-1,101
 1039 206 1039 206 1039 226 c 0,102,103
 1039 245 1039 245 1024 265 c 0,0,1
EndSplineSet
EndChar

StartChar: Y
Encoding: 89 89 60
Width: 1474
GlyphClass: 2
Flags: W
LayerCount: 2
Fore
SplineSet
853 592 m 1,0,-1
 852 265 l 2,1,2
 852 250 852 250 853.5 241.5 c 128,-1,3
 855 233 855 233 860.5 222 c 128,-1,4
 866 211 866 211 880 205.5 c 128,-1,5
 894 200 894 200 916 200 c 0,6,7
 962 200 962 200 995 188 c 128,-1,8
 1028 176 1028 176 1028 152 c 0,9,10
 1028 19 1028 19 995 -11 c 1,11,12
 845 0 845 0 738 0 c 0,13,14
 636 0 636 0 489 -11 c 1,15,16
 467 5 467 5 456.5 53 c 128,-1,17
 446 101 446 101 446 152 c 0,18,19
 446 176 446 176 479 188 c 128,-1,20
 512 200 512 200 558 200 c 0,21,22
 597 200 597 200 609 216.5 c 128,-1,23
 621 233 621 233 621 263 c 2,24,-1
 621 592 l 1,25,-1
 244 1234 l 2,26,27
 206 1297 206 1297 143 1297 c 0,28,29
 101 1297 101 1297 65 1309 c 128,-1,30
 29 1321 29 1321 15 1345 c 1,31,32
 15 1366 15 1366 13 1414 c 128,-1,33
 11 1462 11 1462 11 1481 c 128,-1,34
 11 1500 11 1500 20 1505 c 1,35,36
 146 1497 146 1497 302 1497 c 0,37,38
 456 1497 456 1497 557 1505 c 1,39,40
 560 1496 560 1496 582 1337 c 0,41,42
 582 1336 582 1336 582.5 1334 c 128,-1,43
 583 1332 583 1332 583 1331 c 0,44,45
 583 1312 583 1312 550.5 1305.5 c 128,-1,46
 518 1299 518 1299 485 1294.5 c 128,-1,47
 452 1290 452 1290 452 1274 c 0,48,49
 452 1264 452 1264 470 1232 c 2,50,-1
 714 807 l 1,51,52
 742 761 742 761 747 758 c 1,53,54
 754 760 754 760 779 807 c 1,55,56
 947 1103 947 1103 1024 1232 c 0,57,58
 1042 1262 1042 1262 1042 1274 c 0,59,60
 1042 1290 1042 1290 1009 1294.5 c 128,-1,61
 976 1299 976 1299 943.5 1305.5 c 128,-1,62
 911 1312 911 1312 911 1331 c 0,63,64
 911 1332 911 1332 911.5 1334 c 128,-1,65
 912 1336 912 1336 912 1337 c 0,66,67
 934 1496 934 1496 937 1505 c 1,68,69
 1031 1497 1031 1497 1172 1497 c 0,70,71
 1328 1497 1328 1497 1454 1505 c 1,72,73
 1463 1500 1463 1500 1463 1481 c 0,74,75
 1463 1471 1463 1471 1460 1459 c 1,76,-1
 1460 1444 l 2,77,78
 1460 1434 1460 1434 1460.5 1412 c 128,-1,79
 1461 1390 1461 1390 1461 1379 c 0,80,81
 1461 1367 1461 1367 1459 1345 c 1,82,83
 1445 1321 1445 1321 1409 1309 c 128,-1,84
 1373 1297 1373 1297 1331 1297 c 0,85,86
 1266 1297 1266 1297 1230 1234 c 2,87,-1
 853 592 l 1,0,-1
EndSplineSet
EndChar

StartChar: Z
Encoding: 90 90 61
Width: 1327
GlyphClass: 2
Flags: W
LayerCount: 2
Fore
SplineSet
118 -11 m 1,0,1
 112 -9 112 -9 97.5 26 c 128,-1,2
 83 61 83 61 70 113 c 128,-1,3
 57 165 57 165 57 205 c 0,4,5
 57 215 57 215 62 225 c 1,6,7
 154 348 154 348 174 373 c 2,8,-1
 914 1266 l 2,9,10
 940 1296 940 1296 940 1305 c 1,11,12
 940 1301 940 1301 334 1301 c 1,13,14
 328 1284 328 1284 309.5 1207 c 128,-1,15
 291 1130 291 1130 273 1072.5 c 128,-1,16
 255 1015 255 1015 243 1015 c 0,17,18
 189 1015 189 1015 130 1037.5 c 128,-1,19
 71 1060 71 1060 71 1083 c 0,20,21
 71 1092 71 1092 72 1092 c 0,22,23
 85 1178 85 1178 116 1297 c 128,-1,24
 147 1416 147 1416 181 1503 c 1,25,26
 437 1488 437 1488 821 1488 c 0,27,28
 957 1488 957 1488 1190 1503 c 1,29,30
 1206 1474 1206 1474 1210.5 1441 c 128,-1,31
 1215 1408 1215 1408 1215 1314 c 0,32,33
 1215 1305 1215 1305 1208 1288.5 c 128,-1,34
 1201 1272 1201 1272 1186 1248.5 c 128,-1,35
 1171 1225 1171 1225 1156.5 1203.5 c 128,-1,36
 1142 1182 1142 1182 1119.5 1151.5 c 128,-1,37
 1097 1121 1097 1121 1082 1101.5 c 128,-1,38
 1067 1082 1067 1082 1043.5 1051.5 c 128,-1,39
 1020 1021 1020 1021 1012 1010 c 0,40,41
 890 856 890 856 329 184 c 1,42,43
 363 191 363 191 986 191 c 1,44,45
 989 200 989 200 1014 296.5 c 128,-1,46
 1039 393 1039 393 1057.5 448 c 128,-1,47
 1076 503 1076 503 1087 503 c 0,48,49
 1144 503 1144 503 1214 483 c 128,-1,50
 1284 463 1284 463 1284 433 c 1,51,52
 1281 386 1281 386 1228 212 c 128,-1,53
 1175 38 1175 38 1150 -11 c 1,54,55
 952 0 952 0 627 0 c 0,56,57
 298 0 298 0 118 -11 c 1,0,1
EndSplineSet
EndChar

StartChar: bracketleft
Encoding: 91 91 62
Width: 623
GlyphClass: 2
Flags: W
LayerCount: 2
Fore
SplineSet
324 1255 m 2,0,-1
 324 138 l 2,1,2
 324 128 324 128 325.5 122 c 128,-1,3
 327 116 327 116 337.5 109.5 c 128,-1,4
 348 103 348 103 368 103 c 0,5,6
 457 103 457 103 503 98 c 128,-1,7
 549 93 549 93 564.5 83.5 c 128,-1,8
 580 74 580 74 580 55 c 0,9,10
 580 -74 580 -74 557 -105 c 1,11,12
 447 -98 447 -98 324 -98 c 0,13,14
 206 -98 206 -98 123 -105 c 1,15,16
 93 -105 93 -105 93 -74 c 2,17,-1
 93 1467 l 2,18,19
 93 1498 93 1498 123 1498 c 1,20,21
 202 1490 202 1490 324 1490 c 0,22,23
 456 1490 456 1490 557 1498 c 1,24,25
 580 1467 580 1467 580 1338 c 0,26,27
 580 1319 580 1319 564.5 1309.5 c 128,-1,28
 549 1300 549 1300 503 1295 c 128,-1,29
 457 1290 457 1290 368 1290 c 0,30,31
 348 1290 348 1290 337.5 1284 c 128,-1,32
 327 1278 327 1278 325.5 1272 c 128,-1,33
 324 1266 324 1266 324 1255 c 2,0,-1
EndSplineSet
EndChar

StartChar: backslash
Encoding: 92 92 63
Width: 1036
GlyphClass: 2
Flags: W
LayerCount: 2
Fore
SplineSet
990 107 m 0,0,1
 1009 73 1009 73 1009 43 c 0,2,3
 1009 2 1009 2 985.5 -22.5 c 128,-1,4
 962 -47 962 -47 923 -47 c 0,5,6
 854 -47 854 -47 815 26 c 0,7,8
 223 1115 223 1115 48 1425 c 0,9,10
 28 1459 28 1459 28 1491 c 0,11,12
 28 1528 28 1528 54 1550.5 c 128,-1,13
 80 1573 80 1573 116 1573 c 0,14,15
 188 1573 188 1573 225 1505 c 0,16,17
 256 1448 256 1448 434 1118.5 c 128,-1,18
 612 789 612 789 764 511.5 c 128,-1,19
 916 234 916 234 990 107 c 0,0,1
EndSplineSet
EndChar

StartChar: bracketright
Encoding: 93 93 64
Width: 623
GlyphClass: 2
Flags: W
LayerCount: 2
Fore
SplineSet
297 138 m 2,0,-1
 297 1255 l 2,1,2
 297 1266 297 1266 295.5 1272 c 128,-1,3
 294 1278 294 1278 283.5 1284 c 128,-1,4
 273 1290 273 1290 253 1290 c 0,5,6
 164 1290 164 1290 118 1295 c 128,-1,7
 72 1300 72 1300 56.5 1309.5 c 128,-1,8
 41 1319 41 1319 41 1338 c 0,9,10
 41 1467 41 1467 64 1498 c 1,11,12
 165 1490 165 1490 297 1490 c 0,13,14
 419 1490 419 1490 498 1498 c 1,15,16
 528 1498 528 1498 528 1467 c 2,17,-1
 528 -74 l 2,18,19
 528 -105 528 -105 498 -105 c 1,20,21
 415 -98 415 -98 297 -98 c 0,22,23
 174 -98 174 -98 64 -105 c 1,24,25
 41 -74 41 -74 41 55 c 0,26,27
 41 74 41 74 56.5 83.5 c 128,-1,28
 72 93 72 93 118 98 c 128,-1,29
 164 103 164 103 253 103 c 0,30,31
 273 103 273 103 283.5 109.5 c 128,-1,32
 294 116 294 116 295.5 122 c 128,-1,33
 297 128 297 128 297 138 c 2,0,-1
EndSplineSet
EndChar

StartChar: asciicircum
Encoding: 94 94 65
Width: 864
GlyphClass: 2
Flags: W
LayerCount: 2
Fore
SplineSet
382 1475 m 1,0,-1
 482 1475 l 1,1,2
 539 1416 539 1416 621 1321 c 128,-1,3
 703 1226 703 1226 734 1187 c 0,4,5
 746 1172 746 1172 761.5 1153 c 128,-1,6
 777 1134 777 1134 786 1123.5 c 128,-1,7
 795 1113 795 1113 804 1100.5 c 128,-1,8
 813 1088 813 1088 817 1078.5 c 128,-1,9
 821 1069 821 1069 821 1060 c 0,10,11
 821 1028 821 1028 804 1013.5 c 128,-1,12
 787 999 787 999 744 999 c 0,13,14
 711 999 711 999 688 1008.5 c 128,-1,15
 665 1018 665 1018 653.5 1030 c 128,-1,16
 642 1042 642 1042 618 1072 c 2,17,-1
 437 1303 l 1,18,-1
 256 1072 l 2,19,20
 232 1042 232 1042 220.5 1030 c 128,-1,21
 209 1018 209 1018 186 1008.5 c 128,-1,22
 163 999 163 999 130 999 c 0,23,24
 82 999 82 999 62.5 1013.5 c 128,-1,25
 43 1028 43 1028 43 1060 c 0,26,27
 43 1069 43 1069 47 1078.5 c 128,-1,28
 51 1088 51 1088 60 1100.5 c 128,-1,29
 69 1113 69 1113 78 1123.5 c 128,-1,30
 87 1134 87 1134 102.5 1153 c 128,-1,31
 118 1172 118 1172 130 1187 c 0,32,33
 163 1229 163 1229 243.5 1323 c 128,-1,34
 324 1417 324 1417 382 1475 c 1,0,-1
EndSplineSet
EndChar

StartChar: underscore
Encoding: 95 95 66
Width: 1269
GlyphClass: 2
Flags: W
LayerCount: 2
Fore
SplineSet
222 -27 m 1,0,1
 274 -26 274 -26 1047 -26 c 0,2,3
 1151 -26 1151 -26 1190 -23 c 1,4,5
 1226 -37 1226 -37 1226 -108 c 0,6,7
 1226 -203 1226 -203 1171 -203 c 1,8,9
 1166 -201 1166 -201 1109 -199.5 c 128,-1,10
 1052 -198 1052 -198 998 -198 c 2,11,-1
 944 -197 l 1,12,-1
 243 -197 l 1,13,14
 105 -201 105 -201 98 -205 c 1,15,16
 43 -205 43 -205 43 -110 c 0,17,18
 43 -39 43 -39 79 -25 c 1,19,20
 105 -27 105 -27 222 -27 c 1,0,1
EndSplineSet
EndChar

StartChar: quoteleft
Encoding: 8216 8216 67
Width: 497
GlyphClass: 2
Flags: W
LayerCount: 2
Fore
SplineSet
369 1481 m 0,0,1
 369 1455 369 1455 319.5 1385.5 c 128,-1,2
 270 1316 270 1316 270 1312 c 0,3,4
 270 1302 270 1302 288 1294 c 128,-1,5
 306 1286 306 1286 332 1276 c 128,-1,6
 358 1266 358 1266 384.5 1250.5 c 128,-1,7
 411 1235 411 1235 429 1203 c 128,-1,8
 447 1171 447 1171 447 1127 c 0,9,10
 447 1051 447 1051 394.5 1003 c 128,-1,11
 342 955 342 955 259 955 c 0,12,13
 179 955 179 955 123.5 1007.5 c 128,-1,14
 68 1060 68 1060 68 1136 c 0,15,16
 68 1223 68 1223 103.5 1310.5 c 128,-1,17
 139 1398 139 1398 198.5 1455 c 128,-1,18
 258 1512 258 1512 321 1512 c 0,19,20
 369 1512 369 1512 369 1481 c 0,0,1
EndSplineSet
EndChar

StartChar: a
Encoding: 97 97 68
Width: 1157
GlyphClass: 2
Flags: W
LayerCount: 2
Fore
SplineSet
772 136 m 1,0,1
 699 59 699 59 587.5 16 c 128,-1,2
 476 -27 476 -27 361 -27 c 0,3,4
 218 -27 218 -27 125 49 c 128,-1,5
 32 125 32 125 32 269 c 0,6,7
 32 423 32 423 181 501 c 1,8,9
 293 561 293 561 565 605 c 0,10,11
 616 614 616 614 731 631 c 1,12,13
 731 801 731 801 688 865 c 128,-1,14
 645 929 645 929 523 929 c 0,15,16
 434 929 434 929 325 889 c 128,-1,17
 216 849 216 849 151 778 c 1,18,19
 70 846 70 846 70 911 c 0,20,21
 70 967 70 967 147 1010.5 c 128,-1,22
 224 1054 224 1054 328.5 1074.5 c 128,-1,23
 433 1095 433 1095 538 1095 c 0,24,25
 637 1095 637 1095 711.5 1070.5 c 128,-1,26
 786 1046 786 1046 843 990 c 128,-1,27
 900 934 900 934 929.5 836 c 128,-1,28
 959 738 959 738 959 598 c 2,29,-1
 959 278 l 2,30,31
 959 237 959 237 965.5 216.5 c 128,-1,32
 972 196 972 196 980 191.5 c 128,-1,33
 988 187 988 187 1006 185 c 0,34,35
 1037 182 1037 182 1052 179.5 c 128,-1,36
 1067 177 1067 177 1087 172 c 128,-1,37
 1107 167 1107 167 1115.5 159 c 128,-1,38
 1124 151 1124 151 1124 139 c 0,39,40
 1124 21 1124 21 1091 -8 c 1,41,42
 1043 0 1043 0 966 0 c 0,43,44
 896 0 896 0 836 -7 c 1,45,46
 829 -2 829 -2 818.5 7 c 128,-1,47
 808 16 808 16 790 53 c 128,-1,48
 772 90 772 90 772 136 c 1,0,1
407 151 m 0,49,50
 498 151 498 151 604 201.5 c 128,-1,51
 710 252 710 252 732 293 c 1,52,-1
 732 470 l 1,53,54
 459 421 459 421 363.5 382 c 128,-1,55
 268 343 268 343 268 272 c 0,56,57
 268 151 268 151 407 151 c 0,49,50
EndSplineSet
EndChar

StartChar: b
Encoding: 98 98 69
Width: 1318
GlyphClass: 2
Flags: W
LayerCount: 2
Fore
SplineSet
423 604 m 2,0,-1
 423 343 l 1,1,2
 455 259 455 259 545 201.5 c 128,-1,3
 635 144 635 144 749 144 c 0,4,5
 870 144 870 144 958 247.5 c 128,-1,6
 1046 351 1046 351 1046 535 c 128,-1,7
 1046 719 1046 719 952 822 c 128,-1,8
 858 925 858 925 729 925 c 0,9,10
 673 925 673 925 619 904.5 c 128,-1,11
 565 884 565 884 521 845 c 128,-1,12
 477 806 477 806 450 743.5 c 128,-1,13
 423 681 423 681 423 604 c 2,0,-1
423 1348 m 2,14,-1
 423 928 l 1,15,16
 472 1008 472 1008 563.5 1051.5 c 128,-1,17
 655 1095 655 1095 750 1095 c 0,18,19
 851 1095 851 1095 945 1059 c 128,-1,20
 1039 1023 1039 1023 1114.5 955.5 c 128,-1,21
 1190 888 1190 888 1235.5 779 c 128,-1,22
 1281 670 1281 670 1281 535 c 128,-1,23
 1281 400 1281 400 1236 290.5 c 128,-1,24
 1191 181 1191 181 1115.5 113 c 128,-1,25
 1040 45 1040 45 947 9 c 128,-1,26
 854 -27 854 -27 753 -27 c 0,27,28
 528 -27 528 -27 351 141 c 1,29,-1
 251 41 l 1,30,31
 197 -7 197 -7 147 -7 c 0,32,33
 107 -7 107 -7 81 19 c 128,-1,34
 55 45 55 45 55 84 c 0,35,36
 55 144 55 144 111 196 c 2,37,-1
 196 274 l 1,38,-1
 196 1209 l 2,39,40
 196 1262 196 1262 165.5 1284 c 128,-1,41
 135 1306 135 1306 48 1310 c 1,42,43
 35 1313 35 1313 31.5 1323 c 128,-1,44
 28 1333 28 1333 28 1366 c 0,45,46
 28 1417 28 1417 39 1456 c 128,-1,47
 50 1495 50 1495 61 1501 c 1,48,49
 144 1490 144 1490 220 1490 c 0,50,51
 265 1490 265 1490 315 1495.5 c 128,-1,52
 365 1501 365 1501 368 1501 c 0,53,54
 403 1501 403 1501 413.5 1483.5 c 128,-1,55
 424 1466 424 1466 424 1403 c 0,56,57
 424 1396 424 1396 423.5 1377.5 c 128,-1,58
 423 1359 423 1359 423 1348 c 2,14,-1
EndSplineSet
EndChar

StartChar: c
Encoding: 99 99 70
Width: 1043
GlyphClass: 2
Flags: W
LayerCount: 2
Fore
SplineSet
995 828 m 0,0,1
 995 769 995 769 953.5 728 c 128,-1,2
 912 687 912 687 823 687 c 0,3,4
 802 687 802 687 797.5 696.5 c 128,-1,5
 793 706 793 706 789 747 c 2,6,-1
 774 890 l 1,7,8
 767 895 767 895 754.5 901.5 c 128,-1,9
 742 908 742 908 698.5 919.5 c 128,-1,10
 655 931 655 931 607 931 c 0,11,12
 455 931 455 931 361.5 813.5 c 128,-1,13
 268 696 268 696 268 534 c 0,14,15
 268 359 268 359 359 261 c 128,-1,16
 450 163 450 163 622 163 c 0,17,18
 702 163 702 163 796.5 197 c 128,-1,19
 891 231 891 231 951 284 c 1,20,21
 1008 217 1008 217 1008 156 c 0,22,23
 1008 106 1008 106 949 63 c 128,-1,24
 890 20 890 20 797.5 -3.5 c 128,-1,25
 705 -27 705 -27 605 -27 c 0,26,27
 489 -27 489 -27 386.5 9.5 c 128,-1,28
 284 46 284 46 205 115.5 c 128,-1,29
 126 185 126 185 80 295.5 c 128,-1,30
 34 406 34 406 34 545 c 0,31,32
 34 674 34 674 82.5 780.5 c 128,-1,33
 131 887 131 887 211 954.5 c 128,-1,34
 291 1022 291 1022 390.5 1058.5 c 128,-1,35
 490 1095 490 1095 595 1095 c 0,36,37
 702 1095 702 1095 781.5 1073.5 c 128,-1,38
 861 1052 861 1052 906.5 1014 c 128,-1,39
 952 976 952 976 973.5 929.5 c 128,-1,40
 995 883 995 883 995 828 c 0,0,1
EndSplineSet
EndChar

StartChar: d
Encoding: 100 100 71
Width: 1316
GlyphClass: 2
Flags: W
LayerCount: 2
Fore
SplineSet
892 464 m 2,0,-1
 892 725 l 1,1,2
 839 820 839 820 752 873 c 128,-1,3
 665 926 665 926 572 926 c 0,4,5
 444 926 444 926 356.5 825.5 c 128,-1,6
 269 725 269 725 269 533 c 0,7,8
 269 349 269 349 363 246 c 128,-1,9
 457 143 457 143 586 143 c 0,10,11
 642 143 642 143 696 163.5 c 128,-1,12
 750 184 750 184 794 223 c 128,-1,13
 838 262 838 262 865 324.5 c 128,-1,14
 892 387 892 387 892 464 c 2,0,-1
1119 1348 m 2,15,-1
 1119 251 l 2,16,17
 1119 237 1119 237 1121 227.5 c 128,-1,18
 1123 218 1123 218 1129.5 207.5 c 128,-1,19
 1136 197 1136 197 1151 191 c 128,-1,20
 1166 185 1166 185 1190 184 c 0,21,22
 1284 180 1284 180 1284 142 c 0,23,24
 1284 22 1284 22 1250 -8 c 1,25,26
 1195 0 1195 0 1131 0 c 0,27,28
 1041 0 1041 0 955 -8 c 1,29,30
 892 21 892 21 892 131 c 2,31,-1
 892 140 l 1,32,33
 838 60 838 60 739 16.5 c 128,-1,34
 640 -27 640 -27 535 -27 c 0,35,36
 439 -27 439 -27 351 9 c 128,-1,37
 263 45 263 45 191.5 112.5 c 128,-1,38
 120 180 120 180 77 289 c 128,-1,39
 34 398 34 398 34 533 c 128,-1,40
 34 668 34 668 79 777 c 128,-1,41
 124 886 124 886 199.5 953.5 c 128,-1,42
 275 1021 275 1021 368 1057 c 128,-1,43
 461 1093 461 1093 562 1094 c 1,44,-1
 568 1094 l 2,45,46
 765 1094 765 1094 892 947 c 1,47,-1
 892 1209 l 2,48,49
 892 1262 892 1262 861.5 1284 c 128,-1,50
 831 1306 831 1306 744 1310 c 1,51,52
 731 1313 731 1313 727.5 1323 c 128,-1,53
 724 1333 724 1333 724 1366 c 0,54,55
 724 1417 724 1417 735 1456 c 128,-1,56
 746 1495 746 1495 757 1501 c 1,57,58
 840 1490 840 1490 916 1490 c 0,59,60
 961 1490 961 1490 1011 1495.5 c 128,-1,61
 1061 1501 1061 1501 1064 1501 c 0,62,63
 1099 1501 1099 1501 1109.5 1483.5 c 128,-1,64
 1120 1466 1120 1466 1120 1403 c 0,65,66
 1120 1396 1120 1396 1119.5 1377.5 c 128,-1,67
 1119 1359 1119 1359 1119 1348 c 2,15,-1
EndSplineSet
EndChar

StartChar: e
Encoding: 101 101 72
Width: 1107
GlyphClass: 2
Flags: W
LayerCount: 2
Fore
SplineSet
1071 591 m 0,0,1
 1071 545 1071 545 1047.5 520.5 c 128,-1,2
 1024 496 1024 496 959 496 c 2,3,-1
 269 496 l 1,4,5
 273 405 273 405 301 339 c 128,-1,6
 329 273 329 273 375 235.5 c 128,-1,7
 421 198 421 198 476 180.5 c 128,-1,8
 531 163 531 163 596 163 c 0,9,10
 687 163 687 163 782 195 c 128,-1,11
 877 227 877 227 954 285 c 1,12,13
 1011 218 1011 218 1011 153 c 0,14,15
 1011 110 1011 110 954 68.5 c 128,-1,16
 897 27 897 27 800 0 c 128,-1,17
 703 -27 703 -27 598 -27 c 0,18,19
 512 -27 512 -27 434.5 -10 c 128,-1,20
 357 7 357 7 282.5 49.5 c 128,-1,21
 208 92 208 92 154 157 c 128,-1,22
 100 222 100 222 67 324 c 128,-1,23
 34 426 34 426 34 555 c 0,24,25
 34 681 34 681 82 786 c 128,-1,26
 130 891 130 891 209 957.5 c 128,-1,27
 288 1024 288 1024 385.5 1060 c 128,-1,28
 483 1096 483 1096 586 1096 c 0,29,30
 662 1096 662 1096 732 1077 c 128,-1,31
 802 1058 802 1058 864 1017.5 c 128,-1,32
 926 977 926 977 972 918.5 c 128,-1,33
 1018 860 1018 860 1044.5 776 c 128,-1,34
 1071 692 1071 692 1071 591 c 0,0,1
869 651 m 1,35,36
 860 790 860 790 781.5 862.5 c 128,-1,37
 703 935 703 935 594 935 c 0,38,39
 478 935 478 935 383.5 857.5 c 128,-1,40
 289 780 289 780 275 651 c 1,41,-1
 869 651 l 1,35,36
EndSplineSet
EndChar

StartChar: f
Encoding: 102 102 73
Width: 920
GlyphClass: 2
Flags: W
LayerCount: 2
Fore
SplineSet
456 912 m 1,0,-1
 456 251 l 2,1,2
 456 236 456 236 457.5 227.5 c 128,-1,3
 459 219 459 219 464.5 208 c 128,-1,4
 470 197 470 197 484 191.5 c 128,-1,5
 498 186 498 186 520 186 c 0,6,7
 570 186 570 186 606 174 c 128,-1,8
 642 162 642 162 642 138 c 0,9,10
 642 21 642 21 609 -8 c 1,11,12
 500 0 500 0 353 0 c 0,13,14
 175 0 175 0 87 -8 c 1,15,16
 54 22 54 22 54 138 c 0,17,18
 54 162 54 162 87 174 c 128,-1,19
 120 186 120 186 166 186 c 0,20,21
 205 186 205 186 217 202.5 c 128,-1,22
 229 219 229 219 229 249 c 2,23,-1
 229 912 l 1,24,-1
 215 912 l 1,25,26
 90 910 90 910 84 905 c 1,27,28
 34 905 34 905 34 991 c 0,29,30
 34 1056 34 1056 67 1068 c 1,31,32
 89 1066 89 1066 196 1066 c 2,33,-1
 229 1066 l 1,34,-1
 229 1121 l 2,35,36
 229 1220 229 1220 250 1296 c 128,-1,37
 271 1372 271 1372 305.5 1418.5 c 128,-1,38
 340 1465 340 1465 388 1494.5 c 128,-1,39
 436 1524 436 1524 484.5 1535 c 128,-1,40
 533 1546 533 1546 588 1546 c 0,41,42
 710 1546 710 1546 799 1481 c 128,-1,43
 888 1416 888 1416 888 1314 c 0,44,45
 888 1244 888 1244 842.5 1208 c 128,-1,46
 797 1172 797 1172 731 1172 c 0,47,48
 705 1172 705 1172 696 1180 c 128,-1,49
 687 1188 687 1188 687 1206 c 1,50,-1
 668 1375 l 1,51,52
 616 1401 616 1401 570 1401 c 0,53,54
 504 1401 504 1401 474 1350 c 128,-1,55
 444 1299 444 1299 444 1219 c 128,-1,56
 444 1139 444 1139 456 1067 c 1,57,-1
 552 1067 l 2,58,59
 648 1067 648 1067 681 1070 c 1,60,61
 714 1058 714 1058 714 993 c 0,62,63
 714 907 714 907 664 907 c 1,64,65
 661 909 661 909 630 910.5 c 128,-1,66
 599 912 599 912 569 912 c 2,67,-1
 539 912 l 1,68,-1
 456 912 l 1,0,-1
EndSplineSet
EndChar

StartChar: g
Encoding: 103 103 74
Width: 1159
GlyphClass: 2
Flags: W
LayerCount: 2
Fore
SplineSet
1096 -130 m 0,0,1
 1096 -219 1096 -219 1066 -284.5 c 128,-1,2
 1036 -350 1036 -350 987 -389.5 c 128,-1,3
 938 -429 938 -429 862.5 -453 c 128,-1,4
 787 -477 787 -477 708.5 -485.5 c 128,-1,5
 630 -494 630 -494 528 -494 c 0,6,7
 340 -494 340 -494 207.5 -451.5 c 128,-1,8
 75 -409 75 -409 75 -338 c 0,9,10
 75 -192 75 -192 157 -8 c 1,11,12
 42 31 42 31 42 154 c 0,13,14
 42 272 42 272 188 392 c 1,15,16
 114 447 114 447 76.5 523 c 128,-1,17
 39 599 39 599 39 681 c 0,18,19
 39 759 39 759 74 833.5 c 128,-1,20
 109 908 109 908 170 966 c 128,-1,21
 231 1024 231 1024 321 1059.5 c 128,-1,22
 411 1095 411 1095 514 1095 c 0,23,24
 601 1095 601 1095 661 1080 c 128,-1,25
 721 1065 721 1065 777 1031 c 1,26,27
 778 1032 778 1032 798 1054 c 128,-1,28
 818 1076 818 1076 835.5 1091 c 128,-1,29
 853 1106 853 1106 882 1126 c 128,-1,30
 911 1146 911 1146 948.5 1156.5 c 128,-1,31
 986 1167 986 1167 1027 1167 c 0,32,33
 1093 1167 1093 1167 1110 1152.5 c 128,-1,34
 1127 1138 1127 1138 1127 1095 c 2,35,-1
 1127 1078 l 2,36,37
 1127 1056 1127 1056 1126.5 1042 c 128,-1,38
 1126 1028 1126 1028 1121 1015.5 c 128,-1,39
 1116 1003 1116 1003 1112 996 c 128,-1,40
 1108 989 1108 989 1095 983 c 128,-1,41
 1082 977 1082 977 1071.5 974.5 c 128,-1,42
 1061 972 1061 972 1035.5 970 c 128,-1,43
 1010 968 1010 968 989.5 968 c 128,-1,44
 969 968 969 968 929 968 c 0,45,46
 920 968 920 968 899.5 969 c 128,-1,47
 879 970 879 970 868 970 c 1,48,49
 936 924 936 924 976 843 c 128,-1,50
 1016 762 1016 762 1016 667 c 0,51,52
 1016 508 1016 508 888.5 401 c 128,-1,53
 761 294 761 294 537 294 c 0,54,55
 487 294 487 294 440 301.5 c 128,-1,56
 393 309 393 309 354 319.5 c 128,-1,57
 315 330 315 330 314 330 c 0,58,59
 281 264 281 264 281 199 c 0,60,61
 281 168 281 168 326 155 c 128,-1,62
 371 142 371 142 443 141 c 128,-1,63
 515 140 515 140 601.5 140.5 c 128,-1,64
 688 141 688 141 775 131 c 128,-1,65
 862 121 862 121 934 97 c 128,-1,66
 1006 73 1006 73 1051 15.5 c 128,-1,67
 1096 -42 1096 -42 1096 -130 c 0,0,1
526 464 m 0,68,69
 604 464 604 464 661 482.5 c 128,-1,70
 718 501 718 501 749 533.5 c 128,-1,71
 780 566 780 566 794.5 603.5 c 128,-1,72
 809 641 809 641 809 686 c 0,73,74
 809 785 809 785 738.5 856 c 128,-1,75
 668 927 668 927 530 927 c 0,76,77
 393 927 393 927 324 857.5 c 128,-1,78
 255 788 255 788 255 687 c 0,79,80
 255 593 255 593 320.5 528.5 c 128,-1,81
 386 464 386 464 526 464 c 0,68,69
411 -43 m 1,82,83
 303 -36 303 -36 260 -25 c 1,84,85
 260 -68 260 -68 260.5 -89.5 c 128,-1,86
 261 -111 261 -111 263.5 -146.5 c 128,-1,87
 266 -182 266 -182 271.5 -201 c 128,-1,88
 277 -220 277 -220 287 -241.5 c 128,-1,89
 297 -263 297 -263 313 -274 c 128,-1,90
 329 -285 329 -285 351 -289 c 0,91,92
 477 -312 477 -312 580 -312 c 0,93,94
 664 -312 664 -312 720.5 -300.5 c 128,-1,95
 777 -289 777 -289 806.5 -267 c 128,-1,96
 836 -245 836 -245 847.5 -218.5 c 128,-1,97
 859 -192 859 -192 859 -155 c 0,98,99
 859 -43 859 -43 606 -43 c 2,100,-1
 411 -43 l 1,82,83
EndSplineSet
EndChar

StartChar: h
Encoding: 104 104 75
Width: 1341
GlyphClass: 2
Flags: W
LayerCount: 2
Fore
SplineSet
425 1348 m 2,0,-1
 425 925 l 1,1,2
 496 1000 496 1000 595 1048 c 128,-1,3
 694 1096 694 1096 807 1096 c 0,4,5
 872 1096 872 1096 926.5 1074 c 128,-1,6
 981 1052 981 1052 1026.5 1006 c 128,-1,7
 1072 960 1072 960 1098 878 c 128,-1,8
 1124 796 1124 796 1124 685 c 2,9,-1
 1124 278 l 2,10,11
 1124 183 1124 183 1174 179 c 0,12,13
 1182 178 1182 178 1196.5 177 c 128,-1,14
 1211 176 1211 176 1219.5 175 c 128,-1,15
 1228 174 1228 174 1240 172.5 c 128,-1,16
 1252 171 1252 171 1259 169.5 c 128,-1,17
 1266 168 1266 168 1275.5 165.5 c 128,-1,18
 1285 163 1285 163 1290 160 c 128,-1,19
 1295 157 1295 157 1300 153 c 128,-1,20
 1305 149 1305 149 1307 143.5 c 128,-1,21
 1309 138 1309 138 1309 131 c 0,22,23
 1309 21 1309 21 1266 -8 c 1,24,25
 1181 0 1181 0 1100 0 c 0,26,27
 1059 0 1059 0 1008 -4 c 128,-1,28
 957 -8 957 -8 931 -8 c 0,29,30
 920 -8 920 -8 913.5 -4.5 c 128,-1,31
 907 -1 907 -1 902 15 c 128,-1,32
 897 31 897 31 897 61 c 2,33,-1
 897 667 l 2,34,35
 897 797 897 797 852.5 857.5 c 128,-1,36
 808 918 808 918 735 918 c 0,37,38
 665 918 665 918 581.5 876 c 128,-1,39
 498 834 498 834 425 768 c 1,40,-1
 425 251 l 2,41,42
 425 236 425 236 426.5 227.5 c 128,-1,43
 428 219 428 219 433.5 208 c 128,-1,44
 439 197 439 197 453 191.5 c 128,-1,45
 467 186 467 186 489 186 c 0,46,47
 527 186 527 186 554 174 c 128,-1,48
 581 162 581 162 581 138 c 0,49,50
 581 21 581 21 548 -8 c 1,51,52
 454 0 454 0 317 0 c 0,53,54
 172 0 172 0 76 -8 c 1,55,56
 43 22 43 22 43 138 c 0,57,58
 43 162 43 162 70 174 c 128,-1,59
 97 186 97 186 135 186 c 0,60,61
 174 186 174 186 186 202.5 c 128,-1,62
 198 219 198 219 198 249 c 2,63,-1
 198 1209 l 2,64,65
 198 1262 198 1262 167.5 1284 c 128,-1,66
 137 1306 137 1306 50 1310 c 1,67,68
 37 1313 37 1313 33.5 1323 c 128,-1,69
 30 1333 30 1333 30 1366 c 0,70,71
 30 1417 30 1417 41 1456 c 128,-1,72
 52 1495 52 1495 63 1501 c 1,73,74
 146 1490 146 1490 222 1490 c 0,75,76
 267 1490 267 1490 317 1495.5 c 128,-1,77
 367 1501 367 1501 370 1501 c 0,78,79
 405 1501 405 1501 415.5 1483.5 c 128,-1,80
 426 1466 426 1466 426 1403 c 0,81,82
 426 1396 426 1396 425.5 1377.5 c 128,-1,83
 425 1359 425 1359 425 1348 c 2,0,-1
EndSplineSet
EndChar

StartChar: i
Encoding: 105 105 76
Width: 621
GlyphClass: 2
Flags: W
LayerCount: 2
Fore
SplineSet
268 1245 m 0,0,1
 244 1245 244 1245 219 1249.5 c 128,-1,2
 194 1254 194 1254 164.5 1266 c 128,-1,3
 135 1278 135 1278 116.5 1304 c 128,-1,4
 98 1330 98 1330 98 1366 c 0,5,6
 98 1489 98 1489 264 1489 c 0,7,8
 311 1489 311 1489 343.5 1477 c 128,-1,9
 376 1465 376 1465 391.5 1445 c 128,-1,10
 407 1425 407 1425 413 1406 c 128,-1,11
 419 1387 419 1387 419 1365 c 0,12,13
 419 1320 419 1320 391 1291 c 128,-1,14
 363 1262 363 1262 331.5 1253.5 c 128,-1,15
 300 1245 300 1245 268 1245 c 0,0,1
433 980 m 2,16,-1
 433 251 l 2,17,18
 433 236 433 236 434.5 227.5 c 128,-1,19
 436 219 436 219 441.5 208 c 128,-1,20
 447 197 447 197 461 191.5 c 128,-1,21
 475 186 475 186 497 186 c 0,22,23
 535 186 535 186 562 174 c 128,-1,24
 589 162 589 162 589 138 c 0,25,26
 589 21 589 21 556 -8 c 1,27,28
 466 0 466 0 336 0 c 0,29,30
 201 0 201 0 84 -8 c 1,31,32
 51 22 51 22 51 138 c 0,33,34
 51 162 51 162 78 174 c 128,-1,35
 105 186 105 186 143 186 c 0,36,37
 182 186 182 186 194 202.5 c 128,-1,38
 206 219 206 219 206 249 c 2,39,-1
 206 786 l 2,40,41
 206 839 206 839 175.5 861 c 128,-1,42
 145 883 145 883 58 887 c 1,43,44
 45 890 45 890 41.5 900 c 128,-1,45
 38 910 38 910 38 943 c 0,46,47
 38 994 38 994 49 1033 c 128,-1,48
 60 1072 60 1072 71 1078 c 1,49,50
 148 1067 148 1067 220 1067 c 0,51,52
 268 1067 268 1067 321 1072.5 c 128,-1,53
 374 1078 374 1078 377 1078 c 0,54,55
 412 1078 412 1078 422.5 1060.5 c 128,-1,56
 433 1043 433 1043 433 980 c 2,16,-1
EndSplineSet
EndChar

StartChar: j
Encoding: 106 106 77
Width: 705
GlyphClass: 2
Flags: W
LayerCount: 2
Fore
SplineSet
482 1245 m 0,0,1
 458 1245 458 1245 433 1249.5 c 128,-1,2
 408 1254 408 1254 378.5 1266 c 128,-1,3
 349 1278 349 1278 330.5 1304 c 128,-1,4
 312 1330 312 1330 312 1366 c 0,5,6
 312 1489 312 1489 478 1489 c 0,7,8
 525 1489 525 1489 557.5 1477 c 128,-1,9
 590 1465 590 1465 605.5 1445 c 128,-1,10
 621 1425 621 1425 627 1406 c 128,-1,11
 633 1387 633 1387 633 1365 c 0,12,13
 633 1320 633 1320 605 1291 c 128,-1,14
 577 1262 577 1262 545.5 1253.5 c 128,-1,15
 514 1245 514 1245 482 1245 c 0,0,1
647 980 m 2,16,-1
 647 154 l 2,17,18
 647 87 647 87 642.5 31.5 c 128,-1,19
 638 -24 638 -24 626 -82.5 c 128,-1,20
 614 -141 614 -141 591.5 -185 c 128,-1,21
 569 -229 569 -229 536 -264.5 c 128,-1,22
 503 -300 503 -300 453 -319 c 128,-1,23
 403 -338 403 -338 339 -338 c 0,24,25
 288 -338 288 -338 237.5 -327.5 c 128,-1,26
 187 -317 187 -317 137.5 -294.5 c 128,-1,27
 88 -272 88 -272 57.5 -229.5 c 128,-1,28
 27 -187 27 -187 27 -131 c 0,29,30
 27 -90 27 -90 61 -65.5 c 128,-1,31
 95 -41 95 -41 140 -41 c 0,32,33
 176 -41 176 -41 197 -53 c 128,-1,34
 218 -65 218 -65 227 -82 c 128,-1,35
 236 -99 236 -99 244 -116 c 128,-1,36
 252 -133 252 -133 270.5 -145 c 128,-1,37
 289 -157 289 -157 322 -157 c 0,38,39
 354 -157 354 -157 374.5 -140.5 c 128,-1,40
 395 -124 395 -124 404.5 -89.5 c 128,-1,41
 414 -55 414 -55 417 -18.5 c 128,-1,42
 420 18 420 18 420 75 c 2,43,-1
 420 786 l 2,44,45
 420 839 420 839 387.5 861 c 128,-1,46
 355 883 355 883 262 887 c 1,47,48
 249 890 249 890 245.5 900 c 128,-1,49
 242 910 242 910 242 943 c 0,50,51
 242 993 242 993 253.5 1032.5 c 128,-1,52
 265 1072 265 1072 275 1078 c 1,53,54
 368 1067 368 1067 454 1067 c 0,55,56
 496 1067 496 1067 542 1072.5 c 128,-1,57
 588 1078 588 1078 591 1078 c 0,58,59
 626 1078 626 1078 636.5 1060.5 c 128,-1,60
 647 1043 647 1043 647 980 c 2,16,-1
EndSplineSet
EndChar

StartChar: k
Encoding: 107 107 78
Width: 1301
GlyphClass: 2
Flags: W
LayerCount: 2
Fore
SplineSet
425 1348 m 2,0,-1
 425 669 l 1,1,-1
 741 857 l 1,2,3
 792 894 792 894 794 898 c 0,4,5
 795 899 795 899 795 902 c 0,6,7
 795 907 795 907 783.5 908.5 c 128,-1,8
 772 910 772 910 757.5 911 c 128,-1,9
 743 912 743 912 731.5 926.5 c 128,-1,10
 720 941 720 941 720 970 c 0,11,12
 720 1051 720 1051 747 1080 c 1,13,14
 814 1067 814 1067 980 1067 c 0,15,16
 1101 1067 1101 1067 1182 1080 c 1,17,18
 1214 1066 1214 1066 1214 960 c 0,19,20
 1214 923 1214 923 1207 908 c 128,-1,21
 1200 893 1200 893 1180 887 c 128,-1,22
 1160 881 1160 881 1134.5 877.5 c 128,-1,23
 1109 874 1109 874 1061.5 855 c 128,-1,24
 1014 836 1014 836 963 801 c 1,25,-1
 721 643 l 1,26,27
 976 325 976 325 1011 276 c 0,28,29
 1021 262 1021 262 1036.5 239.5 c 128,-1,30
 1052 217 1052 217 1056.5 212 c 128,-1,31
 1061 207 1061 207 1074 198 c 128,-1,32
 1087 189 1087 189 1101 187.5 c 128,-1,33
 1115 186 1115 186 1141 186 c 0,34,35
 1266 186 1266 186 1266 138 c 0,36,37
 1266 22 1266 22 1233 -8 c 1,38,39
 1140 0 1140 0 1018 0 c 0,40,41
 920 0 920 0 788 -8 c 1,42,43
 784 12 784 12 776.5 45.5 c 128,-1,44
 769 79 769 79 765.5 100.5 c 128,-1,45
 762 122 762 122 762 137 c 0,46,47
 762 174 762 174 848 182 c 1,48,49
 833 206 833 206 798 253 c 128,-1,50
 763 300 763 300 687 399.5 c 128,-1,51
 611 499 611 499 567 557 c 1,52,-1
 425 469 l 1,53,-1
 425 251 l 2,54,55
 425 236 425 236 426.5 227.5 c 128,-1,56
 428 219 428 219 433.5 208 c 128,-1,57
 439 197 439 197 453 191.5 c 128,-1,58
 467 186 467 186 489 186 c 0,59,60
 527 186 527 186 554 174 c 128,-1,61
 581 162 581 162 581 138 c 0,62,63
 581 21 581 21 548 -8 c 1,64,65
 454 0 454 0 314 0 c 0,66,67
 164 0 164 0 76 -8 c 1,68,69
 43 22 43 22 43 138 c 0,70,71
 43 162 43 162 70 174 c 128,-1,72
 97 186 97 186 135 186 c 0,73,74
 174 186 174 186 186 202.5 c 128,-1,75
 198 219 198 219 198 249 c 2,76,-1
 198 1209 l 2,77,78
 198 1262 198 1262 167.5 1284 c 128,-1,79
 137 1306 137 1306 50 1310 c 1,80,81
 37 1313 37 1313 33.5 1323 c 128,-1,82
 30 1333 30 1333 30 1366 c 0,83,84
 30 1417 30 1417 41 1456 c 128,-1,85
 52 1495 52 1495 63 1501 c 1,86,87
 146 1490 146 1490 222 1490 c 0,88,89
 267 1490 267 1490 317 1495.5 c 128,-1,90
 367 1501 367 1501 370 1501 c 0,91,92
 405 1501 405 1501 415.5 1483.5 c 128,-1,93
 426 1466 426 1466 426 1403 c 0,94,95
 426 1396 426 1396 425.5 1377.5 c 128,-1,96
 425 1359 425 1359 425 1348 c 2,0,-1
EndSplineSet
EndChar

StartChar: l
Encoding: 108 108 79
Width: 613
GlyphClass: 2
Flags: W
LayerCount: 2
Fore
SplineSet
425 251 m 0,0,1
 425 236 425 236 426.5 227.5 c 128,-1,2
 428 219 428 219 433.5 208 c 128,-1,3
 439 197 439 197 453 191.5 c 128,-1,4
 467 186 467 186 489 186 c 0,5,6
 527 186 527 186 554 174 c 128,-1,7
 581 162 581 162 581 138 c 0,8,9
 581 21 581 21 548 -8 c 1,10,11
 462 0 462 0 318 0 c 0,12,13
 164 0 164 0 76 -8 c 1,14,15
 43 22 43 22 43 138 c 0,16,17
 43 162 43 162 70 174 c 128,-1,18
 97 186 97 186 135 186 c 0,19,20
 174 186 174 186 186 202.5 c 128,-1,21
 198 219 198 219 198 249 c 2,22,-1
 198 1209 l 2,23,24
 198 1262 198 1262 167.5 1284 c 128,-1,25
 137 1306 137 1306 50 1310 c 1,26,27
 37 1313 37 1313 33.5 1323 c 128,-1,28
 30 1333 30 1333 30 1366 c 0,29,30
 30 1417 30 1417 41 1456 c 128,-1,31
 52 1495 52 1495 63 1501 c 1,32,33
 146 1490 146 1490 222 1490 c 0,34,35
 267 1490 267 1490 317 1495.5 c 128,-1,36
 367 1501 367 1501 370 1501 c 0,37,38
 405 1501 405 1501 415.5 1483.5 c 128,-1,39
 426 1466 426 1466 426 1403 c 0,40,41
 426 1401 426 1401 426 1397 c 0,42,43
 425 1256 425 1256 425 251 c 0,0,1
EndSplineSet
EndChar

StartChar: m
Encoding: 109 109 80
Width: 2029
GlyphClass: 2
Flags: W
LayerCount: 2
Fore
SplineSet
423 980 m 2,0,-1
 423 925 l 1,1,2
 495 1000 495 1000 595.5 1047.5 c 128,-1,3
 696 1095 696 1095 794 1095 c 0,4,5
 883 1095 883 1095 955.5 1051 c 128,-1,6
 1028 1007 1028 1007 1072 915 c 1,7,8
 1161 995 1161 995 1271.5 1044.5 c 128,-1,9
 1382 1094 1382 1094 1483 1094 c 0,10,11
 1619 1094 1619 1094 1704 995 c 128,-1,12
 1789 896 1789 896 1789 685 c 2,13,-1
 1789 256 l 2,14,15
 1789 191 1789 191 1840 187 c 0,16,17
 1850 186 1850 186 1867.5 185 c 128,-1,18
 1885 184 1885 184 1895 183 c 128,-1,19
 1905 182 1905 182 1920 180.5 c 128,-1,20
 1935 179 1935 179 1944 177.5 c 128,-1,21
 1953 176 1953 176 1964 173.5 c 128,-1,22
 1975 171 1975 171 1981.5 168 c 128,-1,23
 1988 165 1988 165 1994 161 c 128,-1,24
 2000 157 2000 157 2002.5 151.5 c 128,-1,25
 2005 146 2005 146 2005 139 c 0,26,27
 2005 22 2005 22 1972 -8 c 1,28,29
 1855 0 1855 0 1770 0 c 0,30,31
 1721 0 1721 0 1669 -4 c 128,-1,32
 1617 -8 1617 -8 1597 -8 c 0,33,34
 1562 -8 1562 -8 1562 69 c 2,35,-1
 1562 667 l 2,36,37
 1562 797 1562 797 1520 857.5 c 128,-1,38
 1478 918 1478 918 1410 918 c 128,-1,39
 1342 918 1342 918 1260 877.5 c 128,-1,40
 1178 837 1178 837 1106 773 c 1,41,42
 1111 728 1111 728 1111 685 c 2,43,-1
 1111 256 l 2,44,45
 1111 191 1111 191 1161 187 c 0,46,47
 1171 186 1171 186 1187.5 185 c 128,-1,48
 1204 184 1204 184 1213.5 183 c 128,-1,49
 1223 182 1223 182 1237 180.5 c 128,-1,50
 1251 179 1251 179 1259 177.5 c 128,-1,51
 1267 176 1267 176 1277.5 173.5 c 128,-1,52
 1288 171 1288 171 1294 168 c 128,-1,53
 1300 165 1300 165 1305.5 161 c 128,-1,54
 1311 157 1311 157 1313.5 151.5 c 128,-1,55
 1316 146 1316 146 1316 139 c 0,56,57
 1316 22 1316 22 1283 -8 c 1,58,59
 1187 0 1187 0 1107 0 c 0,60,61
 1057 0 1057 0 997 -4 c 128,-1,62
 937 -8 937 -8 918 -8 c 0,63,64
 884 -8 884 -8 884 69 c 2,65,-1
 884 667 l 2,66,67
 884 797 884 797 842 857.5 c 128,-1,68
 800 918 800 918 732 918 c 128,-1,69
 664 918 664 918 583 876 c 128,-1,70
 502 834 502 834 432 768 c 1,71,-1
 432 251 l 2,72,73
 432 237 432 237 434 227.5 c 128,-1,74
 436 218 436 218 442 207.5 c 128,-1,75
 448 197 448 197 462.5 191.5 c 128,-1,76
 477 186 477 186 499 186 c 0,77,78
 537 186 537 186 564 174 c 128,-1,79
 591 162 591 162 591 138 c 0,80,81
 591 21 591 21 558 -8 c 1,82,83
 460 0 460 0 316 0 c 0,84,85
 161 0 161 0 86 -8 c 1,86,87
 53 22 53 22 53 138 c 0,88,89
 53 162 53 162 80 174 c 128,-1,90
 107 186 107 186 145 186 c 0,91,92
 180 186 180 186 192.5 200 c 128,-1,93
 205 214 205 214 205 249 c 2,94,-1
 205 786 l 2,95,96
 205 839 205 839 174.5 861 c 128,-1,97
 144 883 144 883 57 887 c 1,98,99
 44 890 44 890 40.5 900 c 128,-1,100
 37 910 37 910 37 943 c 0,101,102
 37 994 37 994 48 1033 c 128,-1,103
 59 1072 59 1072 70 1078 c 1,104,105
 147 1067 147 1067 219 1067 c 0,106,107
 264 1067 264 1067 314 1072.5 c 128,-1,108
 364 1078 364 1078 367 1078 c 0,109,110
 402 1078 402 1078 412.5 1060.5 c 128,-1,111
 423 1043 423 1043 423 980 c 2,0,-1
EndSplineSet
EndChar

StartChar: n
Encoding: 110 110 81
Width: 1352
GlyphClass: 2
Flags: W
LayerCount: 2
Fore
SplineSet
1295 -8 m 1,0,1
 1198 0 1198 0 1120 0 c 0,2,3
 1069 0 1069 0 1009 -4 c 128,-1,4
 949 -8 949 -8 930 -8 c 0,5,6
 896 -8 896 -8 896 68 c 2,7,-1
 896 667 l 2,8,9
 896 797 896 797 854 857.5 c 128,-1,10
 812 918 812 918 744 918 c 0,11,12
 674 918 674 918 590.5 878.5 c 128,-1,13
 507 839 507 839 434 778 c 1,14,-1
 434 251 l 2,15,16
 434 236 434 236 435.5 227.5 c 128,-1,17
 437 219 437 219 442.5 208 c 128,-1,18
 448 197 448 197 462 191.5 c 128,-1,19
 476 186 476 186 498 186 c 0,20,21
 536 186 536 186 563 174 c 128,-1,22
 590 162 590 162 590 138 c 0,23,24
 590 21 590 21 557 -8 c 1,25,26
 496 0 496 0 328 0 c 128,-1,27
 160 0 160 0 85 -8 c 1,28,29
 52 22 52 22 52 138 c 0,30,31
 52 162 52 162 79 174 c 128,-1,32
 106 186 106 186 144 186 c 0,33,34
 183 186 183 186 195 202.5 c 128,-1,35
 207 219 207 219 207 249 c 2,36,-1
 207 786 l 2,37,38
 207 839 207 839 176.5 861 c 128,-1,39
 146 883 146 883 59 887 c 1,40,41
 46 890 46 890 42.5 900 c 128,-1,42
 39 910 39 910 39 943 c 0,43,44
 39 994 39 994 50 1033 c 128,-1,45
 61 1072 61 1072 72 1078 c 1,46,47
 138 1067 138 1067 201 1067 c 0,48,49
 246 1067 246 1067 296 1072.5 c 128,-1,50
 346 1078 346 1078 349 1078 c 0,51,52
 384 1078 384 1078 394.5 1060.5 c 128,-1,53
 405 1043 405 1043 405 980 c 0,54,55
 405 973 405 973 404.5 954.5 c 128,-1,56
 404 936 404 936 404 925 c 1,57,58
 490 1001 490 1001 599 1048 c 128,-1,59
 708 1095 708 1095 809 1095 c 0,60,61
 949 1095 949 1095 1036 996 c 128,-1,62
 1123 897 1123 897 1123 685 c 2,63,-1
 1123 255 l 2,64,65
 1123 190 1123 190 1173 186 c 0,66,67
 1183 185 1183 185 1199.5 184 c 128,-1,68
 1216 183 1216 183 1225.5 182 c 128,-1,69
 1235 181 1235 181 1249 179.5 c 128,-1,70
 1263 178 1263 178 1271 176.5 c 128,-1,71
 1279 175 1279 175 1289.5 172.5 c 128,-1,72
 1300 170 1300 170 1306 167 c 128,-1,73
 1312 164 1312 164 1317.5 160 c 128,-1,74
 1323 156 1323 156 1325.5 150.5 c 128,-1,75
 1328 145 1328 145 1328 138 c 0,76,77
 1328 22 1328 22 1295 -8 c 1,0,1
EndSplineSet
EndChar

StartChar: o
Encoding: 111 111 82
Width: 1194
GlyphClass: 2
Flags: W
LayerCount: 2
Fore
SplineSet
34 535 m 128,-1,1
 34 670 34 670 82 779 c 128,-1,2
 130 888 130 888 210 955.5 c 128,-1,3
 290 1023 290 1023 389 1059 c 128,-1,4
 488 1095 488 1095 596 1095 c 0,5,6
 703 1095 703 1095 802 1059 c 128,-1,7
 901 1023 901 1023 980.5 955.5 c 128,-1,8
 1060 888 1060 888 1108 779 c 128,-1,9
 1156 670 1156 670 1156 535 c 128,-1,10
 1156 400 1156 400 1108 290.5 c 128,-1,11
 1060 181 1060 181 980.5 113 c 128,-1,12
 901 45 901 45 802 9 c 128,-1,13
 703 -27 703 -27 596 -27 c 0,14,15
 488 -27 488 -27 389 9 c 128,-1,16
 290 45 290 45 210 113 c 128,-1,17
 130 181 130 181 82 290.5 c 128,-1,0
 34 400 34 400 34 535 c 128,-1,1
268 535 m 128,-1,19
 268 351 268 351 365 247.5 c 128,-1,20
 462 144 462 144 594 144 c 0,21,22
 657 144 657 144 715 169 c 128,-1,23
 773 194 773 194 819.5 241.5 c 128,-1,24
 866 289 866 289 894 365 c 128,-1,25
 922 441 922 441 922 535 c 128,-1,26
 922 629 922 629 894 705 c 128,-1,27
 866 781 866 781 819.5 828 c 128,-1,28
 773 875 773 875 715 900 c 128,-1,29
 657 925 657 925 594 925 c 0,30,31
 462 925 462 925 365 822 c 128,-1,18
 268 719 268 719 268 535 c 128,-1,19
EndSplineSet
EndChar

StartChar: p
Encoding: 112 112 83
Width: 1284
GlyphClass: 2
Flags: W
LayerCount: 2
Fore
SplineSet
399 584 m 2,0,-1
 399 283 l 1,1,2
 452 216 452 216 537.5 179 c 128,-1,3
 623 142 623 142 716 142 c 0,4,5
 843 142 843 142 927.5 242 c 128,-1,6
 1012 342 1012 342 1012 535 c 0,7,8
 1012 720 1012 720 920.5 822.5 c 128,-1,9
 829 925 829 925 701 925 c 0,10,11
 581 925 581 925 490 834.5 c 128,-1,12
 399 744 399 744 399 584 c 2,0,-1
399 91 m 1,13,-1
 399 -155 l 2,14,15
 399 -170 399 -170 400.5 -178.5 c 128,-1,16
 402 -187 402 -187 407.5 -198 c 128,-1,17
 413 -209 413 -209 427 -214.5 c 128,-1,18
 441 -220 441 -220 463 -220 c 0,19,20
 501 -220 501 -220 528 -232 c 128,-1,21
 555 -244 555 -244 555 -268 c 0,22,23
 555 -385 555 -385 522 -414 c 1,24,25
 455 -399 455 -399 296 -399 c 0,26,27
 125 -399 125 -399 50 -414 c 1,28,29
 17 -384 17 -384 17 -268 c 0,30,31
 17 -244 17 -244 44 -232 c 128,-1,32
 71 -220 71 -220 109 -220 c 0,33,34
 148 -220 148 -220 160 -203.5 c 128,-1,35
 172 -187 172 -187 172 -157 c 2,36,-1
 172 786 l 2,37,38
 172 839 172 839 141.5 861 c 128,-1,39
 111 883 111 883 24 887 c 1,40,41
 11 890 11 890 7.5 900 c 128,-1,42
 4 910 4 910 4 943 c 0,43,44
 4 994 4 994 15 1033 c 128,-1,45
 26 1072 26 1072 37 1078 c 1,46,47
 114 1067 114 1067 186 1067 c 0,48,49
 231 1067 231 1067 281 1072.5 c 128,-1,50
 331 1078 331 1078 334 1078 c 0,51,52
 369 1078 369 1078 379.5 1060.5 c 128,-1,53
 390 1043 390 1043 390 980 c 2,54,-1
 390 908 l 1,55,56
 442 998 442 998 537 1046.5 c 128,-1,57
 632 1095 632 1095 734 1095 c 0,58,59
 833 1095 833 1095 923.5 1059 c 128,-1,60
 1014 1023 1014 1023 1087 955.5 c 128,-1,61
 1160 888 1160 888 1203.5 779 c 128,-1,62
 1247 670 1247 670 1247 535 c 128,-1,63
 1247 400 1247 400 1203 290.5 c 128,-1,64
 1159 181 1159 181 1085.5 113 c 128,-1,65
 1012 45 1012 45 920 9 c 128,-1,66
 828 -27 828 -27 728 -27 c 0,67,68
 529 -27 529 -27 399 91 c 1,13,-1
EndSplineSet
EndChar

StartChar: q
Encoding: 113 113 84
Width: 1310
GlyphClass: 2
Flags: W
LayerCount: 2
Fore
SplineSet
891 465 m 2,0,-1
 891 736 l 1,1,2
 859 816 859 816 769.5 870.5 c 128,-1,3
 680 925 680 925 566 925 c 0,4,5
 445 925 445 925 357 821.5 c 128,-1,6
 269 718 269 718 269 534 c 128,-1,7
 269 350 269 350 363 247 c 128,-1,8
 457 144 457 144 586 144 c 0,9,10
 642 144 642 144 695.5 164.5 c 128,-1,11
 749 185 749 185 793 224 c 128,-1,12
 837 263 837 263 864 325.5 c 128,-1,13
 891 388 891 388 891 465 c 2,0,-1
891 -157 m 2,14,-1
 891 141 l 1,15,16
 842 61 842 61 751 17 c 128,-1,17
 660 -27 660 -27 565 -27 c 0,18,19
 464 -27 464 -27 370 9 c 128,-1,20
 276 45 276 45 200.5 113 c 128,-1,21
 125 181 125 181 79.5 290 c 128,-1,22
 34 399 34 399 34 534 c 128,-1,23
 34 669 34 669 79 778 c 128,-1,24
 124 887 124 887 199.5 954.5 c 128,-1,25
 275 1022 275 1022 368 1058 c 128,-1,26
 461 1094 461 1094 562 1095 c 1,27,-1
 568 1095 l 1,28,29
 790 1093 790 1093 964 928 c 1,30,-1
 1074 1023 l 1,31,32
 1123 1071 1123 1071 1178 1071 c 0,33,34
 1218 1071 1218 1071 1244 1045 c 128,-1,35
 1270 1019 1270 1019 1270 980 c 0,36,37
 1270 924 1270 924 1214 868 c 1,38,-1
 1118 785 l 1,39,-1
 1118 -155 l 2,40,41
 1118 -170 1118 -170 1119.5 -178.5 c 128,-1,42
 1121 -187 1121 -187 1126.5 -198 c 128,-1,43
 1132 -209 1132 -209 1146 -214.5 c 128,-1,44
 1160 -220 1160 -220 1182 -220 c 0,45,46
 1220 -220 1220 -220 1247 -232 c 128,-1,47
 1274 -244 1274 -244 1274 -268 c 0,48,49
 1274 -385 1274 -385 1241 -414 c 1,50,51
 1174 -399 1174 -399 1015 -399 c 0,52,53
 844 -399 844 -399 769 -414 c 1,54,55
 736 -384 736 -384 736 -268 c 0,56,57
 736 -244 736 -244 763 -232 c 128,-1,58
 790 -220 790 -220 828 -220 c 0,59,60
 867 -220 867 -220 879 -203.5 c 128,-1,61
 891 -187 891 -187 891 -157 c 2,14,-1
EndSplineSet
EndChar

StartChar: r
Encoding: 114 114 85
Width: 967
GlyphClass: 2
Flags: W
LayerCount: 2
Fore
SplineSet
403 980 m 2,0,-1
 403 915 l 1,1,2
 448 987 448 987 537 1041 c 128,-1,3
 626 1095 626 1095 707 1095 c 0,4,5
 760 1095 760 1095 808 1077.5 c 128,-1,6
 856 1060 856 1060 891.5 1015 c 128,-1,7
 927 970 927 970 927 905 c 0,8,9
 927 727 927 727 738 727 c 0,10,11
 734 727 734 727 730 728 c 128,-1,12
 726 729 726 729 723.5 731 c 128,-1,13
 721 733 721 733 719 735 c 128,-1,14
 717 737 717 737 715.5 741 c 128,-1,15
 714 745 714 745 713 748 c 128,-1,16
 712 751 712 751 711 757.5 c 128,-1,17
 710 764 710 764 709.5 768 c 128,-1,18
 709 772 709 772 708.5 779.5 c 128,-1,19
 708 787 708 787 707 792 c 2,20,-1
 695 896 l 1,21,22
 668 909 668 909 636 909 c 0,23,24
 578 909 578 909 519.5 866.5 c 128,-1,25
 461 824 461 824 433 768 c 1,26,-1
 433 262 l 2,27,28
 433 247 433 247 434.5 238.5 c 128,-1,29
 436 230 436 230 441.5 219 c 128,-1,30
 447 208 447 208 461 202.5 c 128,-1,31
 475 197 475 197 497 197 c 0,32,33
 535 197 535 197 562 185 c 128,-1,34
 589 173 589 173 589 149 c 0,35,36
 589 101 589 101 573 54 c 128,-1,37
 557 7 557 7 526 -8 c 1,38,39
 456 0 456 0 321 0 c 128,-1,40
 186 0 186 0 114 -8 c 1,41,42
 81 7 81 7 66 53.5 c 128,-1,43
 51 100 51 100 51 149 c 0,44,45
 51 173 51 173 78 185 c 128,-1,46
 105 197 105 197 143 197 c 0,47,48
 182 197 182 197 194 213.5 c 128,-1,49
 206 230 206 230 206 260 c 2,50,-1
 206 786 l 2,51,52
 206 839 206 839 175.5 861 c 128,-1,53
 145 883 145 883 58 887 c 1,54,55
 45 890 45 890 41.5 900 c 128,-1,56
 38 910 38 910 38 943 c 0,57,58
 38 994 38 994 49 1033 c 128,-1,59
 60 1072 60 1072 71 1078 c 1,60,61
 142 1067 142 1067 210 1067 c 0,62,63
 252 1067 252 1067 298.5 1072.5 c 128,-1,64
 345 1078 345 1078 348 1078 c 0,65,66
 383 1078 383 1078 393 1060.5 c 128,-1,67
 403 1043 403 1043 403 980 c 2,0,-1
EndSplineSet
EndChar

StartChar: s
Encoding: 115 115 86
Width: 978
GlyphClass: 2
Flags: W
LayerCount: 2
Fore
SplineSet
946 265 m 0,0,1
 946 164 946 164 884.5 97.5 c 128,-1,2
 823 31 823 31 722 2 c 128,-1,3
 621 -27 621 -27 483 -27 c 0,4,5
 271 -27 271 -27 151.5 34 c 128,-1,6
 32 95 32 95 32 221 c 0,7,8
 32 364 32 364 207 364 c 0,9,10
 235 364 235 364 244 353 c 128,-1,11
 253 342 253 342 253 311 c 2,12,-1
 253 175 l 1,13,14
 290 155 290 155 362.5 144 c 128,-1,15
 435 133 435 133 509 133 c 0,16,17
 597 133 597 133 654.5 169.5 c 128,-1,18
 712 206 712 206 712 270 c 0,19,20
 712 315 712 315 683 350.5 c 128,-1,21
 654 386 654 386 607 408 c 128,-1,22
 560 430 560 430 499.5 452.5 c 128,-1,23
 439 475 439 475 376.5 494 c 128,-1,24
 314 513 314 513 253.5 542 c 128,-1,25
 193 571 193 571 146 605 c 128,-1,26
 99 639 99 639 70 694 c 128,-1,27
 41 749 41 749 41 818 c 0,28,29
 41 907 41 907 107 972 c 128,-1,30
 173 1037 173 1037 268.5 1066 c 128,-1,31
 364 1095 364 1095 473 1095 c 0,32,33
 921 1095 921 1095 921 835 c 0,34,35
 921 819 921 819 915.5 801 c 128,-1,36
 910 783 910 783 894.5 759 c 128,-1,37
 879 735 879 735 842.5 719.5 c 128,-1,38
 806 704 806 704 753 704 c 0,39,40
 743 704 743 704 736.5 706 c 128,-1,41
 730 708 730 708 726.5 710.5 c 128,-1,42
 723 713 723 713 720.5 719.5 c 128,-1,43
 718 726 718 726 717.5 729 c 128,-1,44
 717 732 717 732 715.5 742.5 c 128,-1,45
 714 753 714 753 714 757 c 2,46,-1
 700 897 l 1,47,48
 686 911 686 911 613.5 928 c 128,-1,49
 541 945 541 945 489 945 c 0,50,51
 387 945 387 945 337.5 907 c 128,-1,52
 288 869 288 869 288 811 c 0,53,54
 288 769 288 769 324.5 737 c 128,-1,55
 361 705 361 705 419 682.5 c 128,-1,56
 477 660 477 660 547 638 c 128,-1,57
 617 616 617 616 687 585.5 c 128,-1,58
 757 555 757 555 815 516 c 128,-1,59
 873 477 873 477 909.5 412.5 c 128,-1,60
 946 348 946 348 946 265 c 0,0,1
EndSplineSet
EndChar

StartChar: t
Encoding: 116 116 87
Width: 818
GlyphClass: 2
Flags: W
LayerCount: 2
Fore
SplineSet
740 200 m 1,0,1
 770 143 770 143 770 93 c 0,2,3
 770 65 770 65 745.5 44.5 c 128,-1,4
 721 24 721 24 682 13 c 128,-1,5
 643 2 643 2 604 -3 c 128,-1,6
 565 -8 565 -8 528 -8 c 0,7,8
 472 -8 472 -8 424 8 c 128,-1,9
 376 24 376 24 332.5 60.5 c 128,-1,10
 289 97 289 97 264 166.5 c 128,-1,11
 239 236 239 236 239 332 c 2,12,-1
 239 912 l 1,13,-1
 196 912 l 2,14,15
 78 912 78 912 67 911 c 1,16,17
 34 923 34 923 34 988 c 0,18,19
 34 1067 34 1067 84 1067 c 2,20,-1
 239 1067 l 1,21,22
 243 1099 243 1099 246.5 1150.5 c 128,-1,23
 250 1202 250 1202 253 1232 c 128,-1,24
 256 1262 256 1262 262.5 1303 c 128,-1,25
 269 1344 269 1344 280.5 1367.5 c 128,-1,26
 292 1391 292 1391 310 1414 c 128,-1,27
 328 1437 328 1437 356.5 1447.5 c 128,-1,28
 385 1458 385 1458 424 1458 c 0,29,30
 451 1458 451 1458 466 1449 c 1,31,-1
 466 1067 l 1,32,-1
 599 1067 l 2,33,34
 718 1067 718 1067 724 1072 c 1,35,36
 774 1072 774 1072 774 986 c 0,37,38
 774 921 774 921 741 909 c 1,39,40
 708 912 708 912 612 912 c 2,41,-1
 466 912 l 1,42,-1
 466 338 l 2,43,44
 466 172 466 172 574 172 c 0,45,46
 644 172 644 172 740 200 c 1,0,1
EndSplineSet
EndChar

StartChar: u
Encoding: 117 117 88
Width: 1315
GlyphClass: 2
Flags: W
LayerCount: 2
Fore
SplineSet
1116 1006 m 2,0,-1
 1116 273 l 2,1,2
 1116 247 1116 247 1117 236 c 128,-1,3
 1118 225 1118 225 1122.5 211.5 c 128,-1,4
 1127 198 1127 198 1137.5 193.5 c 128,-1,5
 1148 189 1148 189 1166 185.5 c 128,-1,6
 1184 182 1184 182 1214 182 c 0,7,8
 1259 182 1259 182 1271.5 171 c 128,-1,9
 1284 160 1284 160 1284 126 c 0,10,11
 1284 76 1284 76 1272.5 37.5 c 128,-1,12
 1261 -1 1261 -1 1251 -8 c 1,13,14
 1178 0 1178 0 1116 0 c 0,15,16
 1075 0 1075 0 1030.5 -4 c 128,-1,17
 986 -8 986 -8 976 -8 c 0,18,19
 936 -8 936 -8 927.5 16 c 128,-1,20
 919 40 919 40 919 144 c 1,21,22
 849 63 849 63 750.5 18 c 128,-1,23
 652 -27 652 -27 550 -27 c 0,24,25
 476 -27 476 -27 411.5 -2.5 c 128,-1,26
 347 22 347 22 295 70 c 128,-1,27
 243 118 243 118 213 199 c 128,-1,28
 183 280 183 280 183 384 c 2,29,-1
 183 785 l 2,30,31
 183 880 183 880 133 884 c 0,32,33
 125 885 125 885 110.5 886 c 128,-1,34
 96 887 96 887 87.5 888 c 128,-1,35
 79 889 79 889 67 890.5 c 128,-1,36
 55 892 55 892 48 893.5 c 128,-1,37
 41 895 41 895 31.5 897.5 c 128,-1,38
 22 900 22 900 17 903 c 128,-1,39
 12 906 12 906 7 910 c 128,-1,40
 2 914 2 914 0 919.5 c 128,-1,41
 -2 925 -2 925 -2 932 c 0,42,43
 -2 1048 -2 1048 31 1078 c 1,44,45
 125 1067 125 1067 204 1067 c 0,46,47
 259 1067 259 1067 316.5 1072.5 c 128,-1,48
 374 1078 374 1078 376 1078 c 0,49,50
 410 1078 410 1078 410 1006 c 2,51,-1
 410 372 l 2,52,53
 410 262 410 262 467 207 c 128,-1,54
 524 152 524 152 613 152 c 0,55,56
 689 152 689 152 764.5 192 c 128,-1,57
 840 232 840 232 889 301 c 1,58,-1
 889 785 l 2,59,60
 889 880 889 880 839 884 c 0,61,62
 831 885 831 885 816.5 886 c 128,-1,63
 802 887 802 887 793.5 888 c 128,-1,64
 785 889 785 889 773 890.5 c 128,-1,65
 761 892 761 892 754 893.5 c 128,-1,66
 747 895 747 895 737.5 897.5 c 128,-1,67
 728 900 728 900 723 903 c 128,-1,68
 718 906 718 906 713 910 c 128,-1,69
 708 914 708 914 706 919.5 c 128,-1,70
 704 925 704 925 704 932 c 0,71,72
 704 1049 704 1049 737 1078 c 1,73,74
 831 1067 831 1067 910 1067 c 0,75,76
 976 1067 976 1067 1044.5 1072.5 c 128,-1,77
 1113 1078 1113 1078 1115 1078 c 0,78,79
 1116 1078 1116 1078 1116 1006 c 2,0,-1
EndSplineSet
EndChar

StartChar: v
Encoding: 118 118 89
Width: 1331
GlyphClass: 2
Flags: W
LayerCount: 2
Fore
SplineSet
447 825 m 2,0,-1
 674 275 l 1,1,-1
 877 823 l 2,2,3
 882 838 882 838 882 850 c 0,4,5
 882 888 882 888 836 888 c 0,6,7
 783 888 783 888 783 929 c 2,8,-1
 783 936 l 1,9,10
 795 1055 795 1055 817 1078 c 1,11,12
 910 1067 910 1067 1028 1067 c 0,13,14
 1153 1067 1153 1067 1249 1078 c 1,15,16
 1288 1059 1288 1059 1288 983 c 0,17,18
 1288 960 1288 960 1281 936 c 1,19,20
 1276 912 1276 912 1246.5 900 c 128,-1,21
 1217 888 1217 888 1180 888 c 0,22,23
 1168 888 1168 888 1158.5 886.5 c 128,-1,24
 1149 885 1149 885 1142 880.5 c 128,-1,25
 1135 876 1135 876 1130.5 873.5 c 128,-1,26
 1126 871 1126 871 1121 862.5 c 128,-1,27
 1116 854 1116 854 1114.5 851.5 c 128,-1,28
 1113 849 1113 849 1109 838 c 128,-1,29
 1105 827 1105 827 1104 825 c 2,30,-1
 864 242 l 2,31,32
 856 222 856 222 842 186.5 c 128,-1,33
 828 151 828 151 821 133.5 c 128,-1,34
 814 116 814 116 801.5 90 c 128,-1,35
 789 64 789 64 778.5 51.5 c 128,-1,36
 768 39 768 39 752.5 25 c 128,-1,37
 737 11 737 11 718.5 5.5 c 128,-1,38
 700 0 700 0 677 0 c 0,39,40
 647 0 647 0 624.5 7.5 c 128,-1,41
 602 15 602 15 588 25 c 128,-1,42
 574 35 574 35 560 59.5 c 128,-1,43
 546 84 546 84 537.5 104.5 c 128,-1,44
 529 125 529 125 512 167.5 c 128,-1,45
 495 210 495 210 481 242 c 2,46,-1
 220 827 l 2,47,48
 219 830 219 830 214 842 c 128,-1,49
 209 854 209 854 207 857.5 c 128,-1,50
 205 861 205 861 198.5 869.5 c 128,-1,51
 192 878 192 878 185.5 881 c 128,-1,52
 179 884 179 884 168.5 887 c 128,-1,53
 158 890 158 890 144 890 c 0,54,55
 107 890 107 890 77.5 902 c 128,-1,56
 48 914 48 914 43 938 c 0,57,58
 36 971 36 971 36 1000 c 0,59,60
 36 1063 36 1063 75 1078 c 1,61,62
 171 1067 171 1067 296 1067 c 0,63,64
 422 1067 422 1067 527 1078 c 1,65,66
 549 1055 549 1055 561 938 c 1,67,-1
 561 931 l 2,68,69
 561 890 561 890 498 890 c 0,70,71
 441 890 441 890 441 852 c 0,72,73
 441 838 441 838 447 825 c 2,0,-1
EndSplineSet
EndChar

StartChar: w
Encoding: 119 119 90
Width: 1831
GlyphClass: 2
Flags: W
LayerCount: 2
Fore
SplineSet
1030 242 m 2,0,-1
 890 597 l 1,1,-1
 784 242 l 1,2,3
 777 224 777 224 764.5 187 c 128,-1,4
 752 150 752 150 746 134 c 128,-1,5
 740 118 740 118 728.5 91 c 128,-1,6
 717 64 717 64 707.5 51.5 c 128,-1,7
 698 39 698 39 684 25 c 128,-1,8
 670 11 670 11 653.5 5.5 c 128,-1,9
 637 0 637 0 617 0 c 0,10,11
 594 0 594 0 576 4 c 128,-1,12
 558 8 558 8 544.5 13.5 c 128,-1,13
 531 19 531 19 518.5 32.5 c 128,-1,14
 506 46 506 46 498 57 c 128,-1,15
 490 68 490 68 479.5 91.5 c 128,-1,16
 469 115 469 115 462.5 132 c 128,-1,17
 456 149 456 149 443 183.5 c 128,-1,18
 430 218 430 218 421 242 c 2,19,-1
 187 835 l 2,20,21
 180 853 180 853 175 861.5 c 128,-1,22
 170 870 170 870 154.5 878.5 c 128,-1,23
 139 887 139 887 114 887 c 0,24,25
 87 887 87 887 66 899 c 128,-1,26
 45 911 45 911 43 935 c 1,27,28
 36 962 36 962 36 997 c 0,29,30
 36 1063 36 1063 71 1079 c 1,31,32
 143 1067 143 1067 266 1067 c 0,33,34
 401 1067 401 1067 487 1079 c 1,35,36
 509 1056 509 1056 521 935 c 1,37,-1
 521 928 l 2,38,39
 521 887 521 887 458 887 c 0,40,41
 401 887 401 887 401 852 c 0,42,43
 401 838 401 838 407 825 c 1,44,-1
 614 255 l 1,45,-1
 787 825 l 2,46,47
 792 840 792 840 792 852 c 0,48,49
 792 887 792 887 726 887 c 0,50,51
 673 887 673 887 673 928 c 2,52,-1
 673 935 l 2,53,54
 673 937 673 937 673.5 941 c 128,-1,55
 674 945 674 945 674 947 c 0,56,57
 681 1061 681 1061 687 1079 c 1,58,59
 801 1067 801 1067 918 1067 c 0,60,61
 1024 1067 1024 1067 1114 1079 c 1,62,63
 1148 1063 1148 1063 1148 997 c 0,64,65
 1148 968 1148 968 1141 935 c 1,66,67
 1138 911 1138 911 1117.5 899 c 128,-1,68
 1097 887 1097 887 1070 887 c 0,69,70
 1047 887 1047 887 1032 879.5 c 128,-1,71
 1017 872 1017 872 1011.5 864 c 128,-1,72
 1006 856 1006 856 999 840 c 1,73,74
 1044 727 1044 727 1125.5 511.5 c 128,-1,75
 1207 296 1207 296 1223 255 c 1,76,-1
 1396 825 l 2,77,78
 1401 840 1401 840 1401 852 c 0,79,80
 1401 887 1401 887 1355 887 c 0,81,82
 1302 887 1302 887 1302 928 c 2,83,-1
 1302 935 l 1,84,85
 1317 1058 1317 1058 1336 1079 c 1,86,87
 1426 1067 1426 1067 1527 1067 c 0,88,89
 1648 1067 1648 1067 1759 1079 c 1,90,91
 1787 1064 1787 1064 1787 1000 c 0,92,93
 1787 970 1787 970 1780 935 c 0,94,95
 1775 911 1775 911 1745.5 899 c 128,-1,96
 1716 887 1716 887 1679 887 c 0,97,98
 1669 887 1669 887 1660 885.5 c 128,-1,99
 1651 884 1651 884 1645 882 c 128,-1,100
 1639 880 1639 880 1633.5 875.5 c 128,-1,101
 1628 871 1628 871 1625 868.5 c 128,-1,102
 1622 866 1622 866 1618 859 c 128,-1,103
 1614 852 1614 852 1612.5 849 c 128,-1,104
 1611 846 1611 846 1607.5 837.5 c 128,-1,105
 1604 829 1604 829 1603 827 c 2,106,-1
 1393 242 l 2,107,108
 1386 224 1386 224 1373.5 187 c 128,-1,109
 1361 150 1361 150 1355 134 c 128,-1,110
 1349 118 1349 118 1337.5 91 c 128,-1,111
 1326 64 1326 64 1316.5 51.5 c 128,-1,112
 1307 39 1307 39 1293 25 c 128,-1,113
 1279 11 1279 11 1262.5 5.5 c 128,-1,114
 1246 0 1246 0 1226 0 c 0,115,116
 1196 0 1196 0 1173.5 7.5 c 128,-1,117
 1151 15 1151 15 1137 24.5 c 128,-1,118
 1123 34 1123 34 1108.5 59.5 c 128,-1,119
 1094 85 1094 85 1086 104 c 128,-1,120
 1078 123 1078 123 1060.5 167 c 128,-1,121
 1043 211 1043 211 1030 242 c 2,0,-1
EndSplineSet
EndChar

StartChar: x
Encoding: 120 120 91
Width: 1213
GlyphClass: 2
Flags: W
LayerCount: 2
Fore
SplineSet
503 825 m 2,0,-1
 623 673 l 1,1,-1
 753 825 l 2,2,3
 769 845 769 845 769 865 c 0,4,5
 769 880 769 880 756.5 886 c 128,-1,6
 744 892 744 892 728.5 892.5 c 128,-1,7
 713 893 713 893 700.5 902.5 c 128,-1,8
 688 912 688 912 688 931 c 0,9,10
 688 971 688 971 699.5 1025.5 c 128,-1,11
 711 1080 711 1080 723 1095 c 1,12,13
 806 1069 806 1069 909 1069 c 0,14,15
 1034 1069 1034 1069 1115 1095 c 1,16,17
 1154 1076 1154 1076 1154 1000 c 0,18,19
 1154 939 1154 939 1132.5 914.5 c 128,-1,20
 1111 890 1111 890 1061 890 c 0,21,22
 1031 890 1031 890 1007.5 880 c 128,-1,23
 984 870 984 870 974 860 c 128,-1,24
 964 850 964 850 949 832 c 0,25,26
 948 831 948 831 947 829.5 c 128,-1,27
 946 828 946 828 945 827 c 2,28,-1
 715 557 l 1,29,-1
 964 244 l 2,30,31
 965 243 965 243 970.5 236 c 128,-1,32
 976 229 976 229 977.5 227.5 c 128,-1,33
 979 226 979 226 985.5 219 c 128,-1,34
 992 212 992 212 995 210 c 128,-1,35
 998 208 998 208 1005.5 202.5 c 128,-1,36
 1013 197 1013 197 1018.5 194.5 c 128,-1,37
 1024 192 1024 192 1032.5 188.5 c 128,-1,38
 1041 185 1041 185 1049.5 183.5 c 128,-1,39
 1058 182 1058 182 1068.5 180.5 c 128,-1,40
 1079 179 1079 179 1091 179 c 0,41,42
 1135 179 1135 179 1155.5 158.5 c 128,-1,43
 1176 138 1176 138 1176 90 c 0,44,45
 1176 55 1176 55 1166 22 c 128,-1,46
 1156 -11 1156 -11 1140 -26 c 1,47,48
 1045 0 1045 0 937 0 c 0,49,50
 801 0 801 0 706 -26 c 1,51,52
 690 -12 690 -12 676 43 c 128,-1,53
 662 98 662 98 662 138 c 0,54,55
 662 156 662 156 676.5 165 c 128,-1,56
 691 174 691 174 709 175.5 c 128,-1,57
 727 177 727 177 741.5 182 c 128,-1,58
 756 187 756 187 756 197 c 0,59,60
 757 214 757 214 735 242 c 2,61,-1
 596 418 l 1,62,-1
 446 242 l 1,63,64
 424 214 424 214 425 197 c 0,65,66
 425 187 425 187 439.5 182 c 128,-1,67
 454 177 454 177 472 175.5 c 128,-1,68
 490 174 490 174 504.5 165 c 128,-1,69
 519 156 519 156 519 138 c 0,70,71
 519 98 519 98 505 43 c 128,-1,72
 491 -12 491 -12 475 -26 c 1,73,74
 385 0 385 0 279 0 c 128,-1,75
 173 0 173 0 78 -26 c 1,76,77
 62 -11 62 -11 52 22 c 128,-1,78
 42 55 42 55 42 90 c 0,79,80
 42 138 42 138 62.5 158.5 c 128,-1,81
 83 179 83 179 127 179 c 0,82,83
 139 179 139 179 149.5 180.5 c 128,-1,84
 160 182 160 182 168.5 183.5 c 128,-1,85
 177 185 177 185 185.5 188.5 c 128,-1,86
 194 192 194 192 199.5 194.5 c 128,-1,87
 205 197 205 197 212.5 202.5 c 128,-1,88
 220 208 220 208 223 210 c 128,-1,89
 226 212 226 212 232.5 219 c 128,-1,90
 239 226 239 226 240.5 227.5 c 128,-1,91
 242 229 242 229 247.5 236 c 128,-1,92
 253 243 253 243 254 244 c 2,93,-1
 504 535 l 1,94,-1
 273 827 l 2,95,96
 244 863 244 863 225 874 c 0,97,98
 197 890 197 890 157 890 c 0,99,100
 107 890 107 890 85.5 914.5 c 128,-1,101
 64 939 64 939 64 1000 c 0,102,103
 64 1076 64 1076 103 1095 c 1,104,105
 184 1069 184 1069 309 1069 c 0,106,107
 439 1069 439 1069 533 1095 c 1,108,109
 545 1080 545 1080 556.5 1025.5 c 128,-1,110
 568 971 568 971 568 931 c 0,111,112
 568 912 568 912 555.5 902.5 c 128,-1,113
 543 893 543 893 527.5 892.5 c 128,-1,114
 512 892 512 892 499.5 886 c 128,-1,115
 487 880 487 880 487 865 c 0,116,117
 487 845 487 845 503 825 c 2,0,-1
EndSplineSet
EndChar

StartChar: y
Encoding: 121 121 92
Width: 1380
GlyphClass: 2
Flags: W
LayerCount: 2
Fore
SplineSet
446 825 m 2,0,-1
 703 253 l 1,1,-1
 926 825 l 2,2,3
 931 840 931 840 931 852 c 0,4,5
 931 871 931 871 915.5 880 c 128,-1,6
 900 889 900 889 881.5 890 c 128,-1,7
 863 891 863 891 847.5 900.5 c 128,-1,8
 832 910 832 910 832 931 c 2,9,-1
 832 938 l 1,10,11
 847 1072 847 1072 866 1095 c 1,12,13
 964 1069 964 1069 1077 1069 c 0,14,15
 1197 1069 1197 1069 1298 1095 c 1,16,17
 1337 1077 1337 1077 1337 1000 c 0,18,19
 1337 939 1337 939 1313 914.5 c 128,-1,20
 1289 890 1289 890 1229 890 c 0,21,22
 1215 890 1215 890 1204 887 c 128,-1,23
 1193 884 1193 884 1186.5 881 c 128,-1,24
 1180 878 1180 878 1174 870 c 128,-1,25
 1168 862 1168 862 1166 857.5 c 128,-1,26
 1164 853 1164 853 1159.5 842 c 128,-1,27
 1155 831 1155 831 1153 827 c 2,28,-1
 753 -95 l 1,29,30
 694 -226 694 -226 612.5 -286.5 c 128,-1,31
 531 -347 531 -347 413 -347 c 0,32,33
 319 -347 319 -347 251 -310.5 c 128,-1,34
 183 -274 183 -274 183 -228 c 0,35,36
 183 -169 183 -169 193 -148.5 c 128,-1,37
 203 -128 203 -128 229 -128 c 0,38,39
 239 -128 239 -128 298.5 -142.5 c 128,-1,40
 358 -157 358 -157 409 -157 c 0,41,42
 432 -157 432 -157 445 -155.5 c 128,-1,43
 458 -154 458 -154 472 -145 c 128,-1,44
 486 -136 486 -136 493 -128 c 128,-1,45
 500 -120 500 -120 515 -94 c 128,-1,46
 530 -68 530 -68 540 -45.5 c 128,-1,47
 550 -23 550 -23 574.5 27.5 c 128,-1,48
 599 78 599 78 621 123 c 1,49,50
 584 123 584 123 566 129.5 c 128,-1,51
 548 136 548 136 539 157 c 2,52,-1
 219 827 l 2,53,54
 218 830 218 830 213 842 c 128,-1,55
 208 854 208 854 206 857.5 c 128,-1,56
 204 861 204 861 197.5 869.5 c 128,-1,57
 191 878 191 878 184.5 881 c 128,-1,58
 178 884 178 884 167.5 887 c 128,-1,59
 157 890 157 890 143 890 c 0,60,61
 83 890 83 890 59 914.5 c 128,-1,62
 35 939 35 939 35 1000 c 0,63,64
 35 1077 35 1077 74 1095 c 1,65,66
 165 1069 165 1069 295 1069 c 0,67,68
 427 1069 427 1069 526 1095 c 1,69,70
 545 1072 545 1072 560 938 c 1,71,-1
 560 931 l 2,72,73
 560 910 560 910 541 900 c 128,-1,74
 522 890 522 890 500 889 c 128,-1,75
 478 888 478 888 459 879.5 c 128,-1,76
 440 871 440 871 440 852 c 0,77,78
 440 836 440 836 446 825 c 2,0,-1
EndSplineSet
EndChar

StartChar: z
Encoding: 122 122 93
Width: 1009
GlyphClass: 2
Flags: W
LayerCount: 2
Fore
SplineSet
133 -12 m 0,0,1
 131 -13 131 -13 121 -13 c 0,2,3
 43 -13 43 -13 43 126 c 0,4,5
 43 160 43 160 58 190 c 128,-1,6
 73 220 73 220 109 264 c 0,7,8
 460 690 460 690 651 928 c 1,9,-1
 297 928 l 2,10,11
 278 928 278 928 256 879.5 c 128,-1,12
 234 831 234 831 220.5 782.5 c 128,-1,13
 207 734 207 734 206 734 c 0,14,15
 40 734 40 734 40 757 c 0,16,17
 40 900 40 900 100 1083 c 1,18,19
 147 1081 147 1081 238.5 1076.5 c 128,-1,20
 330 1072 330 1072 397.5 1070 c 128,-1,21
 465 1068 465 1068 534 1068 c 0,22,23
 694 1068 694 1068 889 1083 c 1,24,25
 927 1079 927 1079 939.5 1054.5 c 128,-1,26
 952 1030 952 1030 952 976 c 0,27,28
 952 953 952 953 932.5 917.5 c 128,-1,29
 913 882 913 882 891 853 c 128,-1,30
 869 824 869 824 813 754 c 2,31,-1
 450 301 l 1,32,-1
 319 143 l 1,33,-1
 672 143 l 2,34,35
 690 143 690 143 706 156.5 c 128,-1,36
 722 170 722 170 736.5 198 c 128,-1,37
 751 226 751 226 761.5 252 c 128,-1,38
 772 278 772 278 787.5 321.5 c 128,-1,39
 803 365 803 365 814 390 c 1,40,41
 818 390 818 390 827.5 390.5 c 128,-1,42
 837 391 837 391 843 391 c 0,43,44
 978 391 978 391 978 340 c 0,45,46
 978 282 978 282 947 159.5 c 128,-1,47
 916 37 916 37 895 -15 c 1,48,49
 622 0 622 0 469 0 c 0,50,51
 298 0 298 0 133 -12 c 0,0,1
EndSplineSet
EndChar

StartChar: braceleft
Encoding: 123 123 94
Width: 756
GlyphClass: 2
Flags: W
LayerCount: 2
Fore
SplineSet
92 583 m 128,-1,1
 66 583 66 583 50.5 613.5 c 128,-1,2
 35 644 35 644 35 685 c 0,3,4
 35 725 35 725 50.5 755 c 128,-1,5
 66 785 66 785 92 785 c 128,-1,6
 118 785 118 785 137 789.5 c 128,-1,7
 156 794 156 794 169.5 799.5 c 128,-1,8
 183 805 183 805 191.5 819.5 c 128,-1,9
 200 834 200 834 204.5 845 c 128,-1,10
 209 856 209 856 211 882 c 128,-1,11
 213 908 213 908 213.5 925 c 128,-1,12
 214 942 214 942 214 979 c 0,13,14
 214 1107 214 1107 231.5 1211.5 c 128,-1,15
 249 1316 249 1316 277.5 1384.5 c 128,-1,16
 306 1453 306 1453 343.5 1499.5 c 128,-1,17
 381 1546 381 1546 420 1566 c 128,-1,18
 459 1586 459 1586 499 1586 c 0,19,20
 594 1586 594 1586 661 1554.5 c 128,-1,21
 728 1523 728 1523 728 1476 c 0,22,23
 728 1434 728 1434 705 1418 c 128,-1,24
 682 1402 682 1402 642 1402 c 0,25,26
 626 1402 626 1402 597 1409 c 128,-1,27
 568 1416 568 1416 559 1416 c 0,28,29
 513 1416 513 1416 491 1389 c 128,-1,30
 469 1362 469 1362 458 1280 c 128,-1,31
 447 1198 447 1198 447 1029 c 0,32,33
 447 965 447 965 441 914.5 c 128,-1,34
 435 864 435 864 418.5 814 c 128,-1,35
 402 764 402 764 369 730.5 c 128,-1,36
 336 697 336 697 288 684 c 1,37,38
 336 671 336 671 369 637 c 128,-1,39
 402 603 402 603 418.5 553 c 128,-1,40
 435 503 435 503 441 452.5 c 128,-1,41
 447 402 447 402 447 339 c 0,42,43
 447 170 447 170 458 88 c 128,-1,44
 469 6 469 6 491 -21 c 128,-1,45
 513 -48 513 -48 559 -48 c 0,46,47
 568 -48 568 -48 597 -41.5 c 128,-1,48
 626 -35 626 -35 642 -35 c 0,49,50
 683 -35 683 -35 705.5 -50.5 c 128,-1,51
 728 -66 728 -66 728 -108 c 0,52,53
 728 -155 728 -155 661.5 -186.5 c 128,-1,54
 595 -218 595 -218 499 -218 c 0,55,56
 459 -218 459 -218 420 -198 c 128,-1,57
 381 -178 381 -178 343.5 -131.5 c 128,-1,58
 306 -85 306 -85 277.5 -16.5 c 128,-1,59
 249 52 249 52 231.5 156.5 c 128,-1,60
 214 261 214 261 214 389 c 0,61,62
 214 426 214 426 213.5 443 c 128,-1,63
 213 460 213 460 211 486 c 128,-1,64
 209 512 209 512 204.5 523 c 128,-1,65
 200 534 200 534 191.5 548.5 c 128,-1,66
 183 563 183 563 169.5 568.5 c 128,-1,67
 156 574 156 574 137 578.5 c 128,-1,0
 118 583 118 583 92 583 c 128,-1,1
EndSplineSet
EndChar

StartChar: bar
Encoding: 124 124 95
Width: 420
GlyphClass: 2
Flags: W
LayerCount: 2
Fore
SplineSet
94 -85 m 2,0,-1
 94 1568 l 2,1,2
 94 1608 94 1608 124.5 1622 c 128,-1,3
 155 1636 155 1636 229 1636 c 0,4,5
 283 1636 283 1636 304 1626.5 c 128,-1,6
 325 1617 325 1617 325 1585 c 2,7,-1
 325 -63 l 2,8,9
 325 -96 325 -96 316.5 -117 c 128,-1,10
 308 -138 308 -138 289.5 -146.5 c 128,-1,11
 271 -155 271 -155 254.5 -157.5 c 128,-1,12
 238 -160 238 -160 209 -160 c 0,13,14
 189 -160 189 -160 176.5 -159.5 c 128,-1,15
 164 -159 164 -159 146.5 -155 c 128,-1,16
 129 -151 129 -151 119 -143 c 128,-1,17
 109 -135 109 -135 101.5 -120.5 c 128,-1,18
 94 -106 94 -106 94 -85 c 2,0,-1
EndSplineSet
EndChar

StartChar: braceright
Encoding: 125 125 96
Width: 755
GlyphClass: 2
Flags: W
LayerCount: 2
Fore
SplineSet
664 583 m 128,-1,1
 638 583 638 583 619 578.5 c 128,-1,2
 600 574 600 574 586.5 568.5 c 128,-1,3
 573 563 573 563 564.5 548.5 c 128,-1,4
 556 534 556 534 551.5 523 c 128,-1,5
 547 512 547 512 545 486 c 128,-1,6
 543 460 543 460 542.5 443 c 128,-1,7
 542 426 542 426 542 389 c 0,8,9
 542 261 542 261 524.5 156.5 c 128,-1,10
 507 52 507 52 478.5 -16.5 c 128,-1,11
 450 -85 450 -85 412.5 -131.5 c 128,-1,12
 375 -178 375 -178 336 -198 c 128,-1,13
 297 -218 297 -218 257 -218 c 0,14,15
 161 -218 161 -218 94.5 -186.5 c 128,-1,16
 28 -155 28 -155 28 -108 c 0,17,18
 28 -66 28 -66 50.5 -50.5 c 128,-1,19
 73 -35 73 -35 114 -35 c 0,20,21
 130 -35 130 -35 159 -41.5 c 128,-1,22
 188 -48 188 -48 197 -48 c 0,23,24
 243 -48 243 -48 265 -21 c 128,-1,25
 287 6 287 6 298 88 c 128,-1,26
 309 170 309 170 309 339 c 0,27,28
 309 402 309 402 315 452.5 c 128,-1,29
 321 503 321 503 337.5 553 c 128,-1,30
 354 603 354 603 387 637 c 128,-1,31
 420 671 420 671 468 684 c 1,32,33
 420 697 420 697 387 730.5 c 128,-1,34
 354 764 354 764 337.5 814 c 128,-1,35
 321 864 321 864 315 914.5 c 128,-1,36
 309 965 309 965 309 1029 c 0,37,38
 309 1198 309 1198 298 1280 c 128,-1,39
 287 1362 287 1362 265 1389 c 128,-1,40
 243 1416 243 1416 197 1416 c 0,41,42
 188 1416 188 1416 159 1409 c 128,-1,43
 130 1402 130 1402 114 1402 c 0,44,45
 74 1402 74 1402 51 1418 c 128,-1,46
 28 1434 28 1434 28 1476 c 0,47,48
 28 1523 28 1523 95 1554.5 c 128,-1,49
 162 1586 162 1586 257 1586 c 0,50,51
 297 1586 297 1586 336 1566 c 128,-1,52
 375 1546 375 1546 412.5 1499.5 c 128,-1,53
 450 1453 450 1453 478.5 1384.5 c 128,-1,54
 507 1316 507 1316 524.5 1211.5 c 128,-1,55
 542 1107 542 1107 542 979 c 0,56,57
 542 942 542 942 542.5 925 c 128,-1,58
 543 908 543 908 545 882 c 128,-1,59
 547 856 547 856 551.5 845 c 128,-1,60
 556 834 556 834 564.5 819.5 c 128,-1,61
 573 805 573 805 586.5 799.5 c 128,-1,62
 600 794 600 794 619 789.5 c 128,-1,63
 638 785 638 785 664 785 c 128,-1,64
 690 785 690 785 705.5 755 c 128,-1,65
 721 725 721 725 721 685 c 0,66,67
 721 644 721 644 705.5 613.5 c 128,-1,0
 690 583 690 583 664 583 c 128,-1,1
EndSplineSet
EndChar

StartChar: asciitilde
Encoding: 126 126 97
Width: 964
GlyphClass: 2
Flags: W
LayerCount: 2
Fore
SplineSet
921 945 m 1,0,-1
 919 920 l 2,1,2
 912 831 912 831 872 777.5 c 128,-1,3
 832 724 832 724 762 724 c 0,4,5
 671 724 671 724 484 769.5 c 128,-1,6
 297 815 297 815 256 815 c 0,7,8
 233 815 233 815 223 797 c 128,-1,9
 213 779 213 779 208 739 c 1,10,11
 203 731 203 731 161 731 c 0,12,13
 125 731 125 731 84 739.5 c 128,-1,14
 43 748 43 748 43 758 c 1,15,-1
 46 786 l 2,16,17
 55 873 55 873 97 928 c 128,-1,18
 139 983 139 983 221 983 c 0,19,20
 298 983 298 983 402 959 c 128,-1,21
 506 935 506 935 591.5 911 c 128,-1,22
 677 887 677 887 710 887 c 0,23,24
 752 887 752 887 758 960 c 1,25,26
 779 963 779 963 803 963 c 0,27,28
 849 963 849 963 921 945 c 1,0,-1
EndSplineSet
EndChar

StartChar: exclamdown
Encoding: 161 161 98
Width: 440
GlyphClass: 2
Flags: W
LayerCount: 2
Fore
SplineSet
213 1071 m 0,0,1
 231 1071 231 1071 242 1069.5 c 128,-1,2
 253 1068 253 1068 261.5 1065 c 128,-1,3
 270 1062 270 1062 274 1052.5 c 128,-1,4
 278 1043 278 1043 280.5 1033.5 c 128,-1,5
 283 1024 283 1024 284 1003.5 c 128,-1,6
 285 983 285 983 285.5 963 c 128,-1,7
 286 943 286 943 287.5 906.5 c 128,-1,8
 289 870 289 870 292 835 c 0,9,10
 300 725 300 725 317.5 533.5 c 128,-1,11
 335 342 335 342 347.5 204 c 128,-1,12
 360 66 360 66 360 49 c 0,13,14
 360 7 360 7 338.5 -11 c 128,-1,15
 317 -29 317 -29 270 -29 c 2,16,-1
 154 -29 l 2,17,18
 107 -29 107 -29 85.5 -11 c 128,-1,19
 64 7 64 7 64 49 c 0,20,21
 64 66 64 66 76 203.5 c 128,-1,22
 88 341 88 341 104.5 533.5 c 128,-1,23
 121 726 121 726 129 835 c 0,24,25
 132 870 132 870 133.5 906.5 c 128,-1,26
 135 943 135 943 136 963 c 128,-1,27
 137 983 137 983 138 1004 c 128,-1,28
 139 1025 139 1025 142 1034 c 128,-1,29
 145 1043 145 1043 149.5 1052.5 c 128,-1,30
 154 1062 154 1062 163 1065 c 128,-1,31
 172 1068 172 1068 183 1069.5 c 128,-1,32
 194 1071 194 1071 213 1071 c 0,0,1
44 1350 m 0,33,34
 44 1418 44 1418 90 1465.5 c 128,-1,35
 136 1513 136 1513 225 1513 c 0,36,37
 312 1513 312 1513 356 1465 c 128,-1,38
 400 1417 400 1417 400 1350 c 0,39,40
 400 1282 400 1282 356 1234.5 c 128,-1,41
 312 1187 312 1187 225 1187 c 0,42,43
 136 1187 136 1187 90 1234 c 128,-1,44
 44 1281 44 1281 44 1350 c 0,33,34
EndSplineSet
EndChar

StartChar: cent
Encoding: 162 162 99
Width: 1063
GlyphClass: 2
Flags: W
LayerCount: 2
Fore
SplineSet
1011 798 m 0,0,1
 1011 748 1011 748 971.5 707.5 c 128,-1,2
 932 667 932 667 851 667 c 0,3,4
 810 667 810 667 800 677 c 128,-1,5
 790 687 790 687 790 727 c 2,6,-1
 790 860 l 1,7,8
 783 865 783 865 770.5 871.5 c 128,-1,9
 758 878 758 878 714.5 889.5 c 128,-1,10
 671 901 671 901 623 901 c 0,11,12
 471 901 471 901 377.5 792 c 128,-1,13
 284 683 284 683 284 534 c 0,14,15
 284 378 284 378 375 290.5 c 128,-1,16
 466 203 466 203 638 203 c 0,17,18
 718 203 718 203 812.5 237 c 128,-1,19
 907 271 907 271 967 324 c 1,20,21
 1024 258 1024 258 1024 196 c 0,22,23
 1024 142 1024 142 957 98 c 128,-1,24
 890 54 890 54 786 31 c 1,25,-1
 786 -261 l 1,26,27
 785 -264 785 -264 783.5 -277 c 128,-1,28
 782 -290 782 -290 780 -291 c 128,-1,29
 778 -292 778 -292 769.5 -297.5 c 128,-1,30
 761 -303 761 -303 744.5 -303.5 c 128,-1,31
 728 -304 728 -304 699 -304 c 0,32,33
 678 -304 678 -304 667.5 -295.5 c 128,-1,34
 657 -287 657 -287 657 -262 c 0,35,36
 657 -208 657 -208 655 14 c 1,37,38
 644 13 644 13 621 13 c 0,39,40
 602 13 602 13 566 15 c 1,41,-1
 566 -261 l 1,42,43
 565 -264 565 -264 563.5 -277 c 128,-1,44
 562 -290 562 -290 560 -291 c 128,-1,45
 558 -292 558 -292 549.5 -297.5 c 128,-1,46
 541 -303 541 -303 524.5 -303.5 c 128,-1,47
 508 -304 508 -304 479 -304 c 0,48,49
 458 -304 458 -304 447.5 -295.5 c 128,-1,50
 437 -287 437 -287 437 -262 c 0,51,52
 437 -205 437 -205 435 37 c 1,53,54
 261 84 261 84 155.5 214 c 128,-1,55
 50 344 50 344 50 545 c 0,56,57
 50 736 50 736 161 865.5 c 128,-1,58
 272 995 272 995 442 1042 c 1,59,60
 440 1362 440 1362 437 1373 c 1,61,62
 437 1406 437 1406 516 1406 c 0,63,64
 567 1406 567 1406 574 1385 c 1,65,66
 566 1281 566 1281 566 1240 c 2,67,-1
 566 1063 l 1,68,69
 596 1065 596 1065 611 1065 c 0,70,71
 646 1065 646 1065 662 1064 c 1,72,73
 660 1357 660 1357 657 1373 c 1,74,75
 657 1406 657 1406 736 1406 c 0,76,77
 787 1406 787 1406 794 1385 c 1,78,79
 786 1281 786 1281 786 1240 c 2,80,-1
 786 1046 l 1,81,82
 902 1018 902 1018 956.5 952 c 128,-1,83
 1011 886 1011 886 1011 798 c 0,0,1
EndSplineSet
EndChar

StartChar: sterling
Encoding: 163 163 100
Width: 1177
GlyphClass: 2
Flags: W
LayerCount: 2
Fore
SplineSet
120 -11 m 1,0,1
 93 5 93 5 80 53 c 128,-1,2
 67 101 67 101 67 152 c 0,3,4
 67 176 67 176 100 188 c 128,-1,5
 133 200 133 200 179 200 c 0,6,7
 218 200 218 200 230 216.5 c 128,-1,8
 242 233 242 233 242 263 c 2,9,-1
 242 671 l 1,10,11
 105 667 105 667 97 663 c 1,12,13
 42 663 42 663 42 758 c 0,14,15
 42 829 42 829 78 843 c 1,16,17
 104 841 104 841 221 841 c 2,18,-1
 242 841 l 1,19,-1
 242 934 l 2,20,21
 242 1068 242 1068 267.5 1171 c 128,-1,22
 293 1274 293 1274 334 1337.5 c 128,-1,23
 375 1401 375 1401 432.5 1441.5 c 128,-1,24
 490 1482 490 1482 547 1497 c 128,-1,25
 604 1512 604 1512 669 1512 c 0,26,27
 827 1512 827 1512 923 1367 c 1,28,29
 913 1419 913 1419 913 1452 c 0,30,31
 913 1480 913 1480 934 1489 c 128,-1,32
 955 1498 955 1498 1011 1498 c 1,33,-1
 1068 1490 l 1,34,35
 1110 1252 1110 1252 1110 1094 c 0,36,37
 1110 1075 1110 1075 1057 1063 c 128,-1,38
 1004 1051 1004 1051 954 1051 c 1,39,40
 908 1191 908 1191 835.5 1271 c 128,-1,41
 763 1351 763 1351 692 1351 c 0,42,43
 589 1351 589 1351 531 1255.5 c 128,-1,44
 473 1160 473 1160 473 969 c 0,45,46
 473 950 473 950 472.5 908 c 128,-1,47
 472 866 472 866 472 842 c 1,48,-1
 562 842 l 2,49,50
 666 842 666 842 705 845 c 1,51,52
 741 831 741 831 741 760 c 0,53,54
 741 665 741 665 686 665 c 1,55,56
 670 671 670 671 473 671 c 1,57,-1
 473 200 l 2,58,59
 473 164 473 164 505 164 c 0,60,61
 579 164 579 164 634 167.5 c 128,-1,62
 689 171 689 171 730 180.5 c 128,-1,63
 771 190 771 190 799 201 c 128,-1,64
 827 212 827 212 847.5 232.5 c 128,-1,65
 868 253 868 253 880.5 272.5 c 128,-1,66
 893 292 893 292 905 325 c 128,-1,67
 917 358 917 358 926 387.5 c 128,-1,68
 935 417 935 417 950.5 463 c 128,-1,69
 966 509 966 509 983 550 c 1,70,71
 996 557 996 557 1022 557 c 0,72,73
 1060 557 1060 557 1097.5 529.5 c 128,-1,74
 1135 502 1135 502 1135 466 c 1,75,76
 1131 433 1131 433 1115.5 370.5 c 128,-1,77
 1100 308 1100 308 1085.5 256 c 128,-1,78
 1071 204 1071 204 1049 128 c 128,-1,79
 1027 52 1027 52 1021 31 c 0,80,81
 1009 -11 1009 -11 986 -11 c 0,82,83
 983 -11 983 -11 957 -10 c 128,-1,84
 931 -9 931 -9 885 -7.5 c 128,-1,85
 839 -6 839 -6 779.5 -4 c 128,-1,86
 720 -2 720 -2 636 -1 c 128,-1,87
 552 0 552 0 464 0 c 0,88,89
 182 0 182 0 120 -11 c 1,0,1
EndSplineSet
EndChar

StartChar: yen
Encoding: 165 165 101
Width: 1524
GlyphClass: 2
Flags: W
LayerCount: 2
Fore
SplineSet
644 369 m 1,0,1
 326 365 326 365 321 363 c 1,2,3
 276 363 276 363 276 430 c 0,4,5
 276 478 276 478 305 489 c 1,6,7
 338 486 338 486 421 486 c 0,8,9
 427 486 427 486 460.5 486 c 128,-1,10
 494 486 494 486 545 486.5 c 128,-1,11
 596 487 596 487 644 487 c 1,12,-1
 644 587 l 1,13,14
 314 587 314 587 296 581 c 1,15,16
 252 581 252 581 252 638 c 128,-1,17
 252 695 252 695 281 707 c 1,18,19
 314 704 314 704 397 704 c 0,20,21
 402 704 402 704 429 704 c 128,-1,22
 456 704 456 704 497 704.5 c 128,-1,23
 538 705 538 705 578 705 c 1,24,-1
 267 1234 l 2,25,26
 229 1297 229 1297 166 1297 c 0,27,28
 124 1297 124 1297 88 1309 c 128,-1,29
 52 1321 52 1321 38 1345 c 1,30,31
 38 1366 38 1366 36 1414 c 128,-1,32
 34 1462 34 1462 34 1481 c 128,-1,33
 34 1500 34 1500 43 1505 c 1,34,35
 169 1497 169 1497 325 1497 c 0,36,37
 479 1497 479 1497 580 1505 c 1,38,39
 583 1496 583 1496 605 1337 c 0,40,41
 605 1336 605 1336 605.5 1334 c 128,-1,42
 606 1332 606 1332 606 1331 c 0,43,44
 606 1312 606 1312 573 1305.5 c 128,-1,45
 540 1299 540 1299 507.5 1294.5 c 128,-1,46
 475 1290 475 1290 475 1274 c 0,47,48
 475 1264 475 1264 493 1232 c 2,49,-1
 737 807 l 1,50,51
 765 761 765 761 770 758 c 1,52,53
 777 760 777 760 802 807 c 1,54,55
 970 1103 970 1103 1047 1232 c 0,56,57
 1065 1262 1065 1262 1065 1274 c 0,58,59
 1065 1290 1065 1290 1032 1294.5 c 128,-1,60
 999 1299 999 1299 966.5 1305.5 c 128,-1,61
 934 1312 934 1312 934 1331 c 0,62,63
 934 1332 934 1332 934.5 1334 c 128,-1,64
 935 1336 935 1336 935 1337 c 0,65,66
 957 1496 957 1496 960 1505 c 1,67,68
 1054 1497 1054 1497 1195 1497 c 0,69,70
 1351 1497 1351 1497 1477 1505 c 1,71,72
 1486 1500 1486 1500 1486 1481 c 0,73,74
 1486 1471 1486 1471 1483 1459 c 1,75,-1
 1483 1444 l 2,76,77
 1483 1434 1483 1434 1483.5 1412 c 128,-1,78
 1484 1390 1484 1390 1484 1379 c 0,79,80
 1484 1367 1484 1367 1482 1345 c 1,81,82
 1468 1321 1468 1321 1432 1309 c 128,-1,83
 1396 1297 1396 1297 1354 1297 c 0,84,85
 1289 1297 1289 1297 1253 1234 c 2,86,-1
 943 706 l 1,87,-1
 1094 706 l 2,88,89
 1190 706 1190 706 1210 708 c 1,90,91
 1239 697 1239 697 1239 639 c 0,92,93
 1239 583 1239 583 1195 583 c 1,94,95
 1191 585 1191 585 1145 586 c 128,-1,96
 1099 587 1099 587 1055 587 c 2,97,-1
 1011 587 l 1,98,-1
 876 587 l 1,99,-1
 876 488 l 1,100,-1
 1070 488 l 2,101,102
 1164 488 1164 488 1186 490 c 1,103,104
 1215 480 1215 480 1215 431 c 0,105,106
 1215 365 1215 365 1170 365 c 1,107,108
 1166 367 1166 367 1120.5 368 c 128,-1,109
 1075 369 1075 369 1031 369 c 2,110,-1
 987 369 l 1,111,-1
 875 369 l 1,112,-1
 875 265 l 2,113,114
 875 250 875 250 876.5 241.5 c 128,-1,115
 878 233 878 233 883.5 222 c 128,-1,116
 889 211 889 211 903 205.5 c 128,-1,117
 917 200 917 200 939 200 c 0,118,119
 985 200 985 200 1018 188 c 128,-1,120
 1051 176 1051 176 1051 152 c 0,121,122
 1051 19 1051 19 1018 -11 c 1,123,124
 868 0 868 0 761 0 c 0,125,126
 659 0 659 0 512 -11 c 1,127,128
 490 5 490 5 479.5 53 c 128,-1,129
 469 101 469 101 469 152 c 0,130,131
 469 176 469 176 502 188 c 128,-1,132
 535 200 535 200 581 200 c 0,133,134
 620 200 620 200 632 216.5 c 128,-1,135
 644 233 644 233 644 263 c 2,136,-1
 644 369 l 1,0,1
EndSplineSet
EndChar

StartChar: section
Encoding: 167 167 102
Width: 1036
GlyphClass: 2
Flags: W
LayerCount: 2
Fore
SplineSet
699 460 m 1,0,1
 751 496 751 496 751 561 c 0,2,3
 751 660 751 660 615 714 c 0,4,5
 537 744 537 744 486.5 762 c 128,-1,6
 436 780 436 780 412 787.5 c 128,-1,7
 388 795 388 795 386 796 c 1,8,9
 378 796 378 796 360.5 785 c 128,-1,10
 343 774 343 774 324.5 747 c 128,-1,11
 306 720 306 720 306 688 c 0,12,13
 306 645 306 645 338 610.5 c 128,-1,14
 370 576 370 576 468 543 c 0,15,16
 664 476 664 476 699 460 c 1,0,1
882 345 m 1,17,18
 925 297 925 297 944 252.5 c 128,-1,19
 963 208 963 208 963 137 c 0,20,21
 963 -155 963 -155 506 -155 c 0,22,23
 387 -155 387 -155 284.5 -127.5 c 128,-1,24
 182 -100 182 -100 115.5 -44 c 128,-1,25
 49 12 49 12 49 85 c 0,26,27
 49 98 49 98 52.5 110 c 128,-1,28
 56 122 56 122 67.5 138.5 c 128,-1,29
 79 155 79 155 107.5 165 c 128,-1,30
 136 175 136 175 179 175 c 0,31,32
 197 175 197 175 210.5 175.5 c 128,-1,33
 224 176 224 176 226 176 c 0,34,35
 297 176 297 176 319 155 c 128,-1,36
 341 134 341 134 351 53 c 1,37,38
 357 31 357 31 420 18.5 c 128,-1,39
 483 6 483 6 534 6 c 0,40,41
 561 6 561 6 589.5 11 c 128,-1,42
 618 16 618 16 652 29 c 128,-1,43
 686 42 686 42 707.5 71 c 128,-1,44
 729 100 729 100 729 142 c 0,45,46
 729 175 729 175 717.5 198.5 c 128,-1,47
 706 222 706 222 671 249.5 c 128,-1,48
 636 277 636 277 566.5 306 c 128,-1,49
 497 335 497 335 386 369 c 0,50,51
 217 421 217 421 137.5 498.5 c 128,-1,52
 58 576 58 576 58 690 c 0,53,54
 58 765 58 765 97.5 816 c 128,-1,55
 137 867 137 867 189 893 c 1,56,57
 80 980 80 980 80 1108 c 0,58,59
 80 1230 80 1230 200.5 1308 c 128,-1,60
 321 1386 321 1386 536 1386 c 0,61,62
 653 1386 653 1386 740 1368 c 128,-1,63
 827 1350 827 1350 875 1319 c 128,-1,64
 923 1288 923 1288 945.5 1251.5 c 128,-1,65
 968 1215 968 1215 968 1173 c 0,66,67
 968 1158 968 1158 965.5 1148 c 128,-1,68
 963 1138 963 1138 954 1122.5 c 128,-1,69
 945 1107 945 1107 920.5 1096.5 c 128,-1,70
 896 1086 896 1086 858 1082 c 0,71,72
 836 1080 836 1080 807 1080 c 0,73,74
 780 1080 780 1080 762 1083.5 c 128,-1,75
 744 1087 744 1087 733 1090.5 c 128,-1,76
 722 1094 722 1094 713 1108.5 c 128,-1,77
 704 1123 704 1123 700.5 1130.5 c 128,-1,78
 697 1138 697 1138 688.5 1164.5 c 128,-1,79
 680 1191 680 1191 675 1206 c 0,80,81
 670 1220 670 1220 627 1228 c 128,-1,82
 584 1236 584 1236 540 1236 c 0,83,84
 484 1236 484 1236 442.5 1225.5 c 128,-1,85
 401 1215 401 1215 379.5 1200.5 c 128,-1,86
 358 1186 358 1186 345.5 1166 c 128,-1,87
 333 1146 333 1146 330 1132 c 128,-1,88
 327 1118 327 1118 327 1102 c 0,89,90
 327 1076 327 1076 341 1054 c 128,-1,91
 355 1032 355 1032 375 1017 c 128,-1,92
 395 1002 395 1002 431.5 985.5 c 128,-1,93
 468 969 468 969 498.5 958.5 c 128,-1,94
 529 948 529 948 580.5 931 c 128,-1,95
 632 914 632 914 666 901 c 0,96,97
 826 841 826 841 905.5 759.5 c 128,-1,98
 985 678 985 678 985 556 c 0,99,100
 985 422 985 422 882 345 c 1,17,18
EndSplineSet
EndChar

StartChar: currency
Encoding: 164 164 103
Width: 1026
GlyphClass: 2
Flags: W
LayerCount: 2
Fore
SplineSet
512 685 m 0,0,1
 397 685 397 685 316 735 c 1,2,-1
 243 660 l 1,3,4
 165 578 165 578 163 572 c 1,5,6
 152 561 152 561 137 561 c 0,7,8
 114 561 114 561 79 593 c 128,-1,9
 44 625 44 625 44 651 c 0,10,11
 44 654 44 654 48 660 c 128,-1,12
 52 666 52 666 60.5 675 c 128,-1,13
 69 684 69 684 78 693 c 128,-1,14
 87 702 87 702 103 718 c 128,-1,15
 119 734 119 734 132 747 c 2,16,-1
 213 829 l 1,17,18
 151 918 151 918 151 1034 c 0,19,20
 151 1154 151 1154 216 1244 c 1,21,-1
 193 1268 l 1,22,23
 67 1392 67 1392 57 1396 c 1,24,25
 46 1406 46 1406 46 1422 c 0,26,27
 46 1445 46 1445 78 1480 c 128,-1,28
 110 1515 110 1515 135 1515 c 0,29,30
 139 1515 139 1515 145 1511.5 c 128,-1,31
 151 1508 151 1508 160.5 1499.5 c 128,-1,32
 170 1491 170 1491 178 1482.5 c 128,-1,33
 186 1474 186 1474 202.5 1457 c 128,-1,34
 219 1440 219 1440 232 1427 c 2,35,-1
 322 1337 l 1,36,37
 403 1384 403 1384 512 1384 c 0,38,39
 620 1384 620 1384 704 1338 c 1,40,-1
 794 1427 l 2,41,42
 808 1440 808 1440 823 1456 c 128,-1,43
 838 1472 838 1472 847 1481 c 128,-1,44
 856 1490 856 1490 865 1499 c 128,-1,45
 874 1508 874 1508 880 1511.5 c 128,-1,46
 886 1515 886 1515 890 1515 c 0,47,48
 915 1515 915 1515 947 1480.5 c 128,-1,49
 979 1446 979 1446 979 1422 c 0,50,51
 979 1405 979 1405 968 1396 c 0,52,53
 964 1394 964 1394 930 1362 c 128,-1,54
 896 1330 896 1330 864 1299 c 2,55,-1
 833 1268 l 1,56,-1
 811 1246 l 1,57,58
 881 1154 881 1154 881 1034 c 0,59,60
 881 917 881 917 814 826 c 1,61,-1
 894 747 l 2,62,63
 903 738 903 738 915 726 c 128,-1,64
 927 714 927 714 934.5 707 c 128,-1,65
 942 700 942 700 950.5 691 c 128,-1,66
 959 682 959 682 964 676.5 c 128,-1,67
 969 671 969 671 973.5 665.5 c 128,-1,68
 978 660 978 660 980 656.5 c 128,-1,69
 982 653 982 653 982 651 c 0,70,71
 982 625 982 625 947 593 c 128,-1,72
 912 561 912 561 889 561 c 0,73,74
 874 561 874 561 863 572 c 1,75,76
 862 575 862 575 842 597 c 128,-1,77
 822 619 822 619 802 640 c 2,78,-1
 783 660 l 1,79,-1
 710 734 l 1,80,81
 626 685 626 685 512 685 c 0,0,1
730 1034 m 0,82,83
 730 1143 730 1143 665 1204.5 c 128,-1,84
 600 1266 600 1266 512 1266 c 128,-1,85
 424 1266 424 1266 361 1204.5 c 128,-1,86
 298 1143 298 1143 298 1034 c 0,87,88
 298 924 298 924 361 864 c 128,-1,89
 424 804 424 804 512 804 c 0,90,91
 601 804 601 804 665.5 865 c 128,-1,92
 730 926 730 926 730 1034 c 0,82,83
EndSplineSet
EndChar

StartChar: quotesingle
Encoding: 39 39 104
Width: 479
GlyphClass: 2
Flags: W
LayerCount: 2
Fore
SplineSet
122 986 m 0,0,1
 122 1012 122 1012 171.5 1081.5 c 128,-1,2
 221 1151 221 1151 221 1155 c 0,3,4
 221 1165 221 1165 203 1173 c 128,-1,5
 185 1181 185 1181 159 1191 c 128,-1,6
 133 1201 133 1201 106.5 1216.5 c 128,-1,7
 80 1232 80 1232 62 1264 c 128,-1,8
 44 1296 44 1296 44 1340 c 0,9,10
 44 1416 44 1416 96.5 1464 c 128,-1,11
 149 1512 149 1512 232 1512 c 0,12,13
 312 1512 312 1512 367.5 1459.5 c 128,-1,14
 423 1407 423 1407 423 1331 c 0,15,16
 423 1244 423 1244 387.5 1156.5 c 128,-1,17
 352 1069 352 1069 292.5 1012 c 128,-1,18
 233 955 233 955 170 955 c 0,19,20
 122 955 122 955 122 986 c 0,0,1
EndSplineSet
EndChar

StartChar: quotedblleft
Encoding: 8220 8220 105
Width: 1085
GlyphClass: 2
Flags: W
LayerCount: 2
Fore
SplineSet
421 1481 m 0,0,1
 421 1455 421 1455 371.5 1385.5 c 128,-1,2
 322 1316 322 1316 322 1312 c 0,3,4
 322 1302 322 1302 340 1294 c 128,-1,5
 358 1286 358 1286 384 1276 c 128,-1,6
 410 1266 410 1266 436.5 1250.5 c 128,-1,7
 463 1235 463 1235 481 1203 c 128,-1,8
 499 1171 499 1171 499 1127 c 0,9,10
 499 1051 499 1051 446.5 1003 c 128,-1,11
 394 955 394 955 311 955 c 0,12,13
 231 955 231 955 175.5 1007.5 c 128,-1,14
 120 1060 120 1060 120 1136 c 0,15,16
 120 1223 120 1223 155.5 1310.5 c 128,-1,17
 191 1398 191 1398 250.5 1455 c 128,-1,18
 310 1512 310 1512 373 1512 c 0,19,20
 421 1512 421 1512 421 1481 c 0,0,1
882 1481 m 0,21,22
 882 1455 882 1455 832.5 1385.5 c 128,-1,23
 783 1316 783 1316 783 1312 c 0,24,25
 783 1303 783 1303 796 1296 c 128,-1,26
 809 1289 809 1289 829 1283 c 128,-1,27
 849 1277 849 1277 871.5 1265 c 128,-1,28
 894 1253 894 1253 914 1237.5 c 128,-1,29
 934 1222 934 1222 947 1193 c 128,-1,30
 960 1164 960 1164 960 1127 c 0,31,32
 960 1051 960 1051 907.5 1003 c 128,-1,33
 855 955 855 955 772 955 c 0,34,35
 692 955 692 955 636.5 1007.5 c 128,-1,36
 581 1060 581 1060 581 1136 c 0,37,38
 581 1223 581 1223 616.5 1310.5 c 128,-1,39
 652 1398 652 1398 711.5 1455 c 128,-1,40
 771 1512 771 1512 834 1512 c 0,41,42
 882 1512 882 1512 882 1481 c 0,21,22
EndSplineSet
EndChar

StartChar: guillemotleft
Encoding: 171 171 106
Width: 1297
GlyphClass: 2
Flags: W
LayerCount: 2
Fore
SplineSet
569 534 m 0,0,1
 569 574 569 574 703.5 705.5 c 128,-1,2
 838 837 838 837 972 949 c 2,3,-1
 1107 1061 l 2,4,5
 1118 1069 1118 1069 1128 1069 c 0,6,7
 1150 1069 1150 1069 1199.5 1009 c 128,-1,8
 1249 949 1249 949 1249 915 c 0,9,10
 1249 899 1249 899 1236 886 c 1,11,-1
 838 534 l 1,12,-1
 1246 182 l 1,13,14
 1259 169 1259 169 1259 153 c 0,15,16
 1259 119 1259 119 1205.5 59 c 128,-1,17
 1152 -1 1152 -1 1128 -1 c 0,18,19
 1118 -1 1118 -1 1107 7 c 0,20,21
 1096 16 1096 16 1076.5 32 c 128,-1,22
 1057 48 1057 48 1001 95.5 c 128,-1,23
 945 143 945 143 894.5 187 c 128,-1,24
 844 231 844 231 781.5 288.5 c 128,-1,25
 719 346 719 346 674.5 391.5 c 128,-1,26
 630 437 630 437 599.5 476.5 c 128,-1,27
 569 516 569 516 569 534 c 0,0,1
37 534 m 0,28,29
 37 574 37 574 171.5 705.5 c 128,-1,30
 306 837 306 837 440 949 c 2,31,-1
 575 1061 l 2,32,33
 586 1069 586 1069 596 1069 c 0,34,35
 618 1069 618 1069 667.5 1009 c 128,-1,36
 717 949 717 949 717 915 c 0,37,38
 717 899 717 899 704 886 c 1,39,-1
 306 534 l 1,40,-1
 714 182 l 1,41,42
 727 169 727 169 727 153 c 0,43,44
 727 119 727 119 673.5 59 c 128,-1,45
 620 -1 620 -1 596 -1 c 0,46,47
 586 -1 586 -1 575 7 c 0,48,49
 564 16 564 16 544.5 32 c 128,-1,50
 525 48 525 48 469 95.5 c 128,-1,51
 413 143 413 143 362.5 187 c 128,-1,52
 312 231 312 231 249.5 288.5 c 128,-1,53
 187 346 187 346 142.5 391.5 c 128,-1,54
 98 437 98 437 67.5 476.5 c 128,-1,55
 37 516 37 516 37 534 c 0,28,29
EndSplineSet
EndChar

StartChar: guilsinglleft
Encoding: 8249 8249 107
Width: 1024
GlyphClass: 2
Flags: W
LayerCount: 2
Fore
SplineSet
210 534 m 0,0,1
 210 574 210 574 344.5 705.5 c 128,-1,2
 479 837 479 837 614 949 c 2,3,-1
 748 1061 l 2,4,5
 759 1069 759 1069 769 1069 c 0,6,7
 791 1069 791 1069 840.5 1009 c 128,-1,8
 890 949 890 949 890 915 c 0,9,10
 890 899 890 899 877 886 c 1,11,-1
 479 534 l 1,12,-1
 887 182 l 1,13,14
 900 169 900 169 900 153 c 0,15,16
 900 119 900 119 846.5 59 c 128,-1,17
 793 -1 793 -1 769 -1 c 0,18,19
 759 -1 759 -1 748 7 c 0,20,21
 737 16 737 16 717.5 32 c 128,-1,22
 698 48 698 48 642 95.5 c 128,-1,23
 586 143 586 143 535.5 187 c 128,-1,24
 485 231 485 231 422.5 288.5 c 128,-1,25
 360 346 360 346 315.5 391.5 c 128,-1,26
 271 437 271 437 240.5 476.5 c 128,-1,27
 210 516 210 516 210 534 c 0,0,1
EndSplineSet
EndChar

StartChar: guilsinglright
Encoding: 8250 8250 108
Width: 1024
GlyphClass: 2
Flags: W
LayerCount: 2
Fore
SplineSet
890 534 m 0,0,1
 890 494 890 494 755.5 362.5 c 128,-1,2
 621 231 621 231 486 119 c 2,3,-1
 352 7 l 2,4,5
 341 -1 341 -1 331 -1 c 0,6,7
 307 -1 307 -1 253.5 59 c 128,-1,8
 200 119 200 119 200 153 c 0,9,10
 200 169 200 169 213 182 c 1,11,-1
 621 534 l 1,12,-1
 223 886 l 1,13,14
 210 899 210 899 210 915 c 0,15,16
 210 949 210 949 259.5 1009 c 128,-1,17
 309 1069 309 1069 331 1069 c 0,18,19
 341 1069 341 1069 352 1061 c 0,20,21
 363 1052 363 1052 382.5 1036 c 128,-1,22
 402 1020 402 1020 458 972.5 c 128,-1,23
 514 925 514 925 564.5 881 c 128,-1,24
 615 837 615 837 677.5 779.5 c 128,-1,25
 740 722 740 722 784.5 676.5 c 128,-1,26
 829 631 829 631 859.5 591.5 c 128,-1,27
 890 552 890 552 890 534 c 0,0,1
EndSplineSet
EndChar

StartChar: uniFB01
Encoding: 64257 64257 109
Width: 1519
GlyphClass: 3
Flags: W
LayerCount: 2
Fore
SplineSet
1069 916 m 1,0,1
 1090 911 1090 911 1097 892 c 128,-1,2
 1104 873 1104 873 1104 815 c 2,3,-1
 1104 249 l 2,4,5
 1104 219 1104 219 1092 202.5 c 128,-1,6
 1080 186 1080 186 1041 186 c 0,7,8
 1003 186 1003 186 976 174 c 128,-1,9
 949 162 949 162 949 138 c 0,10,11
 949 22 949 22 982 -8 c 1,12,13
 1099 0 1099 0 1234 0 c 0,14,15
 1364 0 1364 0 1454 -8 c 1,16,17
 1487 21 1487 21 1487 138 c 0,18,19
 1487 162 1487 162 1460 174 c 128,-1,20
 1433 186 1433 186 1395 186 c 0,21,22
 1373 186 1373 186 1359 191.5 c 128,-1,23
 1345 197 1345 197 1339.5 208 c 128,-1,24
 1334 219 1334 219 1332.5 227.5 c 128,-1,25
 1331 236 1331 236 1331 251 c 2,26,-1
 1331 980 l 2,27,28
 1331 1043 1331 1043 1320.5 1060.5 c 128,-1,29
 1310 1078 1310 1078 1275 1078 c 0,30,31
 1272 1078 1272 1078 1219 1072.5 c 128,-1,32
 1166 1067 1166 1067 1118 1067 c 2,33,-1
 552 1067 l 1,34,-1
 456 1067 l 1,35,36
 444 1139 444 1139 444 1219 c 128,-1,37
 444 1299 444 1299 474 1350 c 128,-1,38
 504 1401 504 1401 570 1401 c 0,39,40
 616 1401 616 1401 668 1375 c 1,41,42
 668 1339 668 1339 667.5 1282.5 c 128,-1,43
 667 1226 667 1226 667 1206 c 0,44,45
 667 1188 667 1188 680 1180 c 128,-1,46
 693 1172 693 1172 731 1172 c 0,47,48
 797 1172 797 1172 842.5 1205.5 c 128,-1,49
 888 1239 888 1239 888 1304 c 0,50,51
 888 1411 888 1411 799 1478.5 c 128,-1,52
 710 1546 710 1546 588 1546 c 0,53,54
 533 1546 533 1546 484.5 1535 c 128,-1,55
 436 1524 436 1524 388 1494.5 c 128,-1,56
 340 1465 340 1465 305.5 1418.5 c 128,-1,57
 271 1372 271 1372 250 1296 c 128,-1,58
 229 1220 229 1220 229 1121 c 2,59,-1
 229 1066 l 1,60,-1
 196 1066 l 2,61,62
 89 1066 89 1066 67 1068 c 1,63,64
 34 1056 34 1056 34 991 c 0,65,66
 34 905 34 905 84 905 c 1,67,68
 87 907 87 907 119.5 909 c 128,-1,69
 152 911 152 911 184 912 c 1,70,-1
 215 912 l 1,71,-1
 229 912 l 1,72,-1
 229 249 l 2,73,74
 229 219 229 219 217 202.5 c 128,-1,75
 205 186 205 186 166 186 c 0,76,77
 120 186 120 186 87 174 c 128,-1,78
 54 162 54 162 54 138 c 0,79,80
 54 22 54 22 87 -8 c 1,81,82
 175 0 175 0 353 0 c 0,83,84
 500 0 500 0 609 -8 c 1,85,86
 642 21 642 21 642 138 c 0,87,88
 642 162 642 162 606 174 c 128,-1,89
 570 186 570 186 520 186 c 0,90,91
 498 186 498 186 484 191.5 c 128,-1,92
 470 197 470 197 464.5 208 c 128,-1,93
 459 219 459 219 457.5 227.5 c 128,-1,94
 456 236 456 236 456 251 c 2,95,-1
 456 912 l 1,96,-1
 539 912 l 1,97,98
 871 914 871 914 1069 916 c 1,0,1
1166 1245 m 0,99,100
 1142 1245 1142 1245 1117 1249.5 c 128,-1,101
 1092 1254 1092 1254 1062.5 1266 c 128,-1,102
 1033 1278 1033 1278 1014.5 1304 c 128,-1,103
 996 1330 996 1330 996 1366 c 0,104,105
 996 1489 996 1489 1162 1489 c 0,106,107
 1209 1489 1209 1489 1241.5 1477 c 128,-1,108
 1274 1465 1274 1465 1289.5 1445 c 128,-1,109
 1305 1425 1305 1425 1311 1406 c 128,-1,110
 1317 1387 1317 1387 1317 1365 c 0,111,112
 1317 1320 1317 1320 1289 1291 c 128,-1,113
 1261 1262 1261 1262 1229.5 1253.5 c 128,-1,114
 1198 1245 1198 1245 1166 1245 c 0,99,100
EndSplineSet
Ligature2: "'liga' Standard Ligatures in Latin lookup 0 subtable" f i
EndChar

StartChar: uniFB02
Encoding: 64258 64258 110
Width: 1381
GlyphClass: 3
Flags: W
LayerCount: 2
Fore
SplineSet
966 1364 m 2,0,-1
 966 249 l 2,1,2
 966 219 966 219 954 202.5 c 128,-1,3
 942 186 942 186 903 186 c 0,4,5
 865 186 865 186 838 174 c 128,-1,6
 811 162 811 162 811 138 c 0,7,8
 811 22 811 22 844 -8 c 1,9,10
 932 0 932 0 1086 0 c 0,11,12
 1230 0 1230 0 1316 -8 c 1,13,14
 1349 21 1349 21 1349 138 c 0,15,16
 1349 162 1349 162 1322 174 c 128,-1,17
 1295 186 1295 186 1257 186 c 0,18,19
 1235 186 1235 186 1221 191.5 c 128,-1,20
 1207 197 1207 197 1201.5 208 c 128,-1,21
 1196 219 1196 219 1194.5 227.5 c 128,-1,22
 1193 236 1193 236 1193 251 c 0,23,24
 1193 1302 1193 1302 1194 1450 c 0,25,26
 1194 1455 1194 1455 1194 1457 c 0,27,28
 1194 1476 1194 1476 1175.5 1491 c 128,-1,29
 1157 1506 1157 1506 1119.5 1515.5 c 128,-1,30
 1082 1525 1082 1525 1038 1531.5 c 128,-1,31
 994 1538 994 1538 931 1541 c 128,-1,32
 868 1544 868 1544 811.5 1545 c 128,-1,33
 755 1546 755 1546 680 1546 c 0,34,35
 597 1546 597 1546 532 1534.5 c 128,-1,36
 467 1523 467 1523 409 1494 c 128,-1,37
 351 1465 351 1465 312.5 1418 c 128,-1,38
 274 1371 274 1371 251.5 1296 c 128,-1,39
 229 1221 229 1221 229 1121 c 2,40,-1
 229 1066 l 1,41,-1
 196 1066 l 2,42,43
 89 1066 89 1066 67 1068 c 1,44,45
 34 1056 34 1056 34 991 c 0,46,47
 34 905 34 905 84 905 c 1,48,49
 87 907 87 907 119.5 909 c 128,-1,50
 152 911 152 911 184 912 c 1,51,-1
 215 912 l 1,52,-1
 229 912 l 1,53,-1
 229 249 l 2,54,55
 229 219 229 219 217 202.5 c 128,-1,56
 205 186 205 186 166 186 c 0,57,58
 120 186 120 186 87 174 c 128,-1,59
 54 162 54 162 54 138 c 0,60,61
 54 22 54 22 87 -8 c 1,62,63
 175 0 175 0 353 0 c 0,64,65
 500 0 500 0 609 -8 c 1,66,67
 642 21 642 21 642 138 c 0,68,69
 642 162 642 162 606 174 c 128,-1,70
 570 186 570 186 520 186 c 0,71,72
 498 186 498 186 484 191.5 c 128,-1,73
 470 197 470 197 464.5 208 c 128,-1,74
 459 219 459 219 457.5 227.5 c 128,-1,75
 456 236 456 236 456 251 c 2,76,-1
 456 912 l 1,77,-1
 539 912 l 2,78,79
 658 912 658 912 664 907 c 1,80,81
 714 907 714 907 714 993 c 0,82,83
 714 1058 714 1058 681 1070 c 1,84,85
 648 1067 648 1067 552 1067 c 2,86,-1
 456 1067 l 1,87,88
 444 1139 444 1139 444 1219 c 128,-1,89
 444 1299 444 1299 496 1350 c 128,-1,90
 548 1401 548 1401 664 1401 c 0,91,92
 673 1401 673 1401 691 1401 c 0,93,94
 751 1401 751 1401 784.5 1400.5 c 128,-1,95
 818 1400 818 1400 867.5 1397 c 128,-1,96
 917 1394 917 1394 941.5 1385.5 c 128,-1,97
 966 1377 966 1377 966 1364 c 2,0,-1
EndSplineSet
Ligature2: "'liga' Standard Ligatures in Latin lookup 0 subtable" f l
EndChar

StartChar: endash
Encoding: 8211 8211 111
Width: 1528
GlyphClass: 2
Flags: W
LayerCount: 2
Fore
SplineSet
472 729 m 1,0,1
 524 730 524 730 1097 730 c 0,2,3
 1201 730 1201 730 1240 733 c 1,4,5
 1276 719 1276 719 1276 648 c 0,6,7
 1276 553 1276 553 1221 553 c 1,8,9
 1216 555 1216 555 1159 556.5 c 128,-1,10
 1102 558 1102 558 1048 558 c 2,11,-1
 994 559 l 1,12,-1
 493 559 l 1,13,14
 355 555 355 555 348 551 c 1,15,16
 293 551 293 551 293 646 c 0,17,18
 293 717 293 717 329 731 c 1,19,20
 355 729 355 729 472 729 c 1,0,1
EndSplineSet
EndChar

StartChar: periodcentered
Encoding: 183 183 112
Width: 442
GlyphClass: 2
Flags: W
LayerCount: 2
Fore
SplineSet
43 932 m 0,0,1
 43 1001 43 1001 89 1048 c 128,-1,2
 135 1095 135 1095 224 1095 c 0,3,4
 311 1095 311 1095 355 1047.5 c 128,-1,5
 399 1000 399 1000 399 932 c 0,6,7
 399 865 399 865 355 817 c 128,-1,8
 311 769 311 769 224 769 c 0,9,10
 135 769 135 769 89 816.5 c 128,-1,11
 43 864 43 864 43 932 c 0,0,1
EndSplineSet
EndChar

StartChar: paragraph
Encoding: 182 182 113
Width: 1276
GlyphClass: 2
Flags: W
LayerCount: 2
Fore
SplineSet
980 1554 m 0,0,1
 1000 1554 1000 1554 1186 1566 c 0,2,3
 1193 1566 1193 1566 1206 1549 c 128,-1,4
 1219 1532 1219 1532 1231.5 1490.5 c 128,-1,5
 1244 1449 1244 1449 1244 1397 c 0,6,7
 1244 1376 1244 1376 1229.5 1366 c 128,-1,8
 1215 1356 1215 1356 1193 1355.5 c 128,-1,9
 1171 1355 1171 1355 1146 1350.5 c 128,-1,10
 1121 1346 1121 1346 1099 1338 c 128,-1,11
 1077 1330 1077 1330 1062.5 1303 c 128,-1,12
 1048 1276 1048 1276 1048 1232 c 2,13,-1
 1048 717 l 2,14,15
 1048 566 1048 566 1048.5 468.5 c 128,-1,16
 1049 371 1049 371 1051 296.5 c 128,-1,17
 1053 222 1053 222 1055.5 183 c 128,-1,18
 1058 144 1058 144 1063.5 119.5 c 128,-1,19
 1069 95 1069 95 1075 88 c 128,-1,20
 1081 81 1081 81 1091 79 c 0,21,22
 1119 76 1119 76 1133.5 73.5 c 128,-1,23
 1148 71 1148 71 1168.5 64 c 128,-1,24
 1189 57 1189 57 1198 44 c 128,-1,25
 1207 31 1207 31 1207 12 c 0,26,27
 1207 -34 1207 -34 1187 -82 c 128,-1,28
 1167 -130 1167 -130 1129 -142 c 1,29,30
 1064 -125 1064 -125 1000 -125 c 0,31,32
 956 -125 956 -125 896 -123.5 c 128,-1,33
 836 -122 836 -122 830 -122 c 0,34,35
 820 -122 820 -122 820 238 c 0,36,37
 820 276 820 276 820 388.5 c 128,-1,38
 820 501 820 501 820.5 741.5 c 128,-1,39
 821 982 821 982 821 1332 c 0,40,41
 821 1337 821 1337 727 1337 c 0,42,43
 717 1337 717 1337 710.5 1337 c 128,-1,44
 704 1337 704 1337 694 1336.5 c 128,-1,45
 684 1336 684 1336 679.5 1335 c 128,-1,46
 675 1334 675 1334 675 1332 c 2,47,-1
 675 717 l 2,48,49
 675 490 675 490 676.5 240 c 128,-1,50
 678 -10 678 -10 678 -48 c 0,51,52
 678 -127 678 -127 652 -127 c 0,53,54
 647 -127 647 -127 619.5 -126 c 128,-1,55
 592 -125 592 -125 571 -125 c 0,56,57
 468 -125 468 -125 369 -142 c 1,58,59
 331 -130 331 -130 311 -82 c 128,-1,60
 291 -34 291 -34 291 12 c 0,61,62
 291 31 291 31 300 44 c 128,-1,63
 309 57 309 57 329.5 64 c 128,-1,64
 350 71 350 71 364.5 73.5 c 128,-1,65
 379 76 379 76 407 79 c 1,66,67
 427 83 427 83 435 119 c 0,68,69
 448 182 448 182 450 584 c 0,70,71
 450 667 450 667 451 878 c 1,72,-1
 451 887 l 1,73,74
 223 887 223 887 128 973.5 c 128,-1,75
 33 1060 33 1060 33 1241 c 0,76,77
 33 1305 33 1305 60 1361 c 128,-1,78
 87 1417 87 1417 143 1464.5 c 128,-1,79
 199 1512 199 1512 298 1539 c 128,-1,80
 397 1566 397 1566 529 1566 c 0,81,82
 541 1566 541 1566 581 1563 c 128,-1,83
 621 1560 621 1560 721 1557 c 128,-1,84
 821 1554 821 1554 980 1554 c 0,0,1
EndSplineSet
EndChar

StartChar: bullet
Encoding: 8226 8226 114
Width: 1161
GlyphClass: 2
Flags: W
LayerCount: 2
Fore
SplineSet
583 300 m 0,0,1
 483 300 483 300 401.5 333.5 c 128,-1,2
 320 367 320 367 269 422.5 c 128,-1,3
 218 478 218 478 190.5 547 c 128,-1,4
 163 616 163 616 163 690 c 0,5,6
 163 763 163 763 189.5 829 c 128,-1,7
 216 895 216 895 267 949 c 128,-1,8
 318 1003 318 1003 400.5 1035 c 128,-1,9
 483 1067 483 1067 586 1067 c 0,10,11
 687 1067 687 1067 767.5 1035.5 c 128,-1,12
 848 1004 848 1004 897 950.5 c 128,-1,13
 946 897 946 897 972 831.5 c 128,-1,14
 998 766 998 766 998 693 c 0,15,16
 998 619 998 619 971 549.5 c 128,-1,17
 944 480 944 480 893.5 424 c 128,-1,18
 843 368 843 368 762 334 c 128,-1,19
 681 300 681 300 583 300 c 0,0,1
EndSplineSet
EndChar

StartChar: quotesinglbase
Encoding: 8218 8218 115
Width: 497
GlyphClass: 2
Flags: W
LayerCount: 2
Fore
SplineSet
156 -225 m 0,0,1
 156 -199 156 -199 205.5 -129.5 c 128,-1,2
 255 -60 255 -60 255 -56 c 0,3,4
 255 -46 255 -46 237 -38 c 128,-1,5
 219 -30 219 -30 193 -20 c 128,-1,6
 167 -10 167 -10 140.5 5.5 c 128,-1,7
 114 21 114 21 96 53 c 128,-1,8
 78 85 78 85 78 129 c 0,9,10
 78 205 78 205 130.5 253 c 128,-1,11
 183 301 183 301 266 301 c 0,12,13
 346 301 346 301 401.5 248.5 c 128,-1,14
 457 196 457 196 457 120 c 0,15,16
 457 33 457 33 421.5 -54.5 c 128,-1,17
 386 -142 386 -142 326.5 -199 c 128,-1,18
 267 -256 267 -256 204 -256 c 0,19,20
 156 -256 156 -256 156 -225 c 0,0,1
EndSplineSet
EndChar

StartChar: quotedblbase
Encoding: 8222 8222 116
Width: 1085
GlyphClass: 2
Flags: W
LayerCount: 2
Fore
SplineSet
659 -225 m 0,0,1
 659 -199 659 -199 708.5 -129.5 c 128,-1,2
 758 -60 758 -60 758 -56 c 0,3,4
 758 -46 758 -46 740 -38 c 128,-1,5
 722 -30 722 -30 696 -20 c 128,-1,6
 670 -10 670 -10 643.5 5.5 c 128,-1,7
 617 21 617 21 599 53 c 128,-1,8
 581 85 581 85 581 129 c 0,9,10
 581 205 581 205 633.5 253 c 128,-1,11
 686 301 686 301 769 301 c 0,12,13
 849 301 849 301 904.5 248.5 c 128,-1,14
 960 196 960 196 960 120 c 0,15,16
 960 33 960 33 924.5 -54.5 c 128,-1,17
 889 -142 889 -142 829.5 -199 c 128,-1,18
 770 -256 770 -256 707 -256 c 0,19,20
 659 -256 659 -256 659 -225 c 0,0,1
198 -225 m 0,21,22
 198 -199 198 -199 247.5 -129.5 c 128,-1,23
 297 -60 297 -60 297 -56 c 0,24,25
 297 -46 297 -46 279 -38 c 128,-1,26
 261 -30 261 -30 235 -20 c 128,-1,27
 209 -10 209 -10 182.5 5.5 c 128,-1,28
 156 21 156 21 138 53 c 128,-1,29
 120 85 120 85 120 129 c 0,30,31
 120 205 120 205 172.5 253 c 128,-1,32
 225 301 225 301 308 301 c 0,33,34
 388 301 388 301 443.5 248.5 c 128,-1,35
 499 196 499 196 499 120 c 0,36,37
 499 33 499 33 463.5 -54.5 c 128,-1,38
 428 -142 428 -142 368.5 -199 c 128,-1,39
 309 -256 309 -256 246 -256 c 0,40,41
 198 -256 198 -256 198 -225 c 0,21,22
EndSplineSet
EndChar

StartChar: quotedblright
Encoding: 8221 8221 117
Width: 1085
GlyphClass: 2
Flags: W
LayerCount: 2
Fore
SplineSet
659 986 m 0,0,1
 659 1012 659 1012 708.5 1081.5 c 128,-1,2
 758 1151 758 1151 758 1155 c 0,3,4
 758 1165 758 1165 740 1173 c 128,-1,5
 722 1181 722 1181 696 1191 c 128,-1,6
 670 1201 670 1201 643.5 1216.5 c 128,-1,7
 617 1232 617 1232 599 1264 c 128,-1,8
 581 1296 581 1296 581 1340 c 0,9,10
 581 1416 581 1416 633.5 1464 c 128,-1,11
 686 1512 686 1512 769 1512 c 0,12,13
 849 1512 849 1512 904.5 1459.5 c 128,-1,14
 960 1407 960 1407 960 1331 c 0,15,16
 960 1244 960 1244 924.5 1156.5 c 128,-1,17
 889 1069 889 1069 829.5 1012 c 128,-1,18
 770 955 770 955 707 955 c 0,19,20
 659 955 659 955 659 986 c 0,0,1
198 986 m 0,21,22
 198 1012 198 1012 247.5 1081.5 c 128,-1,23
 297 1151 297 1151 297 1155 c 0,24,25
 297 1165 297 1165 279 1173 c 128,-1,26
 261 1181 261 1181 235 1191 c 128,-1,27
 209 1201 209 1201 182.5 1216.5 c 128,-1,28
 156 1232 156 1232 138 1264 c 128,-1,29
 120 1296 120 1296 120 1340 c 0,30,31
 120 1416 120 1416 172.5 1464 c 128,-1,32
 225 1512 225 1512 308 1512 c 0,33,34
 388 1512 388 1512 443.5 1459.5 c 128,-1,35
 499 1407 499 1407 499 1331 c 0,36,37
 499 1244 499 1244 463.5 1156.5 c 128,-1,38
 428 1069 428 1069 368.5 1012 c 128,-1,39
 309 955 309 955 246 955 c 0,40,41
 198 955 198 955 198 986 c 0,21,22
EndSplineSet
EndChar

